<?xml version="1.0" encoding="UTF-8" standalone="no"?>
<!-- Created with Inkscape (http://www.inkscape.org/) -->

<svg
   xmlns:dc="http://purl.org/dc/elements/1.1/"
   xmlns:cc="http://creativecommons.org/ns#"
   xmlns:rdf="http://www.w3.org/1999/02/22-rdf-syntax-ns#"
   xmlns:svg="http://www.w3.org/2000/svg"
   xmlns="http://www.w3.org/2000/svg"
   xmlns:sodipodi="http://sodipodi.sourceforge.net/DTD/sodipodi-0.dtd"
   xmlns:inkscape="http://www.inkscape.org/namespaces/inkscape"
   width="101.09389mm"
   height="89.96759mm"
   viewBox="0 0 101.09389 89.96759"
   version="1.1"
   id="svg1040"
   inkscape:version="0.92.4 (f8dce91, 2019-08-02)"
   sodipodi:docname="index_getting_started.svg">
  <defs
     id="defs1034" />
  <sodipodi:namedview
     id="base"
     pagecolor="#ffffff"
     bordercolor="#666666"
     borderopacity="1.0"
     inkscape:pageopacity="0.0"
     inkscape:pageshadow="2"
     inkscape:zoom="0.35"
     inkscape:cx="-93.242129"
     inkscape:cy="-189.9825"
     inkscape:document-units="mm"
     inkscape:current-layer="layer1"
     showgrid="false"
     fit-margin-top="0"
     fit-margin-left="0"
     fit-margin-right="0"
     fit-margin-bottom="0"
     inkscape:window-width="1875"
     inkscape:window-height="1056"
     inkscape:window-x="1965"
     inkscape:window-y="0"
     inkscape:window-maximized="1" />
  <metadata
     id="metadata1037">
    <rdf:RDF>
      <cc:Work
         rdf:about="">
        <dc:format>image/svg+xml</dc:format>
        <dc:type
           rdf:resource="http://purl.org/dc/dcmitype/StillImage" />
        <dc:title></dc:title>
      </cc:Work>
    </rdf:RDF>
  </metadata>
  <g
     inkscape:label="Layer 1"
     inkscape:groupmode="layer"
     id="layer1"
     transform="translate(2.9219487,-8.5995374)">
    <path
       style="fill:#459DB9;fill-opacity:1;stroke-width:0.20233451"
       d="M 37.270955,98.335591 C 33.358064,97.07991 31.237736,92.52319 32.964256,89.08022 c 0.18139,-0.361738 4.757999,-5.096629 10.17021,-10.521968 l 9.84041,-9.864254 -4.03738,-4.041175 -4.037391,-4.041172 -4.96415,4.916665 c -3.61569,3.581096 -5.238959,5.04997 -5.975818,5.407377 l -1.011682,0.490718 H 17.267525 1.5866055 L 0.65034544,70.96512 C -2.2506745,69.535833 -3.5952145,66.18561 -2.5925745,62.884631 c 0.53525,-1.762217 1.61699004,-3.050074 3.22528014,-3.839847 l 1.15623996,-0.56778 13.2591094,-0.05613 13.259111,-0.05613 11.5262,-11.527539 11.526199,-11.527528 H 40.622647 c -12.145542,0 -12.189222,-0.0046 -13.752801,-1.445851 -2.229871,-2.055423 -2.162799,-5.970551 0.135998,-7.938238 1.475193,-1.262712 1.111351,-1.238469 18.588522,-1.238469 12.899229,0 16.035311,0.05193 16.692589,0.276494 0.641832,0.219264 2.590731,2.051402 9.416301,8.852134 l 8.606941,8.575638 h 6.848168 c 4.837422,0 7.092281,0.07311 7.679571,0.249094 0.48064,0.144008 1.22985,0.634863 1.77578,1.163429 2.383085,2.307333 1.968685,6.539886 -0.804989,8.221882 -0.571871,0.346781 -1.38284,0.687226 -1.80217,0.756523 -0.41933,0.06928 -4.2741,0.127016 -8.56615,0.128238 -6.56998,0.0016 -7.977492,-0.04901 -8.902732,-0.321921 -0.975569,-0.287742 -1.400468,-0.622236 -3.783999,-2.978832 l -2.685021,-2.654679 -5.05411,5.051071 -5.0541,5.051081 3.926292,3.947202 c 2.365399,2.378001 4.114289,4.309171 4.399158,4.857713 0.39266,0.75606 0.47311,1.219412 0.474321,2.731516 0.003,3.083647 0.620779,2.331942 -13.598011,16.531349 -10.273768,10.259761 -12.679778,12.563171 -13.500979,12.92519 -1.267042,0.55857 -3.156169,0.681342 -4.390271,0.285321 z m 40.130741,-65.45839 c -2.212909,-0.579748 -3.782711,-1.498393 -5.51275,-3.226063 -2.522111,-2.518633 -3.633121,-5.181304 -3.633121,-8.707194 0,-3.530699 1.11238,-6.197124 3.631161,-8.704043 4.866751,-4.8438383 12.324781,-4.8550953 17.211791,-0.026 3.908758,3.862461 4.818578,9.377999 2.372188,14.380771 -0.846209,1.730481 -3.39493,4.326384 -5.143839,5.239072 -2.69708,1.407492 -6.042829,1.798628 -8.92543,1.043434 z"
       id="path1000"
       inkscape:connector-curvature="0" />
  </g>
</svg>
