<?xml version="1.0" encoding="UTF-8" standalone="no"?>
<!-- Created with Inkscape (http://www.inkscape.org/) by Marsupilami -->
<svg xmlns:svg="http://www.w3.org/2000/svg" xmlns="http://www.w3.org/2000/svg" version="1.0" width="1024" height="420" viewBox="0 0 129.24898 53.067852" id="svg2320">
  <defs id="defs2322"/>
  <g transform="translate(-310.37551,-505.82825)" id="layer1">
    <path d="M 18.46875,0 C 16.638866,-0.041377236 14.748438,0.1725 12.8125,0.65625 C 3.86,2.8925 -6.16125,14.40875 4.78125,27.6875 L 11.3125,35.59375 L 13.15625,37.84375 C 14.39375,39.315 16.41875,39.28875 17.90625,38.0625 C 19.40125,36.829998 19.82625,34.80875 18.59375,33.3125 C 18.592173,33.310397 18.071121,32.679752 17.84375,32.40625 L 17.875,32.40625 C 17.402936,31.838361 17.300473,31.743127 16.8125,31.15625 C 14.448752,28.313409 11.75,25.03125 11.75,25.03125 C 6.9987503,19.265 9.11875,12.14125 15.5625,8.09375 C 21.24,4.5275001 31.65875,5.80125 35.25,11.65625 C 32.988202,4.9805465 26.398246,0.17930136 18.46875,0 z M 19.78125,13.9375 C 18.937031,13.90875 18.055625,14.230625 17.3125,14.84375 C 15.815001,16.0775 15.39375,18.10125 16.625,19.59375 C 16.627499,19.597501 16.77625,19.7825 17.03125,20.09375 C 19.863614,23.496657 23.625,28.0625 23.625,28.0625 C 28.3775,33.82875 26.25625,40.92125 19.8125,44.96875 C 14.136251,48.53375 3.71625,47.2575 0.125,41.40625 C 2.90875,49.618751 12.23875,54.9875 22.5625,52.40625 C 31.5175,50.166248 41.53625,38.6825 30.59375,25.40625 L 22.9375,16.15625 L 22.0625,15.0625 C 21.44375,14.326875 20.625469,13.96625 19.78125,13.9375 z " transform="translate(310.37551,505.82825)" style="fill:#007cc2;fill-opacity:1;fill-rule:nonzero;stroke:none" id="path2440"/>
    <path d="M 53.53125,6.3125 C 47.8625,6.3125 41.374998,9.2362506 41.375,16.28125 C 41.375,22.9875 46.708752,24.869999 52,26.15625 C 57.355,27.4425 62.656249,28.187498 62.65625,32.65625 C 62.65625,37.05875 58.121251,37.875002 54.78125,37.875 C 50.3725,37.875 46.218751,36.27125 46.03125,31.125 L 40.6875,31.125 C 41,39.79375 47.161249,42.968749 54.46875,42.96875 C 61.085,42.96875 68.343749,40.27125 68.34375,31.9375 C 68.34375,25.16375 63.041251,23.25625 57.6875,21.96875 C 52.7125,20.6825 47.031249,20.00625 47.03125,15.875 C 47.03125,12.3525 50.75625,11.40625 53.96875,11.40625 C 57.49875,11.40625 61.151251,12.810001 61.53125,17.28125 L 66.875,17.28125 C 66.435,8.74625 60.712498,6.3125001 53.53125,6.3125 z M 84.40625,6.3125 C 77.159998,6.3125001 70.90625,9.3625 70.59375,18.03125 L 75.9375,18.03125 C 76.190003,12.883749 79.5275,11.40625 84.0625,11.40625 C 87.466253,11.40625 91.3125,12.20625 91.3125,17.21875 C 91.312501,21.553749 86.2975,21.155 80.375,22.375 C 74.833751,23.526251 69.34375,25.23 69.34375,33.15625 C 69.343748,40.133748 74.20125,42.96875 80.125,42.96875 C 84.656249,42.968749 88.6025,41.255 91.5625,37.53125 C 91.562499,41.322498 93.3525,42.96875 96.125,42.96875 C 97.823751,42.968749 98.9925,42.60875 99.9375,42 L 99.9375,37.53125 C 99.244997,37.802498 98.7525,37.875 98.3125,37.875 C 96.612501,37.875002 96.625,36.68 96.625,33.96875 L 96.625,15.9375 C 96.624998,7.7424996 90.265,6.3125 84.40625,6.3125 z M 112.40625,6.3125 C 106.7375,6.3125 100.25,9.2362506 100.25,16.28125 C 100.25,22.9875 105.61625,24.869999 110.90625,26.15625 C 116.2625,27.4425 121.5625,28.187498 121.5625,32.65625 C 121.5625,37.05875 117.02625,37.875002 113.6875,37.875 C 109.2775,37.875 105.125,36.27125 104.9375,31.125 L 99.5625,31.125 C 99.87625,39.79375 106.06875,42.968749 113.375,42.96875 C 119.9875,42.96875 127.21875,40.27125 127.21875,31.9375 C 127.21875,25.16375 121.91625,23.25625 116.5625,21.96875 C 111.58875,20.6825 105.9375,20.00625 105.9375,15.875 C 105.9375,12.3525 109.63125,11.40625 112.84375,11.40625 C 116.37,11.40625 120.025,12.810001 120.40625,17.28125 L 125.78125,17.28125 C 125.3425,8.74625 119.59,6.3125001 112.40625,6.3125 z M 91.25,24.0625 L 91.25,29.96875 C 91.25,33.1525 88.36875,37.875 81.3125,37.875 C 78.040002,37.875002 75,36.51375 75,32.71875 C 75.000003,28.452501 78.0375,27.115 81.5625,26.4375 C 85.15375,25.761251 89.1725,25.6875 91.25,24.0625 z M 38.21875,39.40625 C 37.088748,39.406249 36.125,40.28375 36.125,41.46875 C 36.125001,42.658749 37.08875,43.53125 38.21875,43.53125 C 39.338748,43.53125 40.28125,42.65875 40.28125,41.46875 C 40.281252,40.283749 39.33875,39.40625 38.21875,39.40625 z M 127.15625,39.40625 C 126.0225,39.406249 125.0625,40.285 125.0625,41.46875 C 125.0625,42.66 126.0225,43.53125 127.15625,43.53125 C 128.275,43.53125 129.25,42.66 129.25,41.46875 C 129.25,40.285 128.275,39.40625 127.15625,39.40625 z M 38.21875,39.75 C 39.146248,39.750002 39.875,40.49 39.875,41.46875 C 39.875,42.456249 39.14625,43.1875 38.21875,43.1875 C 37.273748,43.187501 36.53125,42.45625 36.53125,41.46875 C 36.53125,40.489999 37.27375,39.75 38.21875,39.75 z M 127.15625,39.75 C 128.08375,39.750002 128.84375,40.49125 128.84375,41.46875 C 128.84375,42.4575 128.08375,43.1875 127.15625,43.1875 C 126.21,43.187499 125.5,42.4575 125.5,41.46875 C 125.5,40.49125 126.21,39.75 127.15625,39.75 z M 37.40625,40.28125 L 37.40625,42.65625 L 37.78125,42.65625 L 37.78125,41.625 L 38.1875,41.625 L 38.8125,42.65625 L 39.21875,42.65625 L 38.53125,41.59375 C 38.88375,41.553751 39.15625,41.395 39.15625,40.96875 C 39.156251,40.49875 38.8775,40.28125 38.3125,40.28125 L 37.40625,40.28125 z M 126.375,40.28125 L 126.375,42.65625 L 126.71875,42.65625 L 126.71875,41.625 L 127.15625,41.625 L 127.78125,42.65625 L 128.1875,42.65625 L 127.5,41.59375 C 127.84625,41.554998 128.125,41.395 128.125,40.96875 C 128.125,40.49875 127.8425,40.28125 127.28125,40.28125 L 126.375,40.28125 z M 37.78125,40.59375 L 38.28125,40.59375 C 38.528749,40.593749 38.78125,40.6425 38.78125,40.9375 C 38.78125,41.300001 38.5275,41.3125 38.21875,41.3125 L 37.78125,41.3125 L 37.78125,40.59375 z M 126.71875,40.59375 L 127.21875,40.59375 C 127.47125,40.593749 127.75,40.64125 127.75,40.9375 C 127.75,41.300001 127.4625,41.3125 127.15625,41.3125 L 126.71875,41.3125 L 126.71875,40.59375 z " transform="translate(310.37551,505.82825)" style="fill:#000000;fill-opacity:1;fill-rule:nonzero;stroke:none" id="path2448"/>
  </g>
<head xmlns=""/></svg>