<svg xmlns="http://www.w3.org/2000/svg" viewBox="0 0 415.27 95.89">
  <defs>
    <style>
      .cls-1 {
        fill: #135f90;
      }
    </style>
  </defs>
  <title>stata-logo-blue</title>
  <g id="Foreground">
    <path class="cls-1" d="M94.23,0l-8,21.31H29.3a8,8,0,0,0,0,16H64.93a29.3,29.3,0,0,1,0,58.6H0L8,74.58H64.93a8,8,0,1,0,0-16H29.3A29.3,29.3,0,0,1,29.3,0Z"/>
    <polygon class="cls-1" points="259.9 0 251.91 21.31 278.55 21.31 278.55 95.89 299.86 95.89 299.86 21.31 321.16 21.31 329.15 0 259.9 0"/>
    <path class="cls-1" d="M386,58.6H345a8,8,0,0,0,0,16h49v-16ZM366.31,37.29H394V29a8,8,0,0,0-8-7.65H323.69l8-21.31H386a29.3,29.3,0,0,1,29.3,29.3V95.89H345a29.3,29.3,0,0,1,0-58.6Z"/>
    <path class="cls-1" d="M222.8,58.6h-41a8,8,0,1,0,0,16h48.95v-16ZM212.14,37.29H230.8V29a8,8,0,0,0-8-7.65H160.53l8-21.31H222.8a29.3,29.3,0,0,1,29.3,29.3V95.89H181.84a29.3,29.3,0,0,1,0-58.6Z"/>
    <polygon class="cls-1" points="96.73 0 88.74 21.31 115.38 21.31 115.38 95.89 136.69 95.89 136.69 21.31 158 21.31 165.99 0 96.73 0"/>
  </g>
<head xmlns=""/></svg>