<?xml version="1.0" encoding="UTF-8" standalone="no"?>
<!-- Generated by IcoMoon.io -->

<svg
   xmlns:dc="http://purl.org/dc/elements/1.1/"
   xmlns:cc="http://creativecommons.org/ns#"
   xmlns:rdf="http://www.w3.org/1999/02/22-rdf-syntax-ns#"
   xmlns:svg="http://www.w3.org/2000/svg"
   xmlns="http://www.w3.org/2000/svg"
   xmlns:sodipodi="http://sodipodi.sourceforge.net/DTD/sodipodi-0.dtd"
   xmlns:inkscape="http://www.inkscape.org/namespaces/inkscape"
   version="1.1"
   width="20.558033"
   height="29.264381"
   viewBox="0 0 20.558033 29.264382"
   id="svg4"
   sodipodi:docname="logo_sql.svg"
   inkscape:version="0.92.4 (f8dce91, 2019-08-02)">
  <metadata
     id="metadata10">
    <rdf:RDF>
      <cc:Work
         rdf:about="">
        <dc:format>image/svg+xml</dc:format>
        <dc:type
           rdf:resource="http://purl.org/dc/dcmitype/StillImage" />
        <dc:title></dc:title>
      </cc:Work>
    </rdf:RDF>
  </metadata>
  <defs
     id="defs8" />
  <sodipodi:namedview
     pagecolor="#ffffff"
     bordercolor="#666666"
     borderopacity="1"
     objecttolerance="10"
     gridtolerance="10"
     guidetolerance="10"
     inkscape:pageopacity="0"
     inkscape:pageshadow="2"
     inkscape:window-width="1871"
     inkscape:window-height="1029"
     id="namedview6"
     showgrid="false"
     fit-margin-top="0"
     fit-margin-left="0"
     fit-margin-right="0"
     fit-margin-bottom="0"
     inkscape:zoom="16.68772"
     inkscape:cx="-2.295492"
     inkscape:cy="16.594944"
     inkscape:window-x="1649"
     inkscape:window-y="27"
     inkscape:window-maximized="1"
     inkscape:current-layer="svg4" />
  <path
     d="m 18.846017,1.608 c -0.497,-0.326 -1.193,-0.615 -2.069,-0.858 -1.742,-0.484 -4.05,-0.75 -6.498,-0.75 -2.4480004,0 -4.7560004,0.267 -6.4980004,0.75 -0.877,0.243 -1.573,0.532 -2.069,0.858 -0.619,0.407 -0.93299996,0.874 -0.93299996,1.391 v 12 c 0,0.517 0.31399996,0.985 0.93299996,1.391 0.497,0.326 1.193,0.615 2.069,0.858 1.742,0.484 4.05,0.75 6.4980004,0.75 2.448,0 4.756,-0.267 6.498,-0.751 0.877,-0.243 1.573,-0.532 2.069,-0.858 0.619,-0.406 0.933,-0.874 0.933,-1.391 v -12 c 0,-0.517 -0.314,-0.985 -0.933,-1.391 z M 4.0490166,1.713 c 1.658,-0.46 3.87,-0.714 6.2300004,-0.714 2.36,0 4.573,0.254 6.23,0.714 1.795,0.499 2.27,1.059 2.27,1.286 0,0.227 -0.474,0.787 -2.27,1.286 -1.658,0.46 -3.87,0.714 -6.23,0.714 -2.3600004,0 -4.5730004,-0.254 -6.2300004,-0.714 -1.795,-0.499 -2.27,-1.059 -2.27,-1.286 0,-0.227 0.474,-0.787 2.27,-1.286 z M 16.509017,16.285 c -1.658,0.46 -3.87,0.714 -6.23,0.714 -2.3600004,0 -4.5730004,-0.254 -6.2300004,-0.714 -1.795,-0.499 -2.27,-1.059 -2.27,-1.286 v -2.566 c 0.492,0.309 1.164,0.583 2.002,0.816 1.742,0.484 4.05,0.75 6.4980004,0.75 2.448,0 4.756,-0.267 6.498,-0.751 0.838,-0.233 1.511,-0.507 2.002,-0.816 v 2.566 c 0,0.227 -0.474,0.787 -2.27,1.286 z m 0,-4 c -1.658,0.46 -3.87,0.714 -6.23,0.714 -2.3600004,0 -4.5730004,-0.254 -6.2300004,-0.714 -1.795,-0.499 -2.27,-1.059 -2.27,-1.286 V 8.433 c 0.492,0.309 1.164,0.583 2.002,0.816 1.742,0.484 4.05,0.75 6.4980004,0.75 2.448,0 4.756,-0.267 6.498,-0.75 0.838,-0.233 1.511,-0.507 2.002,-0.816 v 2.566 c 0,0.227 -0.474,0.787 -2.27,1.286 z m 0,-4 c -1.658,0.46 -3.87,0.714 -6.23,0.714 -2.3600004,0 -4.5730004,-0.254 -6.2300004,-0.714 -1.795,-0.499 -2.27,-1.059 -2.27,-1.286 V 4.433 c 0.492,0.309 1.164,0.583 2.002,0.816 1.742,0.484 4.05,0.75 6.4980004,0.75 2.448,0 4.756,-0.267 6.498,-0.75 0.838,-0.233 1.511,-0.507 2.002,-0.816 v 2.566 c 0,0.227 -0.474,0.787 -2.27,1.286 z"
     id="path2"
     inkscape:connector-curvature="0"
     style="fill:#000000" />
  <text
     xml:space="preserve"
     style="font-style:normal;font-weight:normal;font-size:32.32878494px;line-height:1.25;font-family:sans-serif;letter-spacing:0px;word-spacing:0px;fill:#000000;fill-opacity:1;stroke:none;stroke-width:0.99999994"
     x="-0.71034926"
     y="27.875254"
     id="text819"><tspan
       sodipodi:role="line"
       id="tspan817"
       x="-0.71034926"
       y="27.875254"
       style="font-size:10.77626133px;stroke-width:0.99999994">SQL</tspan></text>
</svg>
