<?xml version="1.0" encoding="UTF-8"?>
<!-- Generator: Adobe Illustrator 19.0.1, SVG Export Plug-In . SVG Version: 6.00 Build 0)  -->
<svg version="1.1" id="Layer_1" xmlns="http://www.w3.org/2000/svg" xmlns:xlink="http://www.w3.org/1999/xlink" x="0px" y="0px" viewBox="0 0 432 135.7" style="enable-background:new 0 0 432 135.7;" xml:space="preserve">
<style type="text/css">
	.st0{fill:#F1563F;}
	.st1{fill:#008896;}
</style>
<g>
	<g>
		<g>
			<path class="st0" d="M97.9,12.2v51.9c0,12.7-6.8,19.7-19.1,19.7c-12.2,0-19-7-19-19.7V12.2h5v51.9c0,9.8,4.8,14.9,14,14.9     c9.2,0,14.1-5.2,14.1-14.9V12.2H97.9z"/>
		</g>
		<g>
			<path class="st1" d="M329.8,29.8c0-0.3,0.1-0.7,0.1-1c0-8.3-6.9-16.7-20.1-16.7c-13.1,0-20.6,7.7-20.6,21.2v29.5     c0,13.5,7.4,21.2,20.3,21.2c13.4,0,20.4-8.4,20.4-16.7c0-0.3,0-0.8-0.1-1.4l-7.8,0c-0.7,4.6-1.7,10.4-12,10.4     c-9,0-13-4.1-13-13.4V33.3c0-9.2,4-13.4,12.7-13.4c7.7,0,11.8,3.4,12.2,10.1L329.8,29.8z"/>
		</g>
		<g>
			<path class="st1" d="M376.2,12.4v50.3c0,13.6-7.3,21.2-20.5,21.2c-13.2,0-20.4-7.5-20.4-21.2V12.4h7.9v50.3     c0,9,4.1,13.4,12.5,13.4c8.4,0,12.6-4.5,12.6-13.4V12.4H376.2z"/>
		</g>
		<g>
			<path class="st1" d="M414.9,22.6c-2-1-6-2.9-11.3-2.9c-8.4,0-12.6,3.4-12.6,10c0,7.1,4.8,9.1,12.5,11.8     c8.3,2.9,18.6,6.5,18.6,21.9c0,13-7.5,20.5-20.6,20.5c-8.2,0-14.2-2.7-17.3-6c-1.2-1.3-0.5-0.6-1.2-1.6l5.3-5.1     c1.9,2.2,5,5,12.8,5c8.7,0,13.2-4.1,13.2-12.3c0-9.9-6.6-12.3-14.3-15.1C392,46,383,42.8,383,30.1c0-11.3,7.7-18.1,20.6-18.1     c5.5,0,12.5,1.3,15.4,4.1L414.9,22.6z"/>
		</g>
		<g>
			<path class="st1" d="M283.5,47.2c0-21.2-17.2-38.5-38.5-38.5c-21.2,0-38.5,17.2-38.5,38.5c0,21.2,17.2,38.5,38.5,38.5     C266.2,85.6,283.5,68.4,283.5,47.2z M213.1,47.2c0-17.6,14.3-31.9,31.9-31.9c17.6,0,31.9,14.3,31.9,31.9     c0,17.6-14.3,31.9-31.9,31.9C227.4,79.1,213.1,64.8,213.1,47.2z"/>
		</g>
		<g>
			<path class="st0" d="M233.9,32.3c1.2,0,2.1-1,2.1-2.3c0-1.3-0.9-2.3-2.1-2.3h-7.3c-1.3,0-2.3,1-2.3,2.2v34.5c0,1.2,1,2.2,2.3,2.2     h7.3c1.2,0,2.1-1,2.1-2.3c0-1.3-1-2.3-2.1-2.3h-4.9V32.3H233.9z"/>
		</g>
		<g>
			<path class="st0" d="M256.1,62c-1.2,0-2.2,1-2.2,2.3c0,1.3,1,2.3,2.2,2.3h7.3c1.3,0,2.3-1,2.3-2.2V29.9c0-1.2-1-2.2-2.3-2.2h-7.3     c-1.2,0-2.2,1-2.2,2.3c0,1.3,1,2.3,2.2,2.3h4.9V62H256.1z"/>
		</g>
		<polygon class="st1" points="208.7,19.8 208.7,12.1 171.8,12.1 171.8,83.7 179.7,83.7 179.7,51.5 196.2,51.5 196.2,43.9     179.7,43.9 179.7,19.8   "/>
		<polygon class="st0" points="156.6,12.2 152.3,12.2 133.2,51.9 113.9,12.2 109.7,12.2 109.7,83.7 114.6,83.7 114.6,24.3     133.1,61.9 151.6,24.4 151.6,83.7 156.6,83.7   "/>
		<polygon class="st0" points="44.6,83.7 48.1,83.7 48.1,12.1 43.1,12.1 43.2,70.5 14.2,12.2 10.1,12.2 10.1,83.7 15.1,83.7     14.9,23.1   "/>
	</g>
	<g id="XMLID_3_">
		<path class="st1" d="M34.9,125.3c-1.2,0-2.3-0.2-3.2-0.5c-0.9-0.3-1.6-0.8-2.1-1.5c-0.5-0.7-0.9-1.4-1.1-2.3    c-0.2-0.9-0.4-1.9-0.4-3v-8.5c0-2.3,0.5-4.1,1.6-5.3c1.1-1.2,2.8-1.8,5.2-1.8c2.4,0,4.1,0.6,5.2,1.8c1.1,1.2,1.6,3,1.6,5.3v8.5    c0,2.3-0.5,4.1-1.6,5.4C39.1,124.7,37.3,125.3,34.9,125.3z M33.3,122.5c0.4,0.2,1,0.3,1.7,0.3c0.7,0,1.2-0.1,1.7-0.3    c0.4-0.2,0.8-0.5,1-0.9c0.2-0.4,0.4-0.8,0.5-1.3c0.1-0.5,0.1-1,0.1-1.7v-9.9c0-0.7,0-1.2-0.1-1.7c-0.1-0.5-0.2-0.9-0.5-1.2    c-0.2-0.4-0.6-0.7-1-0.8c-0.4-0.2-1-0.3-1.7-0.3c-0.7,0-1.2,0.1-1.7,0.3c-0.4,0.2-0.8,0.5-1,0.8c-0.2,0.4-0.4,0.8-0.5,1.2    c-0.1,0.5-0.1,1-0.1,1.7v9.9c0,0.7,0,1.3,0.1,1.7c0.1,0.5,0.2,0.9,0.5,1.3C32.5,122.1,32.8,122.4,33.3,122.5z"/>
		<path class="st1" d="M46.7,125v-22.5h6.2c2.2,0,3.7,0.5,4.7,1.6c1,1.1,1.5,2.6,1.5,4.6c0,1.8-0.5,3.3-1.6,4.3    c-1,1-2.6,1.5-4.6,1.5h-2.7V125H46.7z M50.2,112.3h1.6c1.5,0,2.6-0.2,3.1-0.7c0.6-0.5,0.9-1.4,0.9-2.8c0-0.6,0-1,0-1.4    c0-0.4-0.1-0.7-0.2-1c-0.1-0.3-0.2-0.6-0.4-0.8c-0.2-0.2-0.4-0.3-0.7-0.5c-0.3-0.1-0.7-0.2-1.1-0.3c-0.4,0-0.9-0.1-1.5-0.1h-1.6    V112.3z"/>
		<path class="st1" d="M63,125v-22.5h9.6v2.3h-6.2v7.4h5v2.2h-5v8.3h6.2v2.3H63z"/>
		<path class="st1" d="M77.1,125v-22.5h2.4l7.1,15v-15h2.9V125h-2.2L80,109.7V125H77.1z"/>
		<path class="st1" d="M109.6,125.3c-1,0-1.9-0.1-2.7-0.4c-0.8-0.3-1.4-0.6-1.9-1c-0.5-0.4-0.9-1-1.2-1.6c-0.3-0.6-0.5-1.3-0.7-2    c-0.1-0.7-0.2-1.5-0.2-2.4v-8c0-1,0.1-1.8,0.2-2.5c0.1-0.7,0.3-1.4,0.7-2.1c0.3-0.6,0.7-1.2,1.2-1.6c0.5-0.4,1.1-0.7,1.9-1    c0.8-0.2,1.7-0.4,2.7-0.4c2.2,0,3.8,0.5,4.8,1.6c1,1.1,1.5,2.7,1.5,4.8v1.8h-3.3V109c0-0.3,0-0.6,0-0.8c0-0.2,0-0.4,0-0.7    c0-0.3,0-0.5-0.1-0.7c0-0.2-0.1-0.4-0.2-0.6c-0.1-0.2-0.1-0.4-0.2-0.5c-0.1-0.1-0.2-0.3-0.4-0.4c-0.1-0.1-0.3-0.2-0.5-0.3    c-0.2-0.1-0.4-0.1-0.7-0.2c-0.3,0-0.6-0.1-0.9-0.1c-0.5,0-0.9,0-1.3,0.1c-0.4,0.1-0.7,0.2-0.9,0.4c-0.2,0.2-0.4,0.4-0.6,0.7    c-0.1,0.2-0.3,0.6-0.3,0.9c-0.1,0.4-0.1,0.8-0.1,1.1s0,0.8,0,1.3v8.9c0,1.7,0.2,2.9,0.7,3.5c0.5,0.7,1.3,1,2.5,1    c0.5,0,0.9,0,1.2-0.1c0.3-0.1,0.6-0.2,0.8-0.4c0.2-0.2,0.4-0.4,0.5-0.7c0.1-0.2,0.2-0.5,0.3-0.9c0.1-0.4,0.1-0.7,0.1-1.1    c0-0.3,0-0.8,0-1.3v-1.7h3.3v1.7c0,0.9-0.1,1.6-0.2,2.3c-0.1,0.7-0.3,1.3-0.6,1.9c-0.3,0.6-0.7,1.1-1.1,1.5    c-0.5,0.4-1.1,0.7-1.8,0.9C111.4,125.2,110.6,125.3,109.6,125.3z"/>
		<path class="st1" d="M127.1,125.3c-1.2,0-2.3-0.2-3.2-0.5c-0.9-0.3-1.6-0.8-2.1-1.5c-0.5-0.7-0.9-1.4-1.1-2.3    c-0.2-0.9-0.4-1.9-0.4-3v-8.5c0-2.3,0.5-4.1,1.6-5.3c1.1-1.2,2.8-1.8,5.2-1.8c2.4,0,4.1,0.6,5.2,1.8c1.1,1.2,1.6,3,1.6,5.3v8.5    c0,2.3-0.5,4.1-1.6,5.4C131.2,124.7,129.5,125.3,127.1,125.3z M125.4,122.5c0.4,0.2,1,0.3,1.7,0.3c0.7,0,1.2-0.1,1.7-0.3    c0.4-0.2,0.8-0.5,1-0.9c0.2-0.4,0.4-0.8,0.5-1.3c0.1-0.5,0.1-1,0.1-1.7v-9.9c0-0.7,0-1.2-0.1-1.7c-0.1-0.5-0.2-0.9-0.5-1.2    c-0.2-0.4-0.6-0.7-1-0.8c-0.4-0.2-1-0.3-1.7-0.3c-0.7,0-1.2,0.1-1.7,0.3c-0.4,0.2-0.8,0.5-1,0.8c-0.2,0.4-0.4,0.8-0.5,1.2    c-0.1,0.5-0.1,1-0.1,1.7v9.9c0,0.7,0,1.3,0.1,1.7c0.1,0.5,0.2,0.9,0.5,1.3C124.6,122.1,125,122.4,125.4,122.5z"/>
		<path class="st1" d="M138.9,125v-22.5h5.4c2.7,0,4.6,0.6,5.7,1.7c1.1,1.1,1.7,2.8,1.7,5.2v8.3c0,2.5-0.5,4.3-1.6,5.5    c-1.1,1.2-2.9,1.8-5.5,1.8H138.9z M142.3,122.8h2c0.5,0,1,0,1.4-0.1c0.4-0.1,0.7-0.2,1-0.3c0.3-0.1,0.5-0.3,0.7-0.6    c0.2-0.3,0.3-0.6,0.4-0.8c0.1-0.2,0.2-0.6,0.2-1.1c0-0.5,0.1-0.9,0.1-1.2c0-0.3,0-0.8,0-1.5v-7.3c0-0.5,0-1,0-1.4    c0-0.4-0.1-0.7-0.1-1.1c-0.1-0.4-0.2-0.7-0.3-0.9c-0.1-0.2-0.3-0.5-0.5-0.7c-0.2-0.2-0.4-0.4-0.7-0.5c-0.3-0.1-0.6-0.2-1-0.3    c-0.4-0.1-0.8-0.1-1.3-0.1h-1.9V122.8z"/>
		<path class="st1" d="M156.6,125v-22.5h9.6v2.3h-6.2v7.4h5v2.2h-5v8.3h6.2v2.3H156.6z"/>
		<path class="st1" d="M178.9,112.4v-2.3h9.4v2.3H178.9z M178.9,117.3v-2.3h9.4v2.3H178.9z"/>
		<path class="st1" d="M202.1,125v-22.5h5.7c2.3,0,3.9,0.5,5,1.4c1.1,0.9,1.6,2.3,1.6,4.3c0,2.9-1.2,4.5-3.6,4.8    c1.5,0.3,2.5,1,3.2,1.9c0.7,0.9,1,2.2,1,3.8c0,2-0.5,3.6-1.6,4.7c-1,1.1-2.7,1.7-4.8,1.7H202.1z M205.6,111.9h2    c1.4,0,2.4-0.3,3-0.9c0.6-0.6,0.8-1.5,0.8-2.9c0-0.4,0-0.8-0.1-1.2s-0.2-0.6-0.3-0.8c-0.1-0.2-0.3-0.4-0.5-0.6    c-0.2-0.2-0.5-0.3-0.7-0.4c-0.2-0.1-0.5-0.2-0.9-0.2c-0.4,0-0.8-0.1-1.1-0.1c-0.4,0-0.8,0-1.4,0h-0.8V111.9z M205.6,122.8h2.3    c1.5,0,2.5-0.3,3.1-1c0.6-0.6,0.8-1.7,0.8-3.2c0-1.4-0.3-2.5-1-3.2c-0.7-0.7-1.7-1.1-3.2-1.1h-2.1V122.8z"/>
		<path class="st1" d="M219.7,125v-22.5h9.6v2.3h-6.2v7.4h5v2.2h-5v8.3h6.2v2.3H219.7z"/>
		<path class="st1" d="M236.4,125v-20.2h-4.6v-2.3h12.4v2.3h-4.4V125H236.4z"/>
		<path class="st1" d="M250.2,125v-20.2h-4.6v-2.3h12.4v2.3h-4.4V125H250.2z"/>
		<path class="st1" d="M261.5,125v-22.5h9.6v2.3H265v7.4h5v2.2h-5v8.3h6.2v2.3H261.5z"/>
		<path class="st1" d="M275.6,125v-22.5h5c2.5,0,4.4,0.5,5.5,1.4c1.2,0.9,1.8,2.5,1.8,4.6c0,2.9-1,4.7-3.1,5.3l3.6,11.3H285    l-3.3-10.6H279V125H275.6z M279,112.2h1.3c1.5,0,2.6-0.3,3.2-0.8c0.6-0.5,1-1.5,1-2.9c0-1.4-0.3-2.3-0.8-2.9    c-0.6-0.6-1.6-0.8-3.1-0.8H279V112.2z"/>
		<path class="st1" d="M307.5,125.3c-2.1,0-3.7-0.6-4.8-1.8c-1.1-1.2-1.7-2.8-1.8-4.8l3.1-0.8c0.2,3.2,1.4,4.8,3.5,4.8    c0.9,0,1.6-0.2,2-0.7c0.5-0.4,0.7-1.1,0.7-2c0-0.5-0.1-0.9-0.2-1.3c-0.1-0.4-0.3-0.8-0.6-1.1c-0.3-0.4-0.6-0.7-0.8-0.9    c-0.3-0.2-0.6-0.6-1.1-1l-4.2-3.4c-0.8-0.7-1.5-1.4-1.8-2.2c-0.4-0.8-0.6-1.7-0.6-2.8c0-1.6,0.5-2.9,1.6-3.8    c1-0.9,2.5-1.4,4.3-1.4c2,0,3.5,0.4,4.5,1.4c1,1,1.6,2.4,1.8,4.4l-2.9,0.7c0-0.5-0.1-0.9-0.2-1.3c-0.1-0.4-0.2-0.8-0.3-1.1    c-0.2-0.4-0.4-0.7-0.6-0.9c-0.2-0.2-0.5-0.4-0.9-0.6c-0.4-0.1-0.8-0.2-1.3-0.2c-1.8,0.1-2.7,0.9-2.7,2.5c0,0.7,0.1,1.2,0.4,1.7    c0.3,0.4,0.7,0.9,1.3,1.4l4.2,3.4c1.1,0.9,2,1.8,2.6,2.9c0.6,1,1,2.2,1,3.5c0,1.6-0.5,3-1.7,3.9    C310.7,124.8,309.3,125.3,307.5,125.3z"/>
		<path class="st1" d="M323.9,125.3c-1,0-1.9-0.1-2.7-0.4c-0.8-0.3-1.4-0.6-1.9-1c-0.5-0.4-0.9-1-1.2-1.6c-0.3-0.6-0.5-1.3-0.7-2    c-0.1-0.7-0.2-1.5-0.2-2.4v-8c0-1,0.1-1.8,0.2-2.5c0.1-0.7,0.3-1.4,0.7-2.1c0.3-0.6,0.7-1.2,1.2-1.6c0.5-0.4,1.1-0.7,1.9-1    c0.8-0.2,1.7-0.4,2.7-0.4c2.2,0,3.9,0.5,4.8,1.6c1,1.1,1.5,2.7,1.5,4.8v1.8h-3.3V109c0-0.3,0-0.6,0-0.8c0-0.2,0-0.4,0-0.7    c0-0.3,0-0.5-0.1-0.7c0-0.2-0.1-0.4-0.2-0.6c-0.1-0.2-0.1-0.4-0.2-0.5c-0.1-0.1-0.2-0.3-0.4-0.4c-0.1-0.1-0.3-0.2-0.5-0.3    c-0.2-0.1-0.4-0.1-0.7-0.2c-0.3,0-0.5-0.1-0.9-0.1c-0.5,0-0.9,0-1.3,0.1c-0.4,0.1-0.7,0.2-0.9,0.4c-0.2,0.2-0.4,0.4-0.6,0.7    c-0.1,0.2-0.3,0.6-0.3,0.9c-0.1,0.4-0.1,0.8-0.1,1.1c0,0.4,0,0.8,0,1.3v8.9c0,1.7,0.2,2.9,0.7,3.5c0.5,0.7,1.3,1,2.5,1    c0.5,0,0.9,0,1.2-0.1c0.3-0.1,0.6-0.2,0.8-0.4c0.2-0.2,0.4-0.4,0.5-0.7c0.1-0.2,0.2-0.5,0.3-0.9c0.1-0.4,0.1-0.7,0.1-1.1    c0-0.3,0-0.8,0-1.3v-1.7h3.3v1.7c0,0.9-0.1,1.6-0.2,2.3c-0.1,0.7-0.3,1.3-0.6,1.9c-0.3,0.6-0.7,1.1-1.1,1.5    c-0.5,0.4-1.1,0.7-1.8,0.9C325.7,125.2,324.9,125.3,323.9,125.3z"/>
		<path class="st1" d="M335.2,125v-22.5h3.4V125H335.2z"/>
		<path class="st1" d="M344.2,125v-22.5h9.6v2.3h-6.2v7.4h5v2.2h-5v8.3h6.2v2.3H344.2z"/>
		<path class="st1" d="M358.3,125v-22.5h2.4l7.1,15v-15h2.9V125h-2.2l-7.2-15.4V125H358.3z"/>
		<path class="st1" d="M382.3,125.3c-1,0-1.9-0.1-2.7-0.4c-0.8-0.3-1.4-0.6-1.9-1c-0.5-0.4-0.9-1-1.2-1.6c-0.3-0.6-0.5-1.3-0.7-2    c-0.1-0.7-0.2-1.5-0.2-2.4v-8c0-1,0.1-1.8,0.2-2.5c0.1-0.7,0.3-1.4,0.7-2.1c0.3-0.6,0.7-1.2,1.2-1.6c0.5-0.4,1.1-0.7,1.9-1    c0.8-0.2,1.7-0.4,2.7-0.4c2.2,0,3.9,0.5,4.8,1.6c1,1.1,1.5,2.7,1.5,4.8v1.8h-3.3V109c0-0.3,0-0.6,0-0.8c0-0.2,0-0.4,0-0.7    c0-0.3,0-0.5-0.1-0.7c0-0.2-0.1-0.4-0.2-0.6c-0.1-0.2-0.1-0.4-0.2-0.5c-0.1-0.1-0.2-0.3-0.4-0.4c-0.1-0.1-0.3-0.2-0.5-0.3    c-0.2-0.1-0.4-0.1-0.7-0.2c-0.3,0-0.5-0.1-0.9-0.1c-0.5,0-0.9,0-1.3,0.1c-0.4,0.1-0.7,0.2-0.9,0.4c-0.2,0.2-0.4,0.4-0.6,0.7    c-0.1,0.2-0.3,0.6-0.3,0.9c-0.1,0.4-0.1,0.8-0.1,1.1c0,0.4,0,0.8,0,1.3v8.9c0,1.7,0.2,2.9,0.7,3.5c0.5,0.7,1.3,1,2.5,1    c0.5,0,0.9,0,1.2-0.1c0.3-0.1,0.6-0.2,0.8-0.4c0.2-0.2,0.4-0.4,0.5-0.7c0.1-0.2,0.2-0.5,0.3-0.9c0.1-0.4,0.1-0.7,0.1-1.1    c0-0.3,0-0.8,0-1.3v-1.7h3.3v1.7c0,0.9-0.1,1.6-0.2,2.3c-0.1,0.7-0.3,1.3-0.6,1.9c-0.3,0.6-0.7,1.1-1.1,1.5    c-0.5,0.4-1.1,0.7-1.8,0.9C384.1,125.2,383.2,125.3,382.3,125.3z"/>
		<path class="st1" d="M393.4,125v-22.5h9.6v2.3h-6.2v7.4h5v2.2h-5v8.3h6.2v2.3H393.4z"/>
	</g>
</g>
</svg>