<svg id="Layer_1" data-name="Layer 1" xmlns="http://www.w3.org/2000/svg" viewBox="0 0 664.97 470.93"><defs><style>.cls-1{fill:#130754;}.cls-2{fill:#ffca00;}.cls-3{fill:#e70488;}</style></defs><title>Artboard 57</title><path class="cls-1" d="M110.61,397.48c-10.28,0-20.73-4.25-27.29-12.58v45H62.76l0-111.08h18.6L82.09,331c6.38-9.39,17.72-14.35,28.53-14.34,20.72,0,36,17.36,36,40.4S131.33,397.49,110.61,397.48Zm-6.37-65.55c-12,0-21.8,9.39-21.8,25.16s9.74,25.16,21.79,25.16S126,372.86,126,357.09,116.28,331.93,104.24,331.93Z"/><path class="cls-1" d="M224.11,395.37l-.71-12.22c-6.38,9.39-17.72,14.35-28.52,14.35-20.73,0-36-17.37-36-40.4s15.24-40.4,36-40.39c10.8,0,22.14,5,28.52,14.35l.71-12.22h18.6v76.54Zm-22.85-63.43c-12,0-21.79,9.39-21.79,25.16s9.74,25.16,21.79,25.16,21.79-9.39,21.79-25.15S213.31,332,201.26,331.94Z"/><path class="cls-1" d="M314.62,395.39V353c0-14.88-5.14-19.84-14.53-19.84-9.74,0-20.37,8.85-20.38,19.48v42.7H259.17V318.84H278l.88,14.18c5.14-9.75,16.66-16.3,28.35-16.3,20.37,0,28,14.18,28,33.14v45.53Z"/><path class="cls-1" d="M410.52,395.4l-.71-12.23c-6.37,9.39-17.71,14.35-28.52,14.35-20.73,0-36-17.37-36-40.4s15.24-40.39,36-40.39c10.27,0,20.73,4.26,27.28,12.59V289.1h20.55l0,106.3ZM387.68,332c-12.05,0-21.8,9.39-21.8,25.16s9.74,25.15,21.79,25.16,21.79-9.39,21.79-25.16S399.72,332,387.68,332Z"/><path class="cls-1" d="M506.35,395.41l-.71-12.22c-6.38,9.39-17.72,14.35-28.52,14.34-20.73,0-36-17.36-36-40.39s15.24-40.4,36-40.39c10.8,0,22.14,5,28.52,14.35l.71-12.22H525v76.53ZM483.5,332c-12.05,0-21.79,9.39-21.79,25.16s9.74,25.16,21.79,25.16,21.79-9.39,21.79-25.16S495.55,332,483.5,332Z"/><path class="cls-1" d="M570.49,397.9a60.15,60.15,0,0,1-30.65-8.68L543.2,375c6.2,3.72,15.59,8.51,26.93,8.51,8.15,0,13.82-2.48,13.82-8.86,0-5.49-5.84-7.44-16.3-9.92-18.77-4.08-25.51-14-25.5-24.81,0-12,9.39-23.38,30.12-23.38,12.58,0,23.56,5.5,26,6.91L594.94,337a44.52,44.52,0,0,0-22.14-6.38c-8.33,0-12.41,2.83-12.41,7.44,0,5.13,5.32,7.44,13.47,9.39,20.19,4.25,28.34,13.64,28.34,23.92C602.2,387.81,590.15,397.9,570.49,397.9Z"/><rect class="cls-1" x="301.89" y="54.05" width="24.09" height="50.02"/><rect class="cls-1" x="301.89" y="156.8" width="24.09" height="50.02"/><rect class="cls-2" x="301.89" y="118.68" width="24.09" height="23.6"/><rect class="cls-1" x="263.19" y="95.18" width="24.09" height="166.27"/><rect class="cls-1" x="339.79" y="198.07" width="24.09" height="50.02"/><rect class="cls-1" x="339.79" y="95.24" width="24.09" height="50.02"/><rect class="cls-3" x="339.79" y="159.86" width="24.09" height="23.6"/><rect class="cls-1" x="377.68" y="41.03" width="24.09" height="166.27"/></svg>