<?xml version="1.0" encoding="UTF-8" standalone="no"?>
<!-- Created with Inkscape (http://www.inkscape.org/) -->

<svg
   xmlns:dc="http://purl.org/dc/elements/1.1/"
   xmlns:cc="http://creativecommons.org/ns#"
   xmlns:rdf="http://www.w3.org/1999/02/22-rdf-syntax-ns#"
   xmlns:svg="http://www.w3.org/2000/svg"
   xmlns="http://www.w3.org/2000/svg"
   xmlns:sodipodi="http://sodipodi.sourceforge.net/DTD/sodipodi-0.dtd"
   xmlns:inkscape="http://www.inkscape.org/namespaces/inkscape"
   width="745.23389mm"
   height="189.74706mm"
   viewBox="0 0 745.23389 189.74705"
   version="1.1"
   id="svg15800"
   inkscape:version="0.92.4 (f8dce91, 2019-08-02)"
   sodipodi:docname="06_groupby_select_detail.svg">
  <defs
     id="defs15794">
    <marker
       inkscape:stockid="Arrow2Lend"
       orient="auto"
       refY="0"
       refX="0"
       id="Arrow2Lend-7-6-9-4-2-3-1"
       style="overflow:visible"
       inkscape:isstock="true">
      <path
         inkscape:connector-curvature="0"
         id="path7253-1-4-3-6-9-2-8"
         style="fill:#000000;fill-opacity:1;fill-rule:evenodd;stroke:#000000;stroke-width:0.625;stroke-linejoin:round;stroke-opacity:1"
         d="M 8.7185878,4.0337352 -2.2072895,0.01601326 8.7185884,-4.0017078 c -1.7454984,2.3720609 -1.7354408,5.6174519 -6e-7,8.035443 z"
         transform="matrix(-1.1,0,0,-1.1,-1.1,0)" />
    </marker>
    <marker
       inkscape:stockid="Arrow2Lend"
       orient="auto"
       refY="0"
       refX="0"
       id="Arrow2Lend-7-6-9-4-2-3"
       style="overflow:visible"
       inkscape:isstock="true">
      <path
         inkscape:connector-curvature="0"
         id="path7253-1-4-3-6-9-2"
         style="fill:#000000;fill-opacity:1;fill-rule:evenodd;stroke:#000000;stroke-width:0.625;stroke-linejoin:round;stroke-opacity:1"
         d="M 8.7185878,4.0337352 -2.2072895,0.01601326 8.7185884,-4.0017078 c -1.7454984,2.3720609 -1.7354408,5.6174519 -6e-7,8.035443 z"
         transform="matrix(-1.1,0,0,-1.1,-1.1,0)" />
    </marker>
  </defs>
  <sodipodi:namedview
     id="base"
     pagecolor="#ffffff"
     bordercolor="#666666"
     borderopacity="1.0"
     inkscape:pageopacity="0.0"
     inkscape:pageshadow="2"
     inkscape:zoom="0.35"
     inkscape:cx="903.54999"
     inkscape:cy="155.22496"
     inkscape:document-units="mm"
     inkscape:current-layer="g2193"
     showgrid="false"
     fit-margin-top="0"
     fit-margin-left="0"
     fit-margin-right="0"
     fit-margin-bottom="0"
     inkscape:window-width="1875"
     inkscape:window-height="1029"
     inkscape:window-x="45"
     inkscape:window-y="27"
     inkscape:window-maximized="1" />
  <metadata
     id="metadata15797">
    <rdf:RDF>
      <cc:Work
         rdf:about="">
        <dc:format>image/svg+xml</dc:format>
        <dc:type
           rdf:resource="http://purl.org/dc/dcmitype/StillImage" />
        <dc:title />
      </cc:Work>
    </rdf:RDF>
  </metadata>
  <g
     inkscape:label="Layer 1"
     inkscape:groupmode="layer"
     id="layer1"
     transform="translate(306.84909,-0.94988499)">
    <g
       id="g2193"
       transform="matrix(0.89996563,0,0,0.89986489,6.5662338,9.5824747)"
       style="stroke-width:1.11121571">
      <path
         inkscape:connector-curvature="0"
         id="path4891-1-50-8-2-1-74-6-3"
         style="fill:#afabab;fill-opacity:1;fill-rule:evenodd;stroke:#ffffff;stroke-width:0.56899637;stroke-miterlimit:4;stroke-dasharray:none;stroke-opacity:1"
         d="m -305.70378,114.2688 h 24.88794 v -12.18799 h -24.88794 z" />
      <path
         inkscape:connector-curvature="0"
         id="path4891-1-50-8-2-7-17-40-0"
         style="fill:#afabab;fill-opacity:1;fill-rule:evenodd;stroke:#ffffff;stroke-width:0.56899637;stroke-miterlimit:4;stroke-dasharray:none;stroke-opacity:1"
         d="m -279.28779,100.55276 h 24.88797 V 88.364806 h -24.88797 z" />
      <path
         inkscape:connector-curvature="0"
         id="path4891-1-50-8-2-1-9-1-94-33"
         style="fill:#afabab;fill-opacity:0.39215686;fill-rule:evenodd;stroke:#ffffff;stroke-width:0.56899637;stroke-miterlimit:4;stroke-dasharray:none;stroke-opacity:1"
         d="m -279.28779,114.2688 h 24.88797 v -12.18799 h -24.88797 z" />
      <path
         inkscape:connector-curvature="0"
         id="path4891-1-50-8-2-2-1-5-7"
         style="fill:#afabab;fill-opacity:1;fill-rule:evenodd;stroke:#ffffff;stroke-width:0.56899637;stroke-miterlimit:4;stroke-dasharray:none;stroke-opacity:1"
         d="m -305.70379,126.9688 h 24.88795 v -12.188 h -24.88795 z" />
      <path
         inkscape:connector-curvature="0"
         id="path4891-1-50-8-2-7-5-1-4-9"
         style="fill:#afabab;fill-opacity:0.39215686;fill-rule:evenodd;stroke:#ffffff;stroke-width:0.56899637;stroke-miterlimit:4;stroke-dasharray:none;stroke-opacity:1"
         d="m -279.28779,126.9688 h 24.88797 v -12.188 h -24.88797 z" />
      <path
         inkscape:connector-curvature="0"
         id="path4891-1-50-8-2-6-7-6-4"
         style="fill:#150458;fill-opacity:1;fill-rule:evenodd;stroke:#ffffff;stroke-width:0.56899637;stroke-miterlimit:4;stroke-dasharray:none;stroke-opacity:1"
         d="m -253.88778,100.55276 h 24.88796 V 88.364806 h -24.88796 z" />
      <path
         inkscape:connector-curvature="0"
         id="path4891-1-50-8-2-1-5-0-6-9"
         style="fill:#8b6ff9;fill-opacity:1;fill-rule:evenodd;stroke:#ffffff;stroke-width:0.56899637;stroke-miterlimit:4;stroke-dasharray:none;stroke-opacity:1"
         d="m -253.88778,114.2688 h 24.88796 v -12.18799 h -24.88796 z" />
      <path
         inkscape:connector-curvature="0"
         id="path4891-1-50-8-2-2-3-4-39-9"
         style="fill:#2808ac;fill-opacity:1;fill-rule:evenodd;stroke:#ffffff;stroke-width:0.56899637;stroke-miterlimit:4;stroke-dasharray:none;stroke-opacity:1"
         d="m -253.88778,126.9688 h 24.88796 v -12.188 h -24.88796 z" />
      <path
         inkscape:connector-curvature="0"
         id="path4891-1-50-8-2-1-7-0-95-1"
         style="fill:#afabab;fill-opacity:1;fill-rule:evenodd;stroke:#ffffff;stroke-width:0.56899637;stroke-miterlimit:4;stroke-dasharray:none;stroke-opacity:1"
         d="m -305.70378,139.6688 h 24.88794 v -12.188 h -24.88794 z" />
      <path
         inkscape:connector-curvature="0"
         id="path4891-1-50-8-2-1-9-8-8-2-9"
         style="fill:#afabab;fill-opacity:0.39215686;fill-rule:evenodd;stroke:#ffffff;stroke-width:0.56899637;stroke-miterlimit:4;stroke-dasharray:none;stroke-opacity:1"
         d="m -279.28779,139.6688 h 24.88797 v -12.188 h -24.88797 z" />
      <path
         inkscape:connector-curvature="0"
         id="path4891-1-50-8-2-1-7-8-51-1-4"
         style="fill:#8b6ff9;fill-opacity:1;fill-rule:evenodd;stroke:#ffffff;stroke-width:0.56899637;stroke-miterlimit:4;stroke-dasharray:none;stroke-opacity:1"
         d="m -253.88778,139.6688 h 24.88796 v -12.188 h -24.88796 z" />
      <path
         inkscape:connector-curvature="0"
         id="path4891-1-50-8-2-1-7-5-6-3-2"
         style="fill:#afabab;fill-opacity:1;fill-rule:evenodd;stroke:#ffffff;stroke-width:0.56899637;stroke-miterlimit:4;stroke-dasharray:none;stroke-opacity:1"
         d="m -305.70378,152.3688 h 24.88794 v -12.188 h -24.88794 z" />
      <path
         inkscape:connector-curvature="0"
         id="path4891-1-50-8-2-1-9-8-0-6-0-0"
         style="fill:#afabab;fill-opacity:0.39215686;fill-rule:evenodd;stroke:#ffffff;stroke-width:0.56899637;stroke-miterlimit:4;stroke-dasharray:none;stroke-opacity:1"
         d="m -279.28779,152.3688 h 24.88797 v -12.188 h -24.88797 z" />
      <path
         inkscape:connector-curvature="0"
         id="path4891-1-50-8-2-1-7-8-5-21-9-6"
         style="fill:#8b6ff9;fill-opacity:1;fill-rule:evenodd;stroke:#ffffff;stroke-width:0.56899637;stroke-miterlimit:4;stroke-dasharray:none;stroke-opacity:1"
         d="m -253.88778,152.3688 h 24.88796 v -12.188 h -24.88796 z" />
      <path
         inkscape:connector-curvature="0"
         id="path4891-1-50-8-2-1-7-5-2-96-9-5"
         style="fill:#afabab;fill-opacity:1;fill-rule:evenodd;stroke:#ffffff;stroke-width:0.56899637;stroke-miterlimit:4;stroke-dasharray:none;stroke-opacity:1"
         d="m -305.70378,165.0688 h 24.88794 v -12.1879 h -24.88794 z" />
      <path
         inkscape:connector-curvature="0"
         id="path4891-1-50-8-2-1-9-8-0-7-4-1-9"
         style="fill:#afabab;fill-opacity:0.39215686;fill-rule:evenodd;stroke:#ffffff;stroke-width:0.56899637;stroke-miterlimit:4;stroke-dasharray:none;stroke-opacity:1"
         d="m -279.28779,165.0688 h 24.88797 v -12.1879 h -24.88797 z" />
      <path
         inkscape:connector-curvature="0"
         id="path4891-1-50-8-2-1-7-8-5-2-8-34-5"
         style="fill:#2808ac;fill-opacity:1;fill-rule:evenodd;stroke:#ffffff;stroke-width:0.56899637;stroke-miterlimit:4;stroke-dasharray:none;stroke-opacity:1"
         d="m -253.88778,165.0688 h 24.88796 v -12.1879 h -24.88796 z" />
      <path
         inkscape:connector-curvature="0"
         id="path4891-1-50-8-2-1-9-8-2-0-58-6"
         style="fill:#afabab;fill-opacity:0.39215686;fill-rule:evenodd;stroke:#ffffff;stroke-width:0.56899637;stroke-miterlimit:4;stroke-dasharray:none;stroke-opacity:1"
         d="m -228.48778,139.6688 h 24.88796 v -12.188 h -24.88796 z" />
      <path
         inkscape:connector-curvature="0"
         id="path4891-1-50-8-2-7-8-8-5-1"
         style="fill:#afabab;fill-opacity:1;fill-rule:evenodd;stroke:#ffffff;stroke-width:0.56899637;stroke-miterlimit:4;stroke-dasharray:none;stroke-opacity:1"
         d="m -228.48778,100.55276 h 24.88796 V 88.364806 h -24.88796 z" />
      <path
         inkscape:connector-curvature="0"
         id="path4891-1-50-8-2-1-9-4-1-73-1"
         style="fill:#afabab;fill-opacity:0.39215686;fill-rule:evenodd;stroke:#ffffff;stroke-width:0.56899637;stroke-miterlimit:4;stroke-dasharray:none;stroke-opacity:1"
         d="m -228.48778,114.2688 h 24.88796 v -12.18799 h -24.88796 z" />
      <path
         inkscape:connector-curvature="0"
         id="path4891-1-50-8-2-7-5-5-0-3-4"
         style="fill:#afabab;fill-opacity:0.39215686;fill-rule:evenodd;stroke:#ffffff;stroke-width:0.56899637;stroke-miterlimit:4;stroke-dasharray:none;stroke-opacity:1"
         d="m -228.48778,126.9688 h 24.88796 v -12.188 h -24.88796 z" />
      <path
         inkscape:connector-curvature="0"
         id="path4891-1-50-8-2-1-9-8-2-7-2-89-3"
         style="fill:#afabab;fill-opacity:0.39215686;fill-rule:evenodd;stroke:#ffffff;stroke-width:0.56899637;stroke-miterlimit:4;stroke-dasharray:none;stroke-opacity:1"
         d="m -228.48778,152.3688 h 24.88796 v -12.188 h -24.88796 z" />
      <path
         inkscape:connector-curvature="0"
         id="path4891-1-50-8-2-1-9-8-2-7-1-29-55-7"
         style="fill:#afabab;fill-opacity:0.39215686;fill-rule:evenodd;stroke:#ffffff;stroke-width:0.56899637;stroke-miterlimit:4;stroke-dasharray:none;stroke-opacity:1"
         d="m -228.48778,165.0688 h 24.88796 v -12.1879 h -24.88796 z" />
      <path
         inkscape:connector-curvature="0"
         id="path4891-1-50-8-2-1-74-6-3-4"
         style="fill:#8b6ff9;fill-opacity:1;fill-rule:evenodd;stroke:#ffffff;stroke-width:0.56899637;stroke-miterlimit:4;stroke-dasharray:none;stroke-opacity:1"
         d="m 386.82482,133.31877 h 24.88795 v -12.18795 h -24.88795 z" />
      <path
         inkscape:connector-curvature="0"
         id="path4891-1-50-8-2-7-17-40-0-4"
         style="fill:#ffca00;fill-opacity:1;fill-rule:evenodd;stroke:#ffffff;stroke-width:0.56899637;stroke-miterlimit:4;stroke-dasharray:none;stroke-opacity:1"
         d="m 413.24082,119.60277 h 24.88795 v -12.18794 h -24.88795 z" />
      <path
         inkscape:connector-curvature="0"
         id="path4891-1-50-8-2-1-9-1-94-33-4"
         style="fill:#e50387;fill-opacity:0.39215686;fill-rule:evenodd;stroke:#ffffff;stroke-width:0.56899637;stroke-miterlimit:4;stroke-dasharray:none;stroke-opacity:1"
         d="m 413.24082,133.31877 h 24.88795 v -12.18795 h -24.88795 z" />
      <path
         inkscape:connector-curvature="0"
         id="path4891-1-50-8-2-2-1-5-7-9"
         style="fill:#2808ac;fill-opacity:1;fill-rule:evenodd;stroke:#ffffff;stroke-width:0.56899637;stroke-miterlimit:4;stroke-dasharray:none;stroke-opacity:1"
         d="m 386.82482,146.01877 h 24.88795 v -12.1879 h -24.88795 z" />
      <path
         inkscape:connector-curvature="0"
         id="path4891-1-50-8-2-7-5-1-4-9-9"
         style="fill:#e50387;fill-opacity:0.39215686;fill-rule:evenodd;stroke:#ffffff;stroke-width:0.56899637;stroke-miterlimit:4;stroke-dasharray:none;stroke-opacity:1"
         d="m 413.24082,146.01877 h 24.88795 v -12.1879 h -24.88795 z" />
      <path
         inkscape:connector-curvature="0"
         id="path6109-2-9-6-9-0-9"
         d="m 317.4389,126.72385 h 47.88958"
         style="fill:none;stroke:#000000;stroke-width:0.44448629;stroke-linecap:butt;stroke-linejoin:miter;stroke-miterlimit:4;stroke-dasharray:none;stroke-opacity:1;marker-end:url(#Arrow2Lend-7-6-9-4-2-3)" />
      <path
         inkscape:connector-curvature="0"
         id="path6109-2-9-6-9-0-9-7"
         d="m -182.77222,126.72385 h 47.88958"
         style="fill:none;stroke:#000000;stroke-width:0.44448629;stroke-linecap:butt;stroke-linejoin:miter;stroke-miterlimit:4;stroke-dasharray:none;stroke-opacity:1;marker-end:url(#Arrow2Lend-7-6-9-4-2-3-1)" />
      <g
         aria-label=" titanic     .groupby(&quot;Sex&quot;)    [&quot;Age&quot;]     .mean()"
         style="font-style:normal;font-weight:normal;font-size:20.21069527px;line-height:1.25;font-family:sans-serif;letter-spacing:0px;word-spacing:0px;fill:#000000;fill-opacity:1;stroke:none;stroke-width:0.56146109"
         id="text56748-3">
        <path
           d="m -285.91965,5.9621374 h -3.88046 V 3.9612786 c 0,-0.9701134 -0.0808,-1.3743273 -0.78821,-1.3743273 -0.52548,0 -0.76801,0.2829497 -0.76801,0.8286385 0,0.262739 0,0.4446353 0,0.5254781 v 2.0210695 h -1.09138 c -0.9499,0 -1.35411,0.060632 -1.35411,0.7073743 0,0.4850567 0.24252,0.6871637 0.78821,0.6871637 h 1.65728 v 3.2943436 c 0,0.101053 0,0.202107 0,0.30316 0,0.909481 0.0202,1.697699 0.36379,2.283809 0.5659,0.990324 1.61686,1.47538 3.13266,1.47538 0.92969,0 1.96044,-0.262739 3.19329,-0.747795 0.72759,-0.28295 1.09138,-0.5659 1.09138,-1.030746 0,-0.363792 -0.32337,-0.707374 -0.68717,-0.707374 -0.78821,0 -2.10191,1.050956 -3.69855,1.050956 -1.73812,0 -1.85939,-1.050956 -1.85939,-2.62739 V 7.3566754 h 4.00172 c 0.54569,0 0.82864,-0.2223177 0.82864,-0.6871637 0,-0.5052673 -0.30316,-0.7073743 -0.92969,-0.7073743 z"
           style="font-style:normal;font-variant:normal;font-weight:normal;font-stretch:normal;font-family:'Courier 10 Pitch';-inkscape-font-specification:'Courier 10 Pitch';stroke-width:0.56146109"
           id="path935" />
        <path
           d="M -275.5402,13.136934 V 5.8206625 c 0,-0.2425283 -0.18189,-0.4042139 -0.5659,-0.4042139 h -2.89013 c -0.52547,0 -0.78821,0.2223177 -0.78821,0.6871637 0,0.464846 0.28295,0.7073743 0.82863,0.7073743 h 1.92002 v 6.3259474 h -3.01139 c -0.54569,0 -0.82864,0.222318 -0.82864,0.687164 0,0.464846 0.26274,0.707374 0.78822,0.707374 h 7.65985 c 0.58611,0 0.80843,-0.141475 0.80843,-0.707374 0,-0.485057 -0.24253,-0.687164 -0.7478,-0.687164 z m -1.83917,-10.5701934 c 0,0.8084278 0.20211,0.9701134 1.03074,0.9701134 0.94991,0 1.01054,-0.2223177 1.01054,-1.2530631 0,-1.0307455 -0.10105,-1.33390591 -1.01054,-1.33390591 -0.90948,0 -1.03074,0.30316041 -1.03074,1.61685561 z"
           style="font-style:normal;font-variant:normal;font-weight:normal;font-stretch:normal;font-family:'Courier 10 Pitch';-inkscape-font-specification:'Courier 10 Pitch';stroke-width:0.56146109"
           id="path937" />
        <path
           d="m -261.60366,5.9621374 h -3.88045 V 3.9612786 c 0,-0.9701134 -0.0808,-1.3743273 -0.78822,-1.3743273 -0.52548,0 -0.76801,0.2829497 -0.76801,0.8286385 0,0.262739 0,0.4446353 0,0.5254781 v 2.0210695 h -1.09138 c -0.9499,0 -1.35411,0.060632 -1.35411,0.7073743 0,0.4850567 0.24253,0.6871637 0.78821,0.6871637 h 1.65728 v 3.2943436 c 0,0.101053 0,0.202107 0,0.30316 0,0.909481 0.0202,1.697699 0.36379,2.283809 0.5659,0.990324 1.61686,1.47538 3.13266,1.47538 0.92969,0 1.96044,-0.262739 3.19329,-0.747795 0.72759,-0.28295 1.09138,-0.5659 1.09138,-1.030746 0,-0.363792 -0.32337,-0.707374 -0.68716,-0.707374 -0.78822,0 -2.10192,1.050956 -3.69856,1.050956 -1.73812,0 -1.85939,-1.050956 -1.85939,-2.62739 V 7.3566754 h 4.00172 c 0.54569,0 0.82864,-0.2223177 0.82864,-0.6871637 0,-0.5052673 -0.30316,-0.7073743 -0.92969,-0.7073743 z"
           style="font-style:normal;font-variant:normal;font-weight:normal;font-stretch:normal;font-family:'Courier 10 Pitch';-inkscape-font-specification:'Courier 10 Pitch';stroke-width:0.56146109"
           id="path939" />
        <path
           d="m -249.8903,13.278409 0.10105,0.606321 c 0.0808,0.424425 0.32338,0.646742 0.68717,0.646742 h 1.55622 c 0.52548,0 0.78822,-0.242528 0.78822,-0.707374 0,-0.58611 -0.34358,-0.687164 -1.17222,-0.687164 h -0.50527 V 8.6703706 c 0,-2.3848621 -1.17222,-3.4964503 -3.69856,-3.4964503 -2.22317,0 -3.67834,0.7073743 -3.67834,1.394538 0,0.5052674 0.30316,0.8286385 0.66695,0.8286385 0.76801,0 1.57643,-0.8286385 2.97097,-0.8286385 1.5158,0 2.22318,0.7073743 2.22318,2.2231765 0,0.020211 0,0.040421 0,0.060632 -0.80843,-0.2021069 -1.57644,-0.3031604 -2.34444,-0.3031604 -2.93055,0 -4.56762,1.2328524 -4.56762,3.2741326 0,1.73812 1.29349,2.950762 3.27413,2.950762 1.35412,0 2.62739,-0.525479 3.69856,-1.495592 z m -0.0606,-3.112447 v 1.071167 c 0,0.88927 -1.61686,2.021069 -3.3954,2.021069 -1.15201,0 -1.94023,-0.666953 -1.94023,-1.536012 0,-1.111589 1.15201,-1.8998058 3.25393,-1.8998058 0.72758,0 1.41475,0.1212642 2.0817,0.3435818 z"
           style="font-style:normal;font-variant:normal;font-weight:normal;font-stretch:normal;font-family:'Courier 10 Pitch';-inkscape-font-specification:'Courier 10 Pitch';stroke-width:0.56146109"
           id="path941" />
        <path
           d="m -243.65404,13.136934 c -0.0808,0 -0.14147,0 -0.2021,0 -0.80843,0 -1.15201,0.121264 -1.15201,0.687164 0,0.464846 0.26274,0.707374 0.82864,0.707374 0.26273,0 0.44463,0 0.52547,0 h 1.79876 c 0.74779,0 1.05095,-0.04042 1.05095,-0.707374 0,-0.545689 -0.26274,-0.707374 -0.9499,-0.707374 -0.12126,0 -0.26274,0.02021 -0.42443,0.02021 V 9.0341631 c 0,-1.4753808 1.37433,-2.3646514 2.56676,-2.3646514 1.29349,0 2.02107,0.7882172 2.02107,2.3646514 v 4.1027709 c -0.12126,0 -0.22232,0 -0.32337,0 -0.70737,0 -0.99032,0.141475 -0.99032,0.687164 0,0.646742 0.28295,0.707374 0.99032,0.707374 h 2.18276 c 0.70737,0 1.05095,-0.141475 1.05095,-0.707374 0,-0.505268 -0.30316,-0.687164 -0.92969,-0.687164 -0.14147,0 -0.30316,0 -0.44463,0 V 8.6703706 c 0,-2.2838086 -1.33391,-3.516661 -3.21351,-3.516661 -1.03074,0 -1.94022,0.4446353 -2.89012,1.3339059 v -0.666953 c 0,-0.2425283 -0.1819,-0.4042139 -0.5659,-0.4042139 h -0.9297 c -0.90948,0 -1.35411,0 -1.35411,0.6871637 0,0.5052674 0.28295,0.7073743 0.90948,0.7073743 0.14147,0 0.30316,0 0.44463,0 z"
           style="font-style:normal;font-variant:normal;font-weight:normal;font-stretch:normal;font-family:'Courier 10 Pitch';-inkscape-font-specification:'Courier 10 Pitch';stroke-width:0.56146109"
           id="path943" />
        <path
           d="M -226.90821,13.136934 V 5.8206625 c 0,-0.2425283 -0.1819,-0.4042139 -0.5659,-0.4042139 h -2.89013 c -0.52548,0 -0.78822,0.2223177 -0.78822,0.6871637 0,0.464846 0.28295,0.7073743 0.82864,0.7073743 h 1.92001 v 6.3259474 h -3.01139 c -0.54569,0 -0.82864,0.222318 -0.82864,0.687164 0,0.464846 0.26274,0.707374 0.78822,0.707374 h 7.65985 c 0.58611,0 0.80843,-0.141475 0.80843,-0.707374 0,-0.485057 -0.24253,-0.687164 -0.7478,-0.687164 z m -1.83918,-10.5701934 c 0,0.8084278 0.20211,0.9701134 1.03075,0.9701134 0.9499,0 1.01053,-0.2223177 1.01053,-1.2530631 0,-1.0307455 -0.10105,-1.33390591 -1.01053,-1.33390591 -0.90948,0 -1.03075,0.30316041 -1.03075,1.61685561 z"
           style="font-style:normal;font-variant:normal;font-weight:normal;font-stretch:normal;font-family:'Courier 10 Pitch';-inkscape-font-specification:'Courier 10 Pitch';stroke-width:0.56146109"
           id="path945" />
        <path
           d="M -211.21335,8.3874208 V 6.5482476 c 0,-0.8488492 -0.10105,-1.2126417 -0.70737,-1.2126417 -0.50527,0 -0.76801,0.1818962 -0.76801,0.6265315 0,0 0,0.020211 0,0.040421 -1.09137,-0.5456888 -2.0817,-0.8286385 -3.11244,-0.8286385 -2.8295,0 -4.97183,2.0817016 -4.97183,4.8101455 0,2.7284442 2.12212,4.7899352 4.99204,4.7899352 2.38486,0 4.60804,-1.475381 4.60804,-2.405073 0,-0.404214 -0.28295,-0.687164 -0.68717,-0.687164 -0.52548,0 -0.90948,0.485057 -1.5158,0.889271 -0.70737,0.464846 -1.5158,0.727585 -2.30402,0.727585 -2.06149,0 -3.37519,-1.374327 -3.37519,-3.3347649 0,-1.8998054 1.41475,-3.253922 3.45603,-3.253922 1.17222,0 2.10192,0.5456888 2.70824,1.6168557 0.30316,0.5456887 0.50526,0.7882171 0.92969,0.7882171 0.48505,0 0.74779,-0.2425284 0.74779,-0.7275851 z"
           style="font-style:normal;font-variant:normal;font-weight:normal;font-stretch:normal;font-family:'Courier 10 Pitch';-inkscape-font-specification:'Courier 10 Pitch';stroke-width:0.56146109"
           id="path947" />
        <path
           d="m -144.65194,12.914617 c 0,1.010534 0.768,1.75833 1.94022,1.75833 1.17222,0 1.94023,-0.727585 1.94023,-1.75833 0,-1.030746 -0.76801,-1.758331 -1.94023,-1.758331 -1.17222,0 -1.94022,0.747796 -1.94022,1.758331 z"
           style="font-style:normal;font-variant:normal;font-weight:normal;font-stretch:normal;font-family:'Courier 10 Pitch';-inkscape-font-specification:'Courier 10 Pitch';stroke-width:0.56146109"
           id="path949" />
        <path
           d="M -126.55201,14.005994 V 6.8109866 c 0.0606,0 0.12127,0 0.1819,0 0.82864,0 1.17222,-0.1414749 1.17222,-0.7073743 0,-0.464846 -0.26274,-0.6871637 -0.78822,-0.6871637 h -1.49559 c -0.384,0 -0.5659,0.1212642 -0.5659,0.4042139 v 0.7073744 c -0.9499,-0.7477957 -1.89981,-1.131799 -2.91034,-1.131799 -2.38486,0 -4.3453,1.7987519 -4.3453,4.3452995 0,2.5869686 1.81896,4.3857206 4.26446,4.3857206 1.27327,0 2.20296,-0.424424 3.01139,-1.354116 v 1.192431 c 0,2.04128 -0.62653,2.970972 -2.68802,2.970972 -0.52548,0 -1.07117,-0.141475 -1.65728,-0.141475 -0.46485,0 -0.84885,0.363793 -0.84885,0.768006 0,0.646743 0.70738,0.909482 2.16255,0.909482 1.83917,0 3.17308,-0.545689 3.90066,-1.495592 0.58611,-0.768006 0.60632,-1.637066 0.60632,-2.748654 0,-0.08084 0,-0.141475 0,-0.222318 z m -4.28467,-7.1343753 c 1.73812,0 2.93055,1.2126417 2.93055,2.8699187 0,1.6774876 -1.21264,2.8699186 -2.93055,2.8699186 -1.73812,0 -2.93055,-1.212642 -2.93055,-2.8699186 0,-1.6976984 1.21264,-2.8699187 2.93055,-2.8699187 z"
           style="font-style:normal;font-variant:normal;font-weight:normal;font-stretch:normal;font-family:'Courier 10 Pitch';-inkscape-font-specification:'Courier 10 Pitch';stroke-width:0.56146109"
           id="path951" />
        <path
           d="M -119.36584,13.136934 V 9.0543738 c 1.3137,-1.4955915 2.42529,-2.2838086 3.51667,-2.2838086 0.768,0 1.19243,0.6063209 1.7179,0.6063209 0.42443,0 0.86906,-0.4446353 0.86906,-0.929692 0,-0.727585 -0.72758,-1.2732738 -1.96043,-1.2732738 -1.57644,0 -2.91034,0.7680064 -4.1432,2.32423 V 5.8206625 c 0,-0.2829497 -0.18189,-0.4042139 -0.54568,-0.4042139 h -2.24339 c -0.52548,0 -0.78822,0.2223177 -0.78822,0.6871637 0,0.5052674 0.28295,0.7073743 0.92969,0.7073743 0.10106,0 0.28295,0 0.50527,0 h 0.66695 v 6.3259474 h -1.73812 c -0.54568,0 -0.82863,0.222318 -0.82863,0.687164 0,0.464846 0.28295,0.707374 0.80842,0.707374 h 6.44722 c 0.58611,0 0.80842,-0.141475 0.80842,-0.707374 0,-0.485057 -0.24253,-0.687164 -0.74779,-0.687164 z"
           style="font-style:normal;font-variant:normal;font-weight:normal;font-stretch:normal;font-family:'Courier 10 Pitch';-inkscape-font-specification:'Courier 10 Pitch';stroke-width:0.56146109"
           id="path953" />
        <path
           d="m -101.08401,9.9840658 c 0,-2.7284439 -2.02106,-4.7899348 -5.15372,-4.7899348 -3.13266,0 -5.17394,2.0412802 -5.17394,4.7899348 0,2.7486542 2.04128,4.7899352 5.17394,4.7899352 3.13266,0 5.15372,-2.041281 5.15372,-4.7899352 z m -5.15372,3.4156072 c -2.04128,0 -3.45603,-1.45517 -3.45603,-3.4156072 0,-1.9604375 1.41475,-3.4358182 3.45603,-3.4358182 2.04128,0 3.45603,1.4753807 3.45603,3.4358182 0,1.9806482 -1.41475,3.4156072 -3.45603,3.4156072 z"
           style="font-style:normal;font-variant:normal;font-weight:normal;font-stretch:normal;font-family:'Courier 10 Pitch';-inkscape-font-specification:'Courier 10 Pitch';stroke-width:0.56146109"
           id="path955" />
        <path
           d="M -96.585869,10.893547 V 6.1642444 c 0,-0.040421 0,-0.060632 0,-0.1010535 0,-0.4446353 -0.02021,-0.6467423 -0.5659,-0.6467423 h -1.495591 c -0.525478,0 -0.788217,0.2223177 -0.788217,0.6871637 0,0.5052674 0.28295,0.7073743 0.909481,0.7073743 0.141475,0 0.303161,0 0.444635,0 V 11.25734 c 0,2.304019 1.091378,3.476239 3.253922,3.476239 1.192431,0 2.041281,-0.464846 3.072026,-1.273274 v 0.666953 c 0,0.242529 0.181896,0.404214 0.565899,0.404214 h 1.495592 c 0.525478,0 0.788217,-0.242528 0.788217,-0.707374 0,-0.505268 -0.28295,-0.687164 -0.909481,-0.687164 -0.141475,0 -0.303161,0 -0.444636,0 V 6.3663513 c 0,-0.5861101 0,-0.9499027 -0.687163,-0.9499027 h -2.101912 c -0.545689,0 -0.788218,0.202107 -0.788218,0.6871637 0,0.4850567 0.202107,0.7073743 0.727585,0.7073743 h 1.354117 v 4.0825604 c 0,1.45517 -1.273274,2.384862 -2.60718,2.384862 -1.536013,0 -2.223176,-0.768006 -2.223176,-2.384862 z"
           style="font-style:normal;font-variant:normal;font-weight:normal;font-stretch:normal;font-family:'Courier 10 Pitch';-inkscape-font-specification:'Courier 10 Pitch';stroke-width:0.56146109"
           id="path957" />
        <path
           d="m -81.416471,13.096513 c -1.839173,0 -3.112447,-1.313695 -3.112447,-3.092237 0,-1.7785407 1.273274,-3.0922359 3.112447,-3.0922359 1.859384,0 3.132658,1.3136952 3.132658,3.0922359 0,1.839174 -1.313695,3.092237 -3.132658,3.092237 z m -3.072025,3.961296 v -3.941085 c 0.808427,0.929692 2.021069,1.434959 3.415607,1.434959 2.586969,0 4.486774,-1.818963 4.486774,-4.446353 0,-2.7688653 -2.061491,-4.7090921 -4.64846,-4.7090921 -1.253063,0 -2.34444,0.464846 -3.233711,1.3743273 V 5.8206625 c 0,-0.2829497 -0.181896,-0.4042139 -0.565899,-0.4042139 h -1.515802 c -0.525478,0 -0.788218,0.2223177 -0.788218,0.6871637 0,0.5052674 0.303161,0.7073743 0.929692,0.7073743 0.141475,0 0.303161,0 0.444636,0 V 17.057809 c -0.06063,0 -0.121264,0 -0.181897,0 -0.828638,0 -1.192431,0.141475 -1.192431,0.707374 0,0.464846 0.26274,0.707375 0.788218,0.707375 h 4.36551 c 0.58611,0 0.828638,-0.161686 0.828638,-0.707375 0,-0.464846 -0.242528,-0.707374 -0.747795,-0.707374 z"
           style="font-style:normal;font-variant:normal;font-weight:normal;font-stretch:normal;font-family:'Courier 10 Pitch';-inkscape-font-specification:'Courier 10 Pitch';stroke-width:0.56146109"
           id="path959" />
        <path
           d="M -72.310296,6.8311973 V 2.0210518 c 0,-0.2829497 -0.181897,-0.4042139 -0.5659,-0.4042139 h -1.495591 c -0.525478,0 -0.788217,0.2425284 -0.788217,0.7073744 0,0.5052673 0.282949,0.6871636 0.909481,0.6871636 0.141475,0 0.30316,0.020211 0.444635,0.020211 V 13.136934 c -0.08084,0 -0.141475,0 -0.202107,0 -0.808428,0 -1.152009,0.121264 -1.152009,0.687164 0,0.464846 0.262739,0.707374 0.788217,0.707374 h 1.798752 c 0.30316,0 0.404214,-0.161685 0.404214,-0.505267 v -0.788217 c 0.666953,0.990324 1.697698,1.47538 3.072025,1.47538 2.647601,0 4.668671,-2.081701 4.668671,-4.648459 0,-2.6071801 -1.980648,-4.6484604 -4.628249,-4.6484604 -1.394538,0 -2.506127,0.4850567 -3.253922,1.4147487 z m 3.072025,6.3259477 c -1.839173,0 -3.112447,-1.333906 -3.112447,-3.152869 0,-1.8391728 1.293485,-3.152868 3.112447,-3.152868 1.839174,0 3.112447,1.3541166 3.112447,3.152868 0,1.879595 -1.273273,3.152869 -3.112447,3.152869 z"
           style="font-style:normal;font-variant:normal;font-weight:normal;font-stretch:normal;font-family:'Courier 10 Pitch';-inkscape-font-specification:'Courier 10 Pitch';stroke-width:0.56146109"
           id="path961" />
        <path
           d="m -58.35354,17.057809 5.194149,-10.2468224 c 0.687164,-0.020211 0.990324,-0.1818962 0.990324,-0.7073743 0,-0.464846 -0.262739,-0.6871637 -0.788217,-0.6871637 h -2.445494 c -0.646742,0 -0.929692,0.1010535 -0.929692,0.6871637 0,0.5658994 0.343582,0.7073743 1.192431,0.7073743 0.121264,0 0.242528,0 0.384003,0 l -2.748654,5.4366774 -2.647602,-5.4366774 c 0.121265,0 0.242529,0 0.363793,0 0.808428,0 1.15201,-0.1414749 1.15201,-0.7073743 0,-0.5861102 -0.28295,-0.6871637 -0.929692,-0.6871637 h -2.748655 c -0.525478,0 -0.788217,0.2223177 -0.788217,0.6871637 0,0.5658994 0.323371,0.7073743 1.131799,0.7073743 l 3.617714,7.0939544 -1.616855,3.152868 h -2.142334 c -0.505267,0 -0.747796,0.242528 -0.747796,0.707374 0,0.545689 0.242529,0.707375 0.828639,0.707375 h 4.527196 c 0.525478,0 0.808427,-0.242529 0.808427,-0.707375 0,-0.58611 -0.363792,-0.707374 -1.232852,-0.707374 -0.121264,0 -0.262739,0 -0.424425,0 z"
           style="font-style:normal;font-variant:normal;font-weight:normal;font-stretch:normal;font-family:'Courier 10 Pitch';-inkscape-font-specification:'Courier 10 Pitch';stroke-width:0.56146109"
           id="path963" />
        <path
           d="m -43.446896,2.9305331 c 0,-0.2829497 -0.161685,-0.4446353 -0.384003,-0.4446353 -0.464846,0 -1.111588,0.6265316 -1.879594,1.8795947 -1.172221,1.8998053 -1.73812,3.9006642 -1.73812,6.1238405 0,2.223177 0.565899,4.224035 1.73812,6.123841 0.768006,1.253063 1.414748,1.879594 1.879594,1.879594 0.222318,0 0.384003,-0.181896 0.384003,-0.464846 0,-0.384003 -0.545688,-1.192431 -1.111588,-2.62739 -0.626531,-1.616856 -0.949903,-3.173079 -0.949903,-4.911199 0,-2.2231763 0.525479,-3.900664 1.232853,-5.5781517 0.424424,-1.0105348 0.828638,-1.6370664 0.828638,-1.9806482 z"
           style="font-style:normal;font-variant:normal;font-weight:normal;font-stretch:normal;font-family:'Courier 10 Pitch';-inkscape-font-specification:'Courier 10 Pitch';stroke-width:0.56146109"
           id="path965" />
        <path
           d="m -35.432083,7.7002572 h 0.60632 c 0.384004,0 0.464846,-0.1818963 0.505268,-0.6063209 l 0.30316,-3.6581358 c 0,-0.040421 0,-0.080843 0,-0.1212642 0,-0.3233711 -0.161685,-0.4850567 -0.464846,-0.4850567 h -1.313695 c -0.30316,0 -0.444635,0.1616856 -0.444635,0.4850567 0,0.040421 0,0.080843 0,0.1212642 l 0.30316,3.6581358 c 0.04042,0.4244246 0.121264,0.6063209 0.505268,0.6063209 z m 3.678346,0 h 0.606321 c 0.384003,0 0.464846,-0.1818963 0.505267,-0.6063209 l 0.303161,-3.6581358 c 0,-0.040421 0,-0.080843 0,-0.1212642 0,-0.3233711 -0.141475,-0.4850567 -0.444635,-0.4850567 h -1.313696 c -0.30316,0 -0.464846,0.1616856 -0.464846,0.4850567 0,0.040421 0,0.080843 0,0.1212642 l 0.303161,3.6581358 c 0.04042,0.4244246 0.121264,0.6063209 0.505267,0.6063209 z"
           style="font-style:normal;font-variant:normal;font-weight:normal;font-stretch:normal;font-family:'Courier 10 Pitch';-inkscape-font-specification:'Courier 10 Pitch';stroke-width:0.56146109"
           id="path967" />
        <path
           d="m -24.02189,14.18789 c 0.990324,0.444636 1.899806,0.687164 2.910341,0.687164 2.768865,0 4.547406,-1.475381 4.547406,-3.658136 0,-1.8593838 -1.17222,-2.970972 -3.47624,-3.2741325 l -1.576434,-0.2021069 c -1.515802,-0.202107 -2.263598,-0.7882171 -2.263598,-1.7785412 0,-1.2530631 1.071167,-2.1423337 2.688023,-2.1423337 1.050956,0 1.899805,0.4042139 2.32423,1.0307455 0.424424,0.6265315 0.30316,1.3541166 1.091377,1.3541166 0.464846,0 0.747796,-0.2627391 0.747796,-0.7275851 0,-0.040421 0,-0.060632 0,-0.1010534 l -0.141475,-2.061491 c -0.04042,-0.525478 -0.101053,-0.7477957 -0.808428,-0.7477957 -0.444635,0 -0.626531,0.1212642 -0.626531,0.5052674 -0.909482,-0.3637925 -1.697699,-0.5861102 -2.506126,-0.5861102 -2.546548,0 -4.365511,1.596645 -4.365511,3.5570824 0,1.9806481 1.293485,2.9305508 3.920875,3.2943433 l 1.45517,0.202107 c 1.253063,0.1818962 1.920016,0.8286385 1.920016,1.8593835 0,1.212642 -1.111588,2.142334 -2.869918,2.142334 -1.414749,0 -2.445495,-0.565899 -2.869919,-1.434959 -0.363793,-0.727585 -0.262739,-1.495592 -1.091378,-1.495592 -0.606321,0 -0.768006,0.28295 -0.768006,0.84885 0,0.06063 0,0.121264 0,0.202106 l 0.121264,2.283809 c 0.04042,0.707374 0.28295,1.030746 0.848849,1.030746 0.545689,0 0.727585,-0.202107 0.788217,-0.788218 z"
           style="font-style:normal;font-variant:normal;font-weight:normal;font-stretch:normal;font-family:'Courier 10 Pitch';-inkscape-font-specification:'Courier 10 Pitch';stroke-width:0.56146109"
           id="path969" />
        <path
           d="m -12.268114,9.1150059 c 0.384003,-1.6370663 1.657277,-2.6071797 3.3953968,-2.6071797 1.5966449,0 2.849708,1.0307454 3.0316043,2.6071797 z m -0.04042,1.2934841 h 6.6291077 c 1.2126417,0 1.6370663,0 1.6370663,-0.9296916 0,-2.2029658 -1.8391733,-4.3250888 -4.8303562,-4.3250888 -3.0518148,0 -5.1537268,1.9604374 -5.1537268,4.7899348 0,2.9507616 1.899805,4.8303566 4.9516199,4.8303566 1.3339058,0 2.7688652,-0.323372 4.1229818,-0.990325 0.5861102,-0.282949 0.8690599,-0.58611 0.8690599,-0.990324 0,-0.363792 -0.3031604,-0.646742 -0.6871637,-0.646742 -0.8892705,0 -2.1625443,1.232853 -4.1634032,1.232853 -2.0412797,0 -3.2741327,-1.071167 -3.3751857,-2.970973 z"
           style="font-style:normal;font-variant:normal;font-weight:normal;font-stretch:normal;font-family:'Courier 10 Pitch';-inkscape-font-specification:'Courier 10 Pitch';stroke-width:0.56146109"
           id="path971" />
        <path
           d="m 1.0216744,13.136934 2.2635979,-2.425283 2.4859155,2.425283 H 5.2254991 c -0.5861102,0 -0.8892706,0.28295 -0.8892706,0.707375 0,0.485056 0.3435818,0.687163 1.0105347,0.687163 h 2.0210696 c 0.8690599,0 1.192431,-0.101053 1.192431,-0.687163 0,-0.444636 -0.2627391,-0.707375 -0.7680064,-0.707375 -0.020211,0 -0.060632,0 -0.1010535,0 L 4.235175,9.7617481 7.0646723,6.8109866 c 0.1010535,0 0.202107,0.020211 0.2829498,0.020211 0.6871636,0 1.0307454,-0.2223176 1.0307454,-0.727585 0,-0.4244246 -0.2829497,-0.6871637 -0.6871636,-0.6871637 H 5.1244456 c -0.6871637,0 -1.0105348,0.202107 -1.0105348,0.7073744 0,0.464846 0.3637925,0.6871636 1.0913776,0.6871636 0.080843,0 0.1414748,0 0.2021069,0 L 3.3863258,8.8926882 1.2642028,6.8109866 c 0.7477957,0 1.1317989,-0.2223176 1.1317989,-0.6871636 0,-0.5052674 -0.3233711,-0.7073744 -1.0105347,-0.7073744 h -2.02106957 c -0.86905993,0 -1.21264173,0.1212642 -1.21264173,0.7073744 0,0.5254781 0.2829497,0.6871636 1.01053478,0.6871636 0.0404214,0 0.10105347,0 0.14147486,0 l 3.13265776,3.051815 -3.19328984,3.2741324 c -0.0808428,0 -0.14147487,0 -0.20210695,0 -0.72758501,0 -1.11158821,0.202107 -1.11158821,0.646742 0,0.485057 0.2829497,0.747796 0.6871636,0.747796 h 2.7082332 c 0.6669529,0 1.0307454,-0.202107 1.0307454,-0.687163 0,-0.444636 -0.3840032,-0.727585 -1.0509561,-0.727585 -0.1010535,0 -0.1818963,0.02021 -0.2829498,0.02021 z"
           style="font-style:normal;font-variant:normal;font-weight:normal;font-stretch:normal;font-family:'Courier 10 Pitch';-inkscape-font-specification:'Courier 10 Pitch';stroke-width:0.56146109"
           id="path973" />
        <path
           d="m 13.199905,7.7002572 h 0.606321 c 0.384003,0 0.464846,-0.1818963 0.505267,-0.6063209 l 0.303161,-3.6581358 c 0,-0.040421 0,-0.080843 0,-0.1212642 0,-0.3233711 -0.161686,-0.4850567 -0.464846,-0.4850567 h -1.313695 c -0.303161,0 -0.444636,0.1616856 -0.444636,0.4850567 0,0.040421 0,0.080843 0,0.1212642 l 0.303161,3.6581358 c 0.04042,0.4244246 0.121264,0.6063209 0.505267,0.6063209 z m 3.678347,0 h 0.606321 c 0.384003,0 0.464846,-0.1818963 0.505267,-0.6063209 L 18.293,3.4358005 c 0,-0.040421 0,-0.080843 0,-0.1212642 0,-0.3233711 -0.141475,-0.4850567 -0.444635,-0.4850567 H 16.53467 c -0.303161,0 -0.464846,0.1616856 -0.464846,0.4850567 0,0.040421 0,0.080843 0,0.1212642 l 0.30316,3.6581358 c 0.04042,0.4244246 0.121264,0.6063209 0.505268,0.6063209 z"
           style="font-style:normal;font-variant:normal;font-weight:normal;font-stretch:normal;font-family:'Courier 10 Pitch';-inkscape-font-specification:'Courier 10 Pitch';stroke-width:0.56146109"
           id="path975" />
        <path
           d="m 25.479159,18.027922 c 0,0.28295 0.161685,0.464846 0.384003,0.464846 0.464846,0 1.111588,-0.626531 1.879595,-1.879594 1.17222,-1.899806 1.75833,-3.900664 1.75833,-6.123841 0,-2.2231763 -0.58611,-4.2240352 -1.75833,-6.1238405 -0.768007,-1.2530631 -1.414749,-1.8795947 -1.879595,-1.8795947 -0.222318,0 -0.384003,0.1616856 -0.384003,0.4446353 0,0.3840032 0.545689,1.192431 1.111588,2.6273904 0.626532,1.6168556 0.949903,3.1932899 0.949903,4.9314095 0,2.223177 -0.505268,3.900664 -1.212642,5.578152 -0.424425,1.010535 -0.848849,1.616856 -0.848849,1.960437 z"
           style="font-style:normal;font-variant:normal;font-weight:normal;font-stretch:normal;font-family:'Courier 10 Pitch';-inkscape-font-specification:'Courier 10 Pitch';stroke-width:0.56146109"
           id="path977" />
        <path
           d="M 87.987046,16.976966 V 4.0421214 h 1.657277 c 0.384003,0 0.646742,-0.2425284 0.646742,-0.6063209 0,-0.3840032 -0.242528,-0.6063209 -0.626531,-0.6063209 h -2.667812 c -0.424425,0 -0.707374,0.2829498 -0.707374,0.6467423 V 17.542866 c 0,0.363792 0.282949,0.646742 0.707374,0.646742 h 2.667812 c 0.384003,0 0.626531,-0.242528 0.626531,-0.626532 0,-0.363792 -0.262739,-0.58611 -0.646742,-0.58611 z"
           style="font-style:normal;font-variant:normal;font-weight:normal;font-stretch:normal;font-family:'Courier 10 Pitch';-inkscape-font-specification:'Courier 10 Pitch';stroke-width:0.56146109"
           id="path979" />
        <path
           d="m 98.305862,7.7002572 h 0.606321 c 0.384003,0 0.464846,-0.1818963 0.505267,-0.6063209 l 0.303161,-3.6581358 c 0,-0.040421 0,-0.080843 0,-0.1212642 0,-0.3233711 -0.161686,-0.4850567 -0.464846,-0.4850567 H 97.94207 c -0.303161,0 -0.444636,0.1616856 -0.444636,0.4850567 0,0.040421 0,0.080843 0,0.1212642 l 0.303161,3.6581358 c 0.04042,0.4244246 0.121264,0.6063209 0.505267,0.6063209 z m 3.678348,0 h 0.60632 c 0.384,0 0.46485,-0.1818963 0.50527,-0.6063209 l 0.30316,-3.6581358 c 0,-0.040421 0,-0.080843 0,-0.1212642 0,-0.3233711 -0.14148,-0.4850567 -0.44464,-0.4850567 h -1.31369 c -0.30316,0 -0.46485,0.1616856 -0.46485,0.4850567 0,0.040421 0,0.080843 0,0.1212642 l 0.30316,3.6581358 c 0.0404,0.4244246 0.12127,0.6063209 0.50527,0.6063209 z"
           style="font-style:normal;font-variant:normal;font-weight:normal;font-stretch:normal;font-family:'Courier 10 Pitch';-inkscape-font-specification:'Courier 10 Pitch';stroke-width:0.56146109"
           id="path981" />
        <path
           d="m 111.07017,4.2442283 -3.35497,8.8927057 c -0.0808,0 -0.16169,0 -0.24253,0 -0.66695,0 -0.92969,0.161686 -0.92969,0.687164 0,0.606321 0.28295,0.707374 1.03074,0.707374 h 2.58697 c 0.76801,0 1.15201,-0.06063 1.15201,-0.707374 0,-0.5659 -0.36379,-0.687164 -1.1318,-0.687164 h -0.9499 l 0.84885,-2.34444 h 5.01225 l 0.9499,2.34444 h -0.90948 c -0.768,0 -1.11159,0.121264 -1.11159,0.687164 0,0.646742 0.38401,0.707374 1.17222,0.707374 h 2.68803 c 0.64674,0 0.88927,-0.141475 0.88927,-0.707374 0,-0.545689 -0.24253,-0.687164 -0.92969,-0.687164 -0.0606,0 -0.10106,0 -0.16169,0 l -3.86024,-9.6405014 c -0.26274,-0.6467423 -0.52548,-0.666953 -1.09138,-0.666953 h -2.80929 c -0.92969,0 -1.37432,0 -1.37432,0.7073744 0,0.5456888 0.34358,0.7073743 1.09137,0.7073743 z m -0.50526,5.2345701 1.8998,-5.2345701 2.14233,5.2345701 z"
           style="font-style:normal;font-variant:normal;font-weight:normal;font-stretch:normal;font-family:'Courier 10 Pitch';-inkscape-font-specification:'Courier 10 Pitch';stroke-width:0.56146109"
           id="path983" />
        <path
           d="M 128.76592,14.005994 V 6.8109866 c 0.0606,0 0.12127,0 0.1819,0 0.82864,0 1.17222,-0.1414749 1.17222,-0.7073743 0,-0.464846 -0.26274,-0.6871637 -0.78822,-0.6871637 h -1.49559 c -0.384,0 -0.5659,0.1212642 -0.5659,0.4042139 v 0.7073744 c -0.9499,-0.7477957 -1.8998,-1.131799 -2.91034,-1.131799 -2.38486,0 -4.3453,1.7987519 -4.3453,4.3452995 0,2.5869686 1.81896,4.3857206 4.26446,4.3857206 1.27327,0 2.20296,-0.424424 3.01139,-1.354116 v 1.192431 c 0,2.04128 -0.62653,2.970972 -2.68802,2.970972 -0.52548,0 -1.07117,-0.141475 -1.65728,-0.141475 -0.46484,0 -0.84885,0.363793 -0.84885,0.768006 0,0.646743 0.70738,0.909482 2.16255,0.909482 1.83917,0 3.17308,-0.545689 3.90066,-1.495592 0.58611,-0.768006 0.60632,-1.637066 0.60632,-2.748654 0,-0.08084 0,-0.141475 0,-0.222318 z m -4.28466,-7.1343753 c 1.73812,0 2.93055,1.2126417 2.93055,2.8699187 0,1.6774876 -1.21265,2.8699186 -2.93055,2.8699186 -1.73812,0 -2.93056,-1.212642 -2.93056,-2.8699186 0,-1.6976984 1.21265,-2.8699187 2.93056,-2.8699187 z"
           style="font-style:normal;font-variant:normal;font-weight:normal;font-stretch:normal;font-family:'Courier 10 Pitch';-inkscape-font-specification:'Courier 10 Pitch';stroke-width:0.56146109"
           id="path985" />
        <path
           d="m 133.62785,9.1150059 c 0.384,-1.6370663 1.65728,-2.6071797 3.3954,-2.6071797 1.59664,0 2.84971,1.0307454 3.0316,2.6071797 z m -0.0404,1.2934841 h 6.62911 c 1.21264,0 1.63706,0 1.63706,-0.9296916 0,-2.2029658 -1.83917,-4.3250888 -4.83035,-4.3250888 -3.05182,0 -5.15373,1.9604374 -5.15373,4.7899348 0,2.9507616 1.89981,4.8303566 4.95162,4.8303566 1.33391,0 2.76887,-0.323372 4.12298,-0.990325 0.58611,-0.282949 0.86906,-0.58611 0.86906,-0.990324 0,-0.363792 -0.30316,-0.646742 -0.68716,-0.646742 -0.88927,0 -2.16254,1.232853 -4.1634,1.232853 -2.04128,0 -3.27414,-1.071167 -3.37519,-2.970973 z"
           style="font-style:normal;font-variant:normal;font-weight:normal;font-stretch:normal;font-family:'Courier 10 Pitch';-inkscape-font-specification:'Courier 10 Pitch';stroke-width:0.56146109"
           id="path987" />
        <path
           d="m 146.93785,7.7002572 h 0.60632 c 0.384,0 0.46485,-0.1818963 0.50527,-0.6063209 l 0.30316,-3.6581358 c 0,-0.040421 0,-0.080843 0,-0.1212642 0,-0.3233711 -0.16169,-0.4850567 -0.46485,-0.4850567 h -1.31369 c -0.30316,0 -0.44464,0.1616856 -0.44464,0.4850567 0,0.040421 0,0.080843 0,0.1212642 l 0.30316,3.6581358 c 0.0404,0.4244246 0.12127,0.6063209 0.50527,0.6063209 z m 3.67835,0 h 0.60632 c 0.384,0 0.46484,-0.1818963 0.50527,-0.6063209 l 0.30316,-3.6581358 c 0,-0.040421 0,-0.080843 0,-0.1212642 0,-0.3233711 -0.14148,-0.4850567 -0.44464,-0.4850567 h -1.31369 c -0.30316,0 -0.46485,0.1616856 -0.46485,0.4850567 0,0.040421 0,0.080843 0,0.1212642 l 0.30316,3.6581358 c 0.0404,0.4244246 0.12126,0.6063209 0.50527,0.6063209 z"
           style="font-style:normal;font-variant:normal;font-weight:normal;font-stretch:normal;font-family:'Courier 10 Pitch';-inkscape-font-specification:'Courier 10 Pitch';stroke-width:0.56146109"
           id="path989" />
        <path
           d="M 161.54133,4.0421214 V 16.976966 h -1.65727 c -0.38401,0 -0.64674,0.222318 -0.64674,0.58611 0,0.384004 0.24252,0.626532 0.62653,0.626532 h 2.6476 c 0.42442,0 0.72758,-0.28295 0.72758,-0.646742 V 3.4762219 c 0,-0.3637925 -0.30316,-0.6467423 -0.72758,-0.6467423 h -2.6476 c -0.38401,0 -0.62653,0.2223177 -0.62653,0.6063209 0,0.3637925 0.26273,0.6063209 0.64674,0.6063209 z"
           style="font-style:normal;font-variant:normal;font-weight:normal;font-stretch:normal;font-family:'Courier 10 Pitch';-inkscape-font-specification:'Courier 10 Pitch';stroke-width:0.56146109"
           id="path991" />
        <path
           d="m 232.24595,12.914617 c 0,1.010534 0.768,1.75833 1.94022,1.75833 1.17222,0 1.94023,-0.727585 1.94023,-1.75833 0,-1.030746 -0.76801,-1.758331 -1.94023,-1.758331 -1.17222,0 -1.94022,0.747796 -1.94022,1.758331 z"
           style="font-style:normal;font-variant:normal;font-weight:normal;font-stretch:normal;font-family:'Courier 10 Pitch';-inkscape-font-specification:'Courier 10 Pitch';stroke-width:0.56146109"
           id="path993" />
        <path
           d="m 249.94163,9.0341631 v 4.5069849 c 0,0.646742 0.28295,0.990324 0.82864,0.990324 h 1.19243 c 0.46485,0 0.70738,-0.242528 0.70738,-0.707374 0,-0.5659 -0.28295,-0.687164 -1.03075,-0.687164 -0.0606,0 -0.12126,0 -0.18189,0 V 8.6703706 c 0,-2.3040193 -0.60632,-3.516661 -2.42529,-3.516661 -0.9499,0 -1.65727,0.4042139 -2.20296,1.2126417 -0.28295,-0.8084278 -0.88927,-1.2126417 -1.79875,-1.2126417 -0.76801,0 -1.37433,0.262739 -1.89981,0.8488492 -0.0404,-0.4850567 -0.14147,-0.5861102 -0.5659,-0.5861102 h -1.5158 c -0.52548,0 -0.76801,0.2223177 -0.76801,0.6871637 0,0.5052674 0.28295,0.7073743 0.90948,0.7073743 0.14148,0 0.30316,0 0.44464,0 v 6.3259474 c -0.0808,0 -0.14148,0 -0.20211,0 -0.80843,0 -1.15201,0.121264 -1.15201,0.687164 0,0.464846 0.24253,0.707374 0.76801,0.707374 h 2.62739 c 0.58611,0 0.80843,-0.141475 0.80843,-0.707374 0,-0.545689 -0.26274,-0.707374 -0.94991,-0.707374 -0.12126,0 -0.26273,0.02021 -0.42442,0.02021 V 7.7002572 c 0.36379,-0.6871636 0.84885,-1.0307455 1.45517,-1.0307455 0.7478,0 1.29348,0.5861102 1.29348,1.596645 0,0.1212641 0,0.3840032 0,0.7680064 v 4.1634029 c 0,0.101054 0,0.181897 0,0.262739 0,0.768007 0.0404,1.071167 0.68717,1.071167 h 1.25306 c 0.46485,0 0.68716,-0.242528 0.68716,-0.707374 0,-0.5659 -0.28295,-0.687164 -1.03074,-0.687164 -0.0606,0 -0.12126,0 -0.1819,0 V 9.0341631 c 0,-1.5764342 0.68717,-2.3646514 1.59665,-2.3646514 0.99032,0 1.07116,0.8690599 1.07116,2.3646514 z"
           style="font-style:normal;font-variant:normal;font-weight:normal;font-stretch:normal;font-family:'Courier 10 Pitch';-inkscape-font-specification:'Courier 10 Pitch';stroke-width:0.56146109"
           id="path995" />
        <path
           d="m 255.20781,9.1150059 c 0.384,-1.6370663 1.65727,-2.6071797 3.39539,-2.6071797 1.59665,0 2.84971,1.0307454 3.03161,2.6071797 z m -0.0404,1.2934841 h 6.6291 c 1.21265,0 1.63707,0 1.63707,-0.9296916 0,-2.2029658 -1.83917,-4.3250888 -4.83036,-4.3250888 -3.05181,0 -5.15372,1.9604374 -5.15372,4.7899348 0,2.9507616 1.8998,4.8303566 4.95162,4.8303566 1.3339,0 2.76886,-0.323372 4.12298,-0.990325 0.58611,-0.282949 0.86906,-0.58611 0.86906,-0.990324 0,-0.363792 -0.30316,-0.646742 -0.68716,-0.646742 -0.88928,0 -2.16255,1.232853 -4.16341,1.232853 -2.04128,0 -3.27413,-1.071167 -3.37518,-2.970973 z"
           style="font-style:normal;font-variant:normal;font-weight:normal;font-stretch:normal;font-family:'Courier 10 Pitch';-inkscape-font-specification:'Courier 10 Pitch';stroke-width:0.56146109"
           id="path997" />
        <path
           d="m 272.90356,13.278409 0.10105,0.606321 c 0.0808,0.424425 0.32337,0.646742 0.68717,0.646742 h 1.55622 c 0.52548,0 0.78822,-0.242528 0.78822,-0.707374 0,-0.58611 -0.34359,-0.687164 -1.17222,-0.687164 h -0.50527 V 8.6703706 c 0,-2.3848621 -1.17222,-3.4964503 -3.69856,-3.4964503 -2.22318,0 -3.67835,0.7073743 -3.67835,1.394538 0,0.5052674 0.30316,0.8286385 0.66696,0.8286385 0.768,0 1.57643,-0.8286385 2.97097,-0.8286385 1.5158,0 2.22318,0.7073743 2.22318,2.2231765 0,0.020211 0,0.040421 0,0.060632 -0.80843,-0.2021069 -1.57644,-0.3031604 -2.34444,-0.3031604 -2.93056,0 -4.56762,1.2328524 -4.56762,3.2741326 0,1.73812 1.29348,2.950762 3.27413,2.950762 1.35412,0 2.62739,-0.525479 3.69856,-1.495592 z m -0.0606,-3.112447 v 1.071167 c 0,0.88927 -1.61686,2.021069 -3.3954,2.021069 -1.15201,0 -1.94023,-0.666953 -1.94023,-1.536012 0,-1.111589 1.15201,-1.8998058 3.25392,-1.8998058 0.72759,0 1.41475,0.1212642 2.08171,0.3435818 z"
           style="font-style:normal;font-variant:normal;font-weight:normal;font-stretch:normal;font-family:'Courier 10 Pitch';-inkscape-font-specification:'Courier 10 Pitch';stroke-width:0.56146109"
           id="path999" />
        <path
           d="m 279.13978,13.136934 c -0.0808,0 -0.14147,0 -0.2021,0 -0.80843,0 -1.15201,0.121264 -1.15201,0.687164 0,0.464846 0.26274,0.707374 0.82864,0.707374 0.26273,0 0.44463,0 0.52547,0 h 1.79876 c 0.74779,0 1.05095,-0.04042 1.05095,-0.707374 0,-0.545689 -0.26274,-0.707374 -0.9499,-0.707374 -0.12127,0 -0.26274,0.02021 -0.42443,0.02021 V 9.0341631 c 0,-1.4753808 1.37433,-2.3646514 2.56676,-2.3646514 1.29349,0 2.02107,0.7882172 2.02107,2.3646514 v 4.1027709 c -0.12126,0 -0.22232,0 -0.32337,0 -0.70737,0 -0.99032,0.141475 -0.99032,0.687164 0,0.646742 0.28295,0.707374 0.99032,0.707374 h 2.18276 c 0.70737,0 1.05095,-0.141475 1.05095,-0.707374 0,-0.505268 -0.30316,-0.687164 -0.92969,-0.687164 -0.14147,0 -0.30316,0 -0.44464,0 V 8.6703706 c 0,-2.2838086 -1.3339,-3.516661 -3.2135,-3.516661 -1.03074,0 -1.94022,0.4446353 -2.89013,1.3339059 v -0.666953 c 0,-0.2425283 -0.18189,-0.4042139 -0.56589,-0.4042139 h -0.9297 c -0.90948,0 -1.35411,0 -1.35411,0.6871637 0,0.5052674 0.28295,0.7073743 0.90948,0.7073743 0.14147,0 0.30316,0 0.44463,0 z"
           style="font-style:normal;font-variant:normal;font-weight:normal;font-stretch:normal;font-family:'Courier 10 Pitch';-inkscape-font-specification:'Courier 10 Pitch';stroke-width:0.56146109"
           id="path1001" />
        <path
           d="m 296.97701,2.9305331 c 0,-0.2829497 -0.16169,-0.4446353 -0.384,-0.4446353 -0.46485,0 -1.11159,0.6265316 -1.8796,1.8795947 -1.17222,1.8998053 -1.73812,3.9006642 -1.73812,6.1238405 0,2.223177 0.5659,4.224035 1.73812,6.123841 0.76801,1.253063 1.41475,1.879594 1.8796,1.879594 0.22231,0 0.384,-0.181896 0.384,-0.464846 0,-0.384003 -0.54569,-1.192431 -1.11159,-2.62739 -0.62653,-1.616856 -0.9499,-3.173079 -0.9499,-4.911199 0,-2.2231763 0.52548,-3.900664 1.23285,-5.5781517 0.42442,-1.0105348 0.82864,-1.6370664 0.82864,-1.9806482 z"
           style="font-style:normal;font-variant:normal;font-weight:normal;font-stretch:normal;font-family:'Courier 10 Pitch';-inkscape-font-specification:'Courier 10 Pitch';stroke-width:0.56146109"
           id="path1003" />
        <path
           d="m 305.11304,18.027922 c 0,0.28295 0.16169,0.464846 0.384,0.464846 0.46485,0 1.11159,-0.626531 1.8796,-1.879594 1.17222,-1.899806 1.75833,-3.900664 1.75833,-6.123841 0,-2.2231763 -0.58611,-4.2240352 -1.75833,-6.1238405 -0.76801,-1.2530631 -1.41475,-1.8795947 -1.8796,-1.8795947 -0.22231,0 -0.384,0.1616856 -0.384,0.4446353 0,0.3840032 0.54569,1.192431 1.11159,2.6273904 0.62653,1.6168556 0.9499,3.1932899 0.9499,4.9314095 0,2.223177 -0.50527,3.900664 -1.21264,5.578152 -0.42443,1.010535 -0.84885,1.616856 -0.84885,1.960437 z"
           style="font-style:normal;font-variant:normal;font-weight:normal;font-stretch:normal;font-family:'Courier 10 Pitch';-inkscape-font-specification:'Courier 10 Pitch';stroke-width:0.56146109"
           id="path1005" />
      </g>
      <path
         inkscape:connector-curvature="0"
         id="path4891-1-50-8-2-1-74-6-0"
         style="fill:#8b6ff9;fill-opacity:1;fill-rule:evenodd;stroke:#ffffff;stroke-width:0.56899637;stroke-miterlimit:4;stroke-dasharray:none;stroke-opacity:1"
         d="M 242.66155,98.421652 H 267.5495 V 86.233682 H 242.66155 Z" />
      <path
         inkscape:connector-curvature="0"
         id="path4891-1-50-8-2-7-17-40-6"
         style="fill:#ffca00;fill-opacity:1;fill-rule:evenodd;stroke:#ffffff;stroke-width:0.56899637;stroke-miterlimit:4;stroke-dasharray:none;stroke-opacity:1"
         d="M 269.07755,84.705634 H 293.9655 V 72.517682 h -24.88795 z" />
      <path
         inkscape:connector-curvature="0"
         id="path4891-1-50-8-2-1-9-1-94-3"
         style="fill:#e50387;fill-opacity:0.39215686;fill-rule:evenodd;stroke:#ffffff;stroke-width:0.56899637;stroke-miterlimit:4;stroke-dasharray:none;stroke-opacity:1"
         d="M 269.07755,98.421652 H 293.9655 V 86.233682 H 269.07755 Z" />
      <path
         inkscape:connector-curvature="0"
         id="path4891-1-50-8-2-1-74-6-0-4"
         style="fill:#2808ac;fill-opacity:1;fill-rule:evenodd;stroke:#ffffff;stroke-width:0.56899637;stroke-miterlimit:4;stroke-dasharray:none;stroke-opacity:1"
         d="m 245.30738,180.91592 h 24.88795 v -12.1879 h -24.88795 z" />
      <path
         inkscape:connector-curvature="0"
         id="path4891-1-50-8-2-7-17-40-6-1"
         style="fill:#ffca00;fill-opacity:1;fill-rule:evenodd;stroke:#ffffff;stroke-width:0.56899637;stroke-miterlimit:4;stroke-dasharray:none;stroke-opacity:1"
         d="m 271.72338,167.19992 h 24.88795 v -12.1879 h -24.88795 z" />
      <path
         inkscape:connector-curvature="0"
         id="path4891-1-50-8-2-1-9-1-94-3-6"
         style="fill:#e50387;fill-opacity:0.39215686;fill-rule:evenodd;stroke:#ffffff;stroke-width:0.56899637;stroke-miterlimit:4;stroke-dasharray:none;stroke-opacity:1"
         d="m 271.72338,180.91592 h 24.88795 v -12.1879 h -24.88795 z" />
      <path
         inkscape:connector-curvature="0"
         id="path4891-1-50-8-2-1-74-6-3-43-4"
         style="fill:#afabab;fill-opacity:1;fill-rule:evenodd;stroke:#ffffff;stroke-width:0.56899637;stroke-miterlimit:4;stroke-dasharray:none;stroke-opacity:1"
         d="m -113.38633,177.74091 h 24.887936 v -12.1879 h -24.887936 z" />
      <path
         inkscape:connector-curvature="0"
         id="path4891-1-50-8-2-7-17-40-0-9-7"
         style="fill:#afabab;fill-opacity:1;fill-rule:evenodd;stroke:#ffffff;stroke-width:0.56899637;stroke-miterlimit:4;stroke-dasharray:none;stroke-opacity:1"
         d="m -86.970344,164.02491 h 24.88796 v -12.18786 h -24.88796 z" />
      <path
         inkscape:connector-curvature="0"
         id="path4891-1-50-8-2-1-9-1-94-33-49-2"
         style="fill:#afabab;fill-opacity:0.39215686;fill-rule:evenodd;stroke:#ffffff;stroke-width:0.56899637;stroke-miterlimit:4;stroke-dasharray:none;stroke-opacity:1"
         d="m -86.970344,177.74091 h 24.88796 v -12.1879 h -24.88796 z" />
      <path
         inkscape:connector-curvature="0"
         id="path4891-1-50-8-2-2-1-5-7-5-1"
         style="fill:#afabab;fill-opacity:1;fill-rule:evenodd;stroke:#ffffff;stroke-width:0.56899637;stroke-miterlimit:4;stroke-dasharray:none;stroke-opacity:1"
         d="m -113.38634,190.44091 h 24.887946 v -12.1879 h -24.887946 z" />
      <path
         inkscape:connector-curvature="0"
         id="path4891-1-50-8-2-7-5-1-4-9-5-7"
         style="fill:#afabab;fill-opacity:0.39215686;fill-rule:evenodd;stroke:#ffffff;stroke-width:0.56899637;stroke-miterlimit:4;stroke-dasharray:none;stroke-opacity:1"
         d="m -86.970344,190.44091 h 24.88796 v -12.1879 h -24.88796 z" />
      <path
         inkscape:connector-curvature="0"
         id="path4891-1-50-8-2-6-7-6-4-7-9"
         style="fill:#150458;fill-opacity:1;fill-rule:evenodd;stroke:#ffffff;stroke-width:0.56899637;stroke-miterlimit:4;stroke-dasharray:none;stroke-opacity:1"
         d="m -61.570344,164.02491 h 24.88795 v -12.18786 h -24.88795 z" />
      <path
         inkscape:connector-curvature="0"
         id="path4891-1-50-8-2-1-5-0-6-9-3-5"
         style="fill:#2808ac;fill-opacity:1;fill-rule:evenodd;stroke:#ffffff;stroke-width:0.56899637;stroke-miterlimit:4;stroke-dasharray:none;stroke-opacity:1"
         d="m -61.570344,177.74091 h 24.88795 v -12.1879 h -24.88795 z" />
      <path
         inkscape:connector-curvature="0"
         id="path4891-1-50-8-2-2-3-4-39-9-9-6"
         style="fill:#2808ac;fill-opacity:1;fill-rule:evenodd;stroke:#ffffff;stroke-width:0.56899637;stroke-miterlimit:4;stroke-dasharray:none;stroke-opacity:1"
         d="m -61.570344,190.44091 h 24.88795 v -12.1879 h -24.88795 z" />
      <path
         inkscape:connector-curvature="0"
         id="path4891-1-50-8-2-7-8-8-5-1-1-21"
         style="fill:#afabab;fill-opacity:1;fill-rule:evenodd;stroke:#ffffff;stroke-width:0.56899637;stroke-miterlimit:4;stroke-dasharray:none;stroke-opacity:1"
         d="m -36.170344,164.02491 h 24.88795 v -12.18786 h -24.88795 z" />
      <path
         inkscape:connector-curvature="0"
         id="path4891-1-50-8-2-1-9-4-1-73-1-7-0"
         style="fill:#afabab;fill-opacity:0.39215686;fill-rule:evenodd;stroke:#ffffff;stroke-width:0.56899637;stroke-miterlimit:4;stroke-dasharray:none;stroke-opacity:1"
         d="m -36.170344,177.74091 h 24.88795 v -12.1879 h -24.88795 z" />
      <path
         inkscape:connector-curvature="0"
         id="path4891-1-50-8-2-7-5-5-0-3-4-9-5"
         style="fill:#afabab;fill-opacity:0.39215686;fill-rule:evenodd;stroke:#ffffff;stroke-width:0.56899637;stroke-miterlimit:4;stroke-dasharray:none;stroke-opacity:1"
         d="m -36.170344,190.44091 h 24.88795 v -12.1879 h -24.88795 z" />
      <path
         inkscape:connector-curvature="0"
         id="path4891-1-50-8-2-1-74-6-3-6"
         style="fill:#afabab;fill-opacity:1;fill-rule:evenodd;stroke:#ffffff;stroke-width:0.56899637;stroke-miterlimit:4;stroke-dasharray:none;stroke-opacity:1"
         d="m -113.38634,88.896676 h 24.887939 V 76.708687 h -24.887939 z" />
      <path
         inkscape:connector-curvature="0"
         id="path4891-1-50-8-2-7-17-40-0-0"
         style="fill:#afabab;fill-opacity:1;fill-rule:evenodd;stroke:#ffffff;stroke-width:0.56899637;stroke-miterlimit:4;stroke-dasharray:none;stroke-opacity:1"
         d="m -86.970351,75.180636 h 24.88797 V 62.992687 h -24.88797 z" />
      <path
         inkscape:connector-curvature="0"
         id="path4891-1-50-8-2-1-9-1-94-33-6"
         style="fill:#afabab;fill-opacity:0.39215686;fill-rule:evenodd;stroke:#ffffff;stroke-width:0.56899637;stroke-miterlimit:4;stroke-dasharray:none;stroke-opacity:1"
         d="m -86.970351,88.896676 h 24.88797 V 76.708687 h -24.88797 z" />
      <path
         inkscape:connector-curvature="0"
         id="path4891-1-50-8-2-2-1-5-7-2"
         style="fill:#afabab;fill-opacity:1;fill-rule:evenodd;stroke:#ffffff;stroke-width:0.56899637;stroke-miterlimit:4;stroke-dasharray:none;stroke-opacity:1"
         d="m -113.38635,101.59668 h 24.887949 V 89.408676 h -24.887949 z" />
      <path
         inkscape:connector-curvature="0"
         id="path4891-1-50-8-2-7-5-1-4-9-6"
         style="fill:#afabab;fill-opacity:0.39215686;fill-rule:evenodd;stroke:#ffffff;stroke-width:0.56899637;stroke-miterlimit:4;stroke-dasharray:none;stroke-opacity:1"
         d="m -86.970351,101.59668 h 24.88797 V 89.408676 h -24.88797 z" />
      <path
         inkscape:connector-curvature="0"
         id="path4891-1-50-8-2-6-7-6-4-1"
         style="fill:#150458;fill-opacity:1;fill-rule:evenodd;stroke:#ffffff;stroke-width:0.56899637;stroke-miterlimit:4;stroke-dasharray:none;stroke-opacity:1"
         d="m -61.570341,75.180636 h 24.88796 V 62.992687 h -24.88796 z" />
      <path
         inkscape:connector-curvature="0"
         id="path4891-1-50-8-2-1-5-0-6-9-8"
         style="fill:#8b6ff9;fill-opacity:1;fill-rule:evenodd;stroke:#ffffff;stroke-width:0.56899637;stroke-miterlimit:4;stroke-dasharray:none;stroke-opacity:1"
         d="m -61.570341,88.896676 h 24.88796 V 76.708687 h -24.88796 z" />
      <path
         inkscape:connector-curvature="0"
         id="path4891-1-50-8-2-2-3-4-39-9-7"
         style="fill:#8b6ff9;fill-opacity:1;fill-rule:evenodd;stroke:#ffffff;stroke-width:0.56899637;stroke-miterlimit:4;stroke-dasharray:none;stroke-opacity:1"
         d="m -61.570341,101.59668 h 24.88796 V 89.408676 h -24.88796 z" />
      <path
         inkscape:connector-curvature="0"
         id="path4891-1-50-8-2-1-7-0-95-1-9"
         style="fill:#afabab;fill-opacity:1;fill-rule:evenodd;stroke:#ffffff;stroke-width:0.56899637;stroke-miterlimit:4;stroke-dasharray:none;stroke-opacity:1"
         d="m -113.38634,114.29668 h 24.887939 v -12.188 h -24.887939 z" />
      <path
         inkscape:connector-curvature="0"
         id="path4891-1-50-8-2-1-9-8-8-2-9-2"
         style="fill:#afabab;fill-opacity:0.39215686;fill-rule:evenodd;stroke:#ffffff;stroke-width:0.56899637;stroke-miterlimit:4;stroke-dasharray:none;stroke-opacity:1"
         d="m -86.970351,114.29668 h 24.88797 v -12.188 h -24.88797 z" />
      <path
         inkscape:connector-curvature="0"
         id="path4891-1-50-8-2-1-7-8-51-1-4-0"
         style="fill:#8b6ff9;fill-opacity:1;fill-rule:evenodd;stroke:#ffffff;stroke-width:0.56899637;stroke-miterlimit:4;stroke-dasharray:none;stroke-opacity:1"
         d="m -61.570341,114.29668 h 24.88796 v -12.188 h -24.88796 z" />
      <path
         inkscape:connector-curvature="0"
         id="path4891-1-50-8-2-1-9-8-2-0-58-6-2"
         style="fill:#afabab;fill-opacity:0.39215686;fill-rule:evenodd;stroke:#ffffff;stroke-width:0.56899637;stroke-miterlimit:4;stroke-dasharray:none;stroke-opacity:1"
         d="m -36.170341,114.29668 h 24.88796 v -12.188 h -24.88796 z" />
      <path
         inkscape:connector-curvature="0"
         id="path4891-1-50-8-2-7-8-8-5-1-3"
         style="fill:#afabab;fill-opacity:1;fill-rule:evenodd;stroke:#ffffff;stroke-width:0.56899637;stroke-miterlimit:4;stroke-dasharray:none;stroke-opacity:1"
         d="m -36.170341,75.180636 h 24.88796 V 62.992687 h -24.88796 z" />
      <path
         inkscape:connector-curvature="0"
         id="path4891-1-50-8-2-1-9-4-1-73-1-7"
         style="fill:#afabab;fill-opacity:0.39215686;fill-rule:evenodd;stroke:#ffffff;stroke-width:0.56899637;stroke-miterlimit:4;stroke-dasharray:none;stroke-opacity:1"
         d="m -36.170341,88.896676 h 24.88796 V 76.708687 h -24.88796 z" />
      <path
         inkscape:connector-curvature="0"
         id="path4891-1-50-8-2-7-5-5-0-3-4-5"
         style="fill:#afabab;fill-opacity:0.39215686;fill-rule:evenodd;stroke:#ffffff;stroke-width:0.56899637;stroke-miterlimit:4;stroke-dasharray:none;stroke-opacity:1"
         d="m -36.170341,101.59668 h 24.88796 V 89.408676 h -24.88796 z" />
      <path
         inkscape:connector-curvature="0"
         id="path4891-1-50-8-2-1-74-6-3-43-4-2"
         style="fill:#afabab;fill-opacity:1;fill-rule:evenodd;stroke:#ffffff;stroke-width:0.56899637;stroke-miterlimit:4;stroke-dasharray:none;stroke-opacity:1"
         d="m 63.889263,177.74092 h 24.88795 v -12.1879 h -24.88795 z" />
      <path
         inkscape:connector-curvature="0"
         id="path4891-1-50-8-2-7-17-40-0-9-7-3"
         style="fill:#afabab;fill-opacity:1;fill-rule:evenodd;stroke:#ffffff;stroke-width:0.56899637;stroke-miterlimit:4;stroke-dasharray:none;stroke-opacity:1"
         d="m 90.305262,164.02492 h 24.887958 v -12.1879 H 90.305262 Z" />
      <path
         inkscape:connector-curvature="0"
         id="path4891-1-50-8-2-1-9-1-94-33-49-2-5"
         style="fill:#afabab;fill-opacity:0.39215686;fill-rule:evenodd;stroke:#ffffff;stroke-width:0.56899637;stroke-miterlimit:4;stroke-dasharray:none;stroke-opacity:1"
         d="m 90.305262,177.74092 h 24.887958 v -12.1879 H 90.305262 Z" />
      <path
         inkscape:connector-curvature="0"
         id="path4891-1-50-8-2-2-1-5-7-5-1-1"
         style="fill:#afabab;fill-opacity:1;fill-rule:evenodd;stroke:#ffffff;stroke-width:0.56899637;stroke-miterlimit:4;stroke-dasharray:none;stroke-opacity:1"
         d="m 63.889263,190.44092 h 24.88795 v -12.1879 h -24.88795 z" />
      <path
         inkscape:connector-curvature="0"
         id="path4891-1-50-8-2-7-5-1-4-9-5-7-7"
         style="fill:#afabab;fill-opacity:0.39215686;fill-rule:evenodd;stroke:#ffffff;stroke-width:0.56899637;stroke-miterlimit:4;stroke-dasharray:none;stroke-opacity:1"
         d="m 90.305262,190.44092 h 24.887958 v -12.1879 H 90.305262 Z" />
      <path
         inkscape:connector-curvature="0"
         id="path4891-1-50-8-2-6-7-6-4-7-9-8"
         style="fill:#150458;fill-opacity:1;fill-rule:evenodd;stroke:#ffffff;stroke-width:0.56899637;stroke-miterlimit:4;stroke-dasharray:none;stroke-opacity:1"
         d="m 115.70527,164.02492 h 24.88795 v -12.1879 h -24.88795 z" />
      <path
         inkscape:connector-curvature="0"
         id="path4891-1-50-8-2-1-5-0-6-9-3-5-9"
         style="fill:#2808ac;fill-opacity:1;fill-rule:evenodd;stroke:#ffffff;stroke-width:0.56899637;stroke-miterlimit:4;stroke-dasharray:none;stroke-opacity:1"
         d="m 115.70527,177.74092 h 24.88795 v -12.1879 h -24.88795 z" />
      <path
         inkscape:connector-curvature="0"
         id="path4891-1-50-8-2-2-3-4-39-9-9-6-4"
         style="fill:#2808ac;fill-opacity:1;fill-rule:evenodd;stroke:#ffffff;stroke-width:0.56899637;stroke-miterlimit:4;stroke-dasharray:none;stroke-opacity:1"
         d="m 115.70527,190.44092 h 24.88795 v -12.1879 h -24.88795 z" />
      <path
         inkscape:connector-curvature="0"
         id="path4891-1-50-8-2-7-8-2-5-6-7-1-9-3"
         style="fill:#ffca00;fill-opacity:1;fill-rule:evenodd;stroke:#ffffff;stroke-width:0.56899637;stroke-miterlimit:4;stroke-dasharray:none;stroke-opacity:1"
         d="m 142.60199,164.02492 h 24.88792 v -12.1879 h -24.88792 z" />
      <path
         inkscape:connector-curvature="0"
         id="path4891-1-50-8-2-1-9-4-2-6-0-3-2-7-5"
         style="fill:#ffc900;fill-opacity:0.39215686;fill-rule:evenodd;stroke:#ffffff;stroke-width:0.56899637;stroke-miterlimit:4;stroke-dasharray:none;stroke-opacity:1"
         d="m 142.60199,177.74092 h 24.88792 v -12.1879 h -24.88792 z" />
      <path
         inkscape:connector-curvature="0"
         id="path4891-1-50-8-2-7-5-5-1-4-33-3-5-6-4"
         style="fill:#ffc900;fill-opacity:0.39215686;fill-rule:evenodd;stroke:#ffffff;stroke-width:0.56899637;stroke-miterlimit:4;stroke-dasharray:none;stroke-opacity:1"
         d="m 142.60199,190.44092 h 24.88792 v -12.1879 h -24.88792 z" />
      <path
         inkscape:connector-curvature="0"
         id="path4891-1-50-8-2-1-74-6-3-6-2"
         style="fill:#afabab;fill-opacity:1;fill-rule:evenodd;stroke:#ffffff;stroke-width:0.56899637;stroke-miterlimit:4;stroke-dasharray:none;stroke-opacity:1"
         d="m 64.637609,88.896667 h 24.88794 v -12.18799 h -24.88794 z" />
      <path
         inkscape:connector-curvature="0"
         id="path4891-1-50-8-2-7-17-40-0-0-2"
         style="fill:#afabab;fill-opacity:1;fill-rule:evenodd;stroke:#ffffff;stroke-width:0.56899637;stroke-miterlimit:4;stroke-dasharray:none;stroke-opacity:1"
         d="M 91.053599,75.180627 H 115.94157 V 62.992677 H 91.053599 Z" />
      <path
         inkscape:connector-curvature="0"
         id="path4891-1-50-8-2-1-9-1-94-33-6-8"
         style="fill:#afabab;fill-opacity:0.39215686;fill-rule:evenodd;stroke:#ffffff;stroke-width:0.56899637;stroke-miterlimit:4;stroke-dasharray:none;stroke-opacity:1"
         d="M 91.053599,88.896667 H 115.94157 V 76.708677 H 91.053599 Z" />
      <path
         inkscape:connector-curvature="0"
         id="path4891-1-50-8-2-2-1-5-7-2-9"
         style="fill:#afabab;fill-opacity:1;fill-rule:evenodd;stroke:#ffffff;stroke-width:0.56899637;stroke-miterlimit:4;stroke-dasharray:none;stroke-opacity:1"
         d="m 64.637599,101.59667 h 24.88795 V 89.408667 h -24.88795 z" />
      <path
         inkscape:connector-curvature="0"
         id="path4891-1-50-8-2-7-5-1-4-9-6-7"
         style="fill:#afabab;fill-opacity:0.39215686;fill-rule:evenodd;stroke:#ffffff;stroke-width:0.56899637;stroke-miterlimit:4;stroke-dasharray:none;stroke-opacity:1"
         d="M 91.053599,101.59667 H 115.94157 V 89.408667 H 91.053599 Z" />
      <path
         inkscape:connector-curvature="0"
         id="path4891-1-50-8-2-6-7-6-4-1-3"
         style="fill:#150458;fill-opacity:1;fill-rule:evenodd;stroke:#ffffff;stroke-width:0.56899637;stroke-miterlimit:4;stroke-dasharray:none;stroke-opacity:1"
         d="m 116.45361,75.180627 h 24.88796 v -12.18795 h -24.88796 z" />
      <path
         inkscape:connector-curvature="0"
         id="path4891-1-50-8-2-1-5-0-6-9-8-6"
         style="fill:#8b6ff9;fill-opacity:1;fill-rule:evenodd;stroke:#ffffff;stroke-width:0.56899637;stroke-miterlimit:4;stroke-dasharray:none;stroke-opacity:1"
         d="m 116.45361,88.896667 h 24.88796 v -12.18799 h -24.88796 z" />
      <path
         inkscape:connector-curvature="0"
         id="path4891-1-50-8-2-2-3-4-39-9-7-1"
         style="fill:#8b6ff9;fill-opacity:1;fill-rule:evenodd;stroke:#ffffff;stroke-width:0.56899637;stroke-miterlimit:4;stroke-dasharray:none;stroke-opacity:1"
         d="m 116.45361,101.59667 h 24.88796 V 89.408667 h -24.88796 z" />
      <path
         inkscape:connector-curvature="0"
         id="path4891-1-50-8-2-1-7-0-95-1-9-2"
         style="fill:#afabab;fill-opacity:1;fill-rule:evenodd;stroke:#ffffff;stroke-width:0.56899637;stroke-miterlimit:4;stroke-dasharray:none;stroke-opacity:1"
         d="m 64.637609,114.29667 h 24.88794 v -12.188 h -24.88794 z" />
      <path
         inkscape:connector-curvature="0"
         id="path4891-1-50-8-2-1-9-8-8-2-9-2-9"
         style="fill:#afabab;fill-opacity:0.39215686;fill-rule:evenodd;stroke:#ffffff;stroke-width:0.56899637;stroke-miterlimit:4;stroke-dasharray:none;stroke-opacity:1"
         d="m 91.053599,114.29667 h 24.887971 v -12.188 H 91.053599 Z" />
      <path
         inkscape:connector-curvature="0"
         id="path4891-1-50-8-2-1-7-8-51-1-4-0-3"
         style="fill:#8b6ff9;fill-opacity:1;fill-rule:evenodd;stroke:#ffffff;stroke-width:0.56899637;stroke-miterlimit:4;stroke-dasharray:none;stroke-opacity:1"
         d="m 116.45361,114.29667 h 24.88796 v -12.188 h -24.88796 z" />
      <path
         inkscape:connector-curvature="0"
         id="path4891-1-50-8-2-1-9-8-2-0-58-6-2-1"
         style="fill:#ffc900;fill-opacity:0.39215686;fill-rule:evenodd;stroke:#ffffff;stroke-width:0.56899637;stroke-miterlimit:4;stroke-dasharray:none;stroke-opacity:1"
         d="m 141.85361,114.29667 h 24.88796 v -12.188 h -24.88796 z" />
      <path
         inkscape:connector-curvature="0"
         id="path4891-1-50-8-2-7-8-8-5-1-3-9"
         style="fill:#ffca00;fill-opacity:1;fill-rule:evenodd;stroke:#ffffff;stroke-width:0.56899637;stroke-miterlimit:4;stroke-dasharray:none;stroke-opacity:1"
         d="m 141.85361,75.180627 h 24.88796 v -12.18795 h -24.88796 z" />
      <path
         inkscape:connector-curvature="0"
         id="path4891-1-50-8-2-1-9-4-1-73-1-7-4"
         style="fill:#ffc900;fill-opacity:0.39215686;fill-rule:evenodd;stroke:#ffffff;stroke-width:0.56899637;stroke-miterlimit:4;stroke-dasharray:none;stroke-opacity:1"
         d="m 141.85361,88.896667 h 24.88796 v -12.18799 h -24.88796 z" />
      <path
         inkscape:connector-curvature="0"
         id="path4891-1-50-8-2-7-5-5-0-3-4-5-7"
         style="fill:#ffc900;fill-opacity:0.39215686;fill-rule:evenodd;stroke:#ffffff;stroke-width:0.56899637;stroke-miterlimit:4;stroke-dasharray:none;stroke-opacity:1"
         d="m 141.85361,101.59667 h 24.88796 V 89.408667 h -24.88796 z" />
    </g>
    <flowRoot
       xml:space="preserve"
       id="flowRoot1848"
       style="font-style:normal;font-weight:normal;font-size:40px;line-height:1.25;font-family:sans-serif;letter-spacing:0px;word-spacing:0px;fill:#000000;fill-opacity:1;stroke:none"
       transform="matrix(0.26458333,0,0,0.26458333,-306.84909,0.94988499)"><flowRegion
         id="flowRegion1850"><rect
           id="rect1852"
           width="78.933067"
           height="54.952229"
           x="901.05609"
           y="1308.1863" /></flowRegion><flowPara
         id="flowPara1854" /></flowRoot>  </g>
</svg>
