<?xml version="1.0" encoding="UTF-8" standalone="no"?>
<svg
   xmlns:dc="http://purl.org/dc/elements/1.1/"
   xmlns:cc="http://creativecommons.org/ns#"
   xmlns:rdf="http://www.w3.org/1999/02/22-rdf-syntax-ns#"
   xmlns:svg="http://www.w3.org/2000/svg"
   xmlns="http://www.w3.org/2000/svg"
   viewBox="0 0 530.44 90.053329"
   height="90.053329"
   width="530.44"
   xml:space="preserve"
   id="svg2"
   version="1.1"><metadata
     id="metadata8"><rdf:RDF><cc:Work
         rdf:about=""><dc:format>image/svg+xml</dc:format><dc:type
           rdf:resource="http://purl.org/dc/dcmitype/StillImage" /></cc:Work></rdf:RDF></metadata><defs
     id="defs6" /><g
     transform="matrix(1.3333333,0,0,-1.3333333,0,90.053333)"
     id="g10"><g
       transform="scale(0.1)"
       id="g12"><path
         id="path14"
         style="fill:#43b53b;fill-opacity:1;fill-rule:nonzero;stroke:none"
         d="m 958.313,274.5 53.637,120.406 h 1.64 L 1068.32,274.5 Z m 67.867,251.754 c -1.65,3.285 -3.83,6.027 -9.31,6.027 h -5.47 c -4.93,0 -7.66,-2.742 -9.31,-6.027 L 831.887,157.93 c -3.282,-7.117 1.097,-14.231 9.304,-14.231 h 47.618 c 8.754,0 13.679,5.473 15.867,10.942 l 26.82,59.113 h 163.644 l 26.81,-59.113 c 3.83,-7.657 7.66,-10.942 15.88,-10.942 h 47.61 c 8.21,0 12.59,7.114 9.3,14.231 l -168.56,368.324" /><path
         id="path16"
         style="fill:#43b53b;fill-opacity:1;fill-rule:nonzero;stroke:none"
         d="m 1547.94,526.801 h -50.35 c -6.03,0 -10.4,-4.922 -10.4,-10.395 V 290.371 h -0.55 l -227.67,241.91 h -13.68 c -5.48,0 -10.4,-4.383 -10.4,-9.855 V 154.102 c 0,-5.481 4.92,-10.403 10.4,-10.403 h 49.8 c 6.02,0 10.4,4.922 10.4,10.403 v 235.332 h 0.54 L 1534.8,138.227 h 13.14 c 5.47,0 10.4,4.378 10.4,9.847 v 368.332 c 0,5.473 -4.93,10.395 -10.4,10.395" /><path
         id="path18"
         style="fill:#43b53b;fill-opacity:1;fill-rule:nonzero;stroke:none"
         d="m 1725.97,274.5 53.64,120.406 h 1.64 L 1835.98,274.5 Z m 67.87,251.754 c -1.64,3.285 -3.83,6.027 -9.31,6.027 h -5.47 c -4.93,0 -7.66,-2.742 -9.31,-6.027 L 1599.55,157.93 c -3.29,-7.117 1.09,-14.231 9.3,-14.231 h 47.62 c 8.75,0 13.68,5.473 15.87,10.942 l 26.82,59.113 h 163.64 l 26.81,-59.113 c 3.83,-7.657 7.67,-10.942 15.88,-10.942 h 47.61 c 8.21,0 12.59,7.114 9.3,14.231 l -168.56,368.324" /><path
         id="path20"
         style="fill:#43b53b;fill-opacity:1;fill-rule:nonzero;stroke:none"
         d="m 2261.6,241.117 c -3.29,3.285 -9.31,3.836 -13.69,0 -22.98,-18.605 -50.9,-31.191 -83.73,-31.191 -70.06,0 -122.6,58.008 -122.6,126.418 0,68.965 51.99,127.519 122.05,127.519 30.64,0 61.3,-12.039 84.28,-32.285 4.38,-4.379 9.85,-4.379 13.69,0 l 33.38,34.477 c 4.38,4.375 4.38,10.941 -0.55,15.328 -37.21,33.383 -77.17,50.898 -132.45,50.898 -109.45,0 -197.57,-88.117 -197.57,-197.574 0,-109.465 88.12,-196.48 197.57,-196.48 48.72,0 95.78,16.964 133,53.086 3.83,3.835 4.92,10.949 0.55,14.777 l -33.93,35.027" /><path
         id="path22"
         style="fill:#43b53b;fill-opacity:1;fill-rule:nonzero;stroke:none"
         d="m 2520.21,209.379 c -68.95,0 -125.33,56.371 -125.33,125.328 0,68.957 56.38,126.426 125.33,126.426 68.96,0 125.88,-57.469 125.88,-126.426 0,-68.957 -56.92,-125.328 -125.88,-125.328 z m 0,322.902 c -109.46,0 -196.48,-88.117 -196.48,-197.574 0,-109.465 87.02,-196.48 196.48,-196.48 109.46,0 197.03,87.015 197.03,196.48 0,109.457 -87.57,197.574 -197.03,197.574" /><path
         id="path24"
         style="fill:#43b53b;fill-opacity:1;fill-rule:nonzero;stroke:none"
         d="m 3090.17,526.801 h -50.35 c -6.02,0 -10.4,-4.922 -10.4,-10.395 V 290.371 h -0.54 l -227.68,241.91 h -13.68 c -5.47,0 -10.4,-4.383 -10.4,-9.855 V 154.102 c 0,-5.481 4.93,-10.403 10.4,-10.403 h 49.8 c 6.02,0 10.4,4.922 10.4,10.403 v 235.332 h 0.55 l 228.77,-251.207 h 13.13 c 5.47,0 10.4,4.378 10.4,9.847 v 368.332 c 0,5.473 -4.93,10.395 -10.4,10.395" /><path
         id="path26"
         style="fill:#43b53b;fill-opacity:1;fill-rule:nonzero;stroke:none"
         d="m 3303.16,210.465 h -62.39 v 250.121 h 62.39 c 71.15,0 123.14,-53.641 123.14,-124.785 0,-71.696 -51.99,-125.336 -123.14,-125.336 z m 6.57,316.336 h -129.71 c -5.47,0 -9.85,-4.922 -9.85,-10.395 V 154.102 c 0,-5.481 4.38,-10.403 9.85,-10.403 h 129.71 c 105.63,0 192.1,85.926 192.1,192.102 0,105.082 -86.47,191 -192.1,191" /><path
         id="path28"
         style="fill:#43b53b;fill-opacity:1;fill-rule:nonzero;stroke:none"
         d="m 3631.32,274.5 53.64,120.406 h 1.64 L 3741.33,274.5 Z m 236.43,-116.57 -168.57,368.324 c -1.64,3.285 -3.82,6.027 -9.29,6.027 h -5.48 c -4.93,0 -7.67,-2.742 -9.3,-6.027 L 3504.9,157.93 c -3.29,-7.117 1.09,-14.231 9.3,-14.231 h 47.62 c 8.76,0 13.68,5.473 15.87,10.942 l 26.82,59.113 h 163.63 l 26.83,-59.113 c 3.82,-7.657 7.66,-10.942 15.86,-10.942 h 47.62 c 8.21,0 12.59,7.114 9.3,14.231" /><path
         id="path30"
         style="fill:#43b53b;fill-opacity:1;fill-rule:nonzero;stroke:none"
         d="m 3940.9,176.27 h 7.99 c 2.7,0 4.5,-1.793 4.5,-4.403 0,-2.422 -1.8,-4.394 -4.5,-4.394 h -7.99 z m -4.85,-26.582 h 3.33 c 0.99,0 1.7,0.808 1.7,1.707 v 10.148 h 5.57 l 4.49,-10.598 c 0.27,-0.629 0.9,-1.257 1.62,-1.257 h 4.04 c 1.26,0 2.16,1.257 1.53,2.425 -1.53,3.235 -3.15,6.645 -4.76,9.969 2.69,0.984 6.82,3.5 6.82,9.879 0,6.824 -5.48,10.594 -11.04,10.594 h -13.3 c -0.98,0 -1.7,-0.809 -1.7,-1.703 v -29.457 c 0,-0.899 0.72,-1.707 1.7,-1.707" /><path
         id="path32"
         style="fill:#43b53b;fill-opacity:1;fill-rule:nonzero;stroke:none"
         d="m 3945.93,192.078 c 14.46,0 26.05,-11.586 26.05,-26.043 0,-14.371 -11.59,-26.047 -26.05,-26.047 -14.37,0 -26.04,11.676 -26.04,26.047 0,14.457 11.67,26.043 26.04,26.043 z m 0,-58.285 c 17.79,0 32.33,14.461 32.33,32.242 0,17.781 -14.54,32.328 -32.33,32.328 -17.78,0 -32.24,-14.547 -32.24,-32.328 0,-17.781 14.46,-32.242 32.24,-32.242" /><path
         id="path34"
         style="fill:#43b53b;fill-opacity:1;fill-rule:nonzero;stroke:none"
         d="m 125.527,158.422 0.051,2.484 c 0.414,19.649 1.977,39.149 4.684,57.961 l 0.254,1.77 -1.668,0.679 c -17.871,7.305 -35.4574,15.782 -52.2699,25.219 l -2.1172,1.184 -1.0742,-2.16 C 62.3164,223.238 52.9844,199.707 45.6836,175.602 l -0.7031,-2.254 2.2812,-0.629 C 72.0234,165.91 97.5195,161.184 123.051,158.66 l 2.476,-0.238" /><path
         id="path36"
         style="fill:#43b53b;fill-opacity:1;fill-rule:nonzero;stroke:none"
         d="m 177.781,500.941 c 0.032,0.196 0.063,0.395 0.094,0.59 -14.668,-0.258 -29.324,-1.265 -43.926,-2.965 1.891,-14.777 4.481,-29.437 7.828,-43.925 10.02,16.949 22.121,32.511 36.004,46.3" /><path
         id="path38"
         style="fill:#43b53b;fill-opacity:1;fill-rule:nonzero;stroke:none"
         d="m 125.527,140.855 -0.039,2.051 -2.043,0.199 c -21.406,2.02 -43.2223,5.661 -64.8278,10.821 l -5.668,1.355 3.211,-4.855 C 75.5742,121.098 99.3125,95.0195 126.73,72.9258 l 4.43,-3.5899 -0.719,5.668 c -2.906,22.6719 -4.554,44.8321 -4.914,65.8511" /><path
         id="path40"
         style="fill:#43b53b;fill-opacity:1;fill-rule:nonzero;stroke:none"
         d="m 230.566,657.227 c -26.32,-9.008 -51.164,-21.161 -74.101,-36.036 17.359,-3.07 34.469,-7.097 51.273,-12.027 6.696,16.375 14.297,32.426 22.828,48.063" /><path
         id="path42"
         style="fill:#43b53b;fill-opacity:1;fill-rule:nonzero;stroke:none"
         d="m 339.918,675.43 c -13.023,0 -25.848,-0.813 -38.488,-2.25 17.925,-12.489 35.066,-26.145 51.238,-41.051 l 13.43,-12.391 -13.168,-12.672 c -10.899,-10.488 -21.559,-21.898 -31.688,-33.918 l -0.512,-0.585 c -0.117,-0.125 -2.003,-2.219 -5.152,-6.055 8,0.84 16.117,1.293 24.34,1.293 127.07,0 230.086,-103.016 230.086,-230.086 0,-127.074 -103.016,-230.086 -230.086,-230.086 -44.094,0 -85.277,12.426 -120.277,33.934 -17.27,-1.918 -34.629,-2.922 -52.012,-2.922 -8.074,0 -16.152,0.211 -24.227,0.629 0.524,-26.172 3.016,-53.3052 7.477,-81.438 C 204.82,21.3242 269.879,0 339.918,0 c 186.516,0 337.715,151.199 337.715,337.715 0,186.512 -151.199,337.715 -337.715,337.715" /><path
         id="path44"
         style="fill:#43b53b;fill-opacity:1;fill-rule:nonzero;stroke:none"
         d="m 295.145,595.602 c 6.726,7.968 13.671,15.695 20.765,23.101 -15.824,13.469 -32.531,25.758 -50.004,36.856 -10.742,-18.161 -20.09,-36.977 -28.093,-56.282 15.195,-5.574 30.066,-11.953 44.589,-19.031 6.711,8.617 11.399,13.883 12.743,15.356" /><path
         id="path46"
         style="fill:#43b53b;fill-opacity:1;fill-rule:nonzero;stroke:none"
         d="m 65.9219,402.934 1.289,-2.09 2.0118,1.433 c 15.6289,11.235 32.0823,21.594 48.9103,30.789 l 1.582,0.864 -0.449,1.738 c -5.028,19.227 -8.868,39.055 -11.414,58.941 l -0.305,2.399 -2.387,-0.434 C 80.168,492.027 55.4609,485.344 31.7383,476.703 l -2.2227,-0.816 0.8789,-2.188 c 9.7422,-24.562 21.6914,-48.363 35.5274,-70.765" /><path
         id="path48"
         style="fill:#43b53b;fill-opacity:1;fill-rule:nonzero;stroke:none"
         d="M 62.0469,370.18 60.125,368.629 C 41.9492,353.844 24.7266,337.414 8.93359,319.797 L 7.375,318.066 9.13281,316.531 C 26.6641,301.188 45.5547,287.094 65.2734,274.645 l 2.0274,-1.293 1.2031,2.097 c 8.8828,15.781 18.8945,31.356 29.7695,46.278 l 1.0938,1.503 -1.2383,1.383 c -12.3281,13.746 -23.9883,28.395 -34.668,43.547 l -1.414,2.02" /><path
         id="path50"
         style="fill:#43b53b;fill-opacity:1;fill-rule:nonzero;stroke:none"
         d="m 194.48,157.273 5.868,0.348 -4.559,3.723 c -17.976,14.715 -33.625,32.09 -46.453,51.656 l -0.106,0.621 -3.75,1.649 -0.433,-3.184 c -2.262,-16.856 -3.586,-34.566 -3.945,-52.625 l -0.039,-2.215 2.207,-0.129 c 8.003,-0.429 16.078,-0.644 24.171,-0.644 9.004,0 18.032,0.269 27.039,0.8" /><path
         id="path52"
         style="fill:#43b53b;fill-opacity:1;fill-rule:nonzero;stroke:none"
         d="m 183.219,530.238 c 3.633,16.649 8.109,33.121 13.511,49.317 -21.125,6.078 -42.769,10.617 -64.789,13.523 -1.867,-22.047 -2.082,-44.082 -0.707,-65.941 17.278,1.988 34.629,3.011 51.985,3.101" /><path
         id="path54"
         style="fill:#43b53b;fill-opacity:1;fill-rule:nonzero;stroke:none"
         d="m 215.813,531.414 c 14.707,9.441 30.539,17.266 47.281,23.195 -11.875,5.59 -24,10.661 -36.348,15.184 -4.219,-12.633 -7.863,-25.441 -10.933,-38.379" /><path
         id="path56"
         style="fill:#43b53b;fill-opacity:1;fill-rule:nonzero;stroke:none"
         d="m 58.6914,257.121 -1.7773,1.113 C 39.4922,269.16 22.6055,281.363 6.74609,294.496 l -4.51953,3.742 0.76953,-5.812 C 7.30078,260.039 16.2734,228.496 29.6406,198.684 l 2.3672,-5.278 1.9024,5.465 c 6.6406,19.125 14.6601,38.102 23.8281,56.387 l 0.9531,1.863" /><path
         id="path58"
         style="fill:#43b53b;fill-opacity:1;fill-rule:nonzero;stroke:none"
         d="M 102.133,577.48 C 81.9766,557.492 64.3555,534.969 49.7266,510.445 c 17.4804,5.215 35.1836,9.371 53.0194,12.528 -1.23,18.082 -1.465,36.273 -0.613,54.507" /><path
         id="path60"
         style="fill:#43b53b;fill-opacity:1;fill-rule:nonzero;stroke:none"
         d="m 112.121,340.762 0.234,5.824 c 0.79,20.598 4.309,40.855 10.461,60.195 l 1.793,5.653 -5.129,-2.961 c -13.152,-7.59 -26.1792,-16.012 -38.7222,-25.047 l -1.8281,-1.328 1.293,-1.86 c 8.6992,-12.406 18.1562,-24.535 28.0973,-36.062 l 3.801,-4.414" /><path
         id="path62"
         style="fill:#43b53b;fill-opacity:1;fill-rule:nonzero;stroke:none"
         d="m 114.383,305.906 -0.805,5.707 -3.34,-4.691 C 100.836,293.727 92.082,279.945 84.2227,265.961 l -1.1133,-1.992 1.9922,-1.133 c 14.1562,-7.984 29.0114,-15.305 44.1564,-21.762 l 5.402,-2.316 -2.406,5.363 c -8.863,19.668 -14.875,40.453 -17.871,61.785" /><path
         id="path64"
         style="fill:#43b53b;fill-opacity:1;fill-rule:nonzero;stroke:none"
         d="m 48.6602,386.676 1.5976,1.273 -1.0781,1.735 c -10.5859,16.918 -20.1836,34.707 -28.5469,52.867 l -2.457,5.355 -1.8125,-5.605 C 6.51172,411.789 1.05859,379.887 0.160156,347.473 L 0,341.523 4.10938,345.82 c 14.01172,14.598 28.99612,28.34 44.55082,40.856" /></g></g></svg>