<svg id="Layer_1" data-name="Layer 1" xmlns="http://www.w3.org/2000/svg" width="930.84" height="267.43" viewBox="0 0 930.84 267.43"><defs><style>.cls-1{fill:#5e5e5e;}.cls-2{fill:#1db100;}</style></defs><title>bodo-grey-green</title><path class="cls-1" d="M85.73,93a83.24,83.24,0,0,1,33.14,6.64,85.67,85.67,0,0,1,0,158.11,83.45,83.45,0,0,1-33.14,6.67,83.06,83.06,0,0,1-33.34-6.67A87.46,87.46,0,0,1,6.67,212,83.23,83.23,0,0,1,0,178.67V11.44A10.82,10.82,0,0,1,3.43,3.25a11.3,11.3,0,0,1,8-3.24,10.66,10.66,0,0,1,7.81,3.24,11,11,0,0,1,3.24,8.19V121.17a85.33,85.33,0,0,1,23.24-17.91,86.89,86.89,0,0,1,19.47-7.64A81.71,81.71,0,0,1,85.77,93m0,149a62.21,62.21,0,0,0,24.57-5,63.2,63.2,0,0,0,33.72-33.53,64,64,0,0,0,0-49.34,62.65,62.65,0,0,0-33.72-33.72,63.48,63.48,0,0,0-49.15,0,62.72,62.72,0,0,0-33.72,33.72,64,64,0,0,0,0,49.34A63.25,63.25,0,0,0,61.19,237,62.19,62.19,0,0,0,85.77,242"/><path class="cls-1" d="M264.79,264.43a83.15,83.15,0,0,1-33.33-6.67,88.56,88.56,0,0,1-27.27-18.29,84.93,84.93,0,0,1-18.48-27.05,85.76,85.76,0,1,1,158.12,0,84.61,84.61,0,0,1-18.48,27.05,87.75,87.75,0,0,1-27.43,18.29,83.53,83.53,0,0,1-33.15,6.67m0-148.59a61.81,61.81,0,0,0-24.58,5,62.65,62.65,0,0,0-33.72,33.72,63.48,63.48,0,0,0,0,49.15,62.72,62.72,0,0,0,33.72,33.72,63.48,63.48,0,0,0,49.15,0,62.74,62.74,0,0,0,33.75-33.76,63.48,63.48,0,0,0,0-49.15,62.65,62.65,0,0,0-33.72-33.72,62,62,0,0,0-24.58-5"/><path class="cls-1" d="M443.48,93a85.82,85.82,0,0,1,63.24,28.19V11.06A10.66,10.66,0,0,1,510,3.25,11.31,11.31,0,0,1,529.19,11V178.7A83.06,83.06,0,0,1,522.52,212,85.76,85.76,0,1,1,410.19,99.62,82.89,82.89,0,0,1,443.53,93m63.24,85.72a61.86,61.86,0,0,0-4.95-24.57,62.65,62.65,0,0,0-33.72-33.72,63.48,63.48,0,0,0-49.15,0,62.74,62.74,0,0,0-33.76,33.75,64,64,0,0,0,0,49.34,63.39,63.39,0,0,0,116.59,0,61.48,61.48,0,0,0,5-24.77"/><path class="cls-1" d="M622.94,264.43a83.06,83.06,0,0,1-33.34-6.67,88.6,88.6,0,0,1-27.24-18.29,84.77,84.77,0,0,1-18.48-27.05,85.76,85.76,0,1,1,158.11,0,84.42,84.42,0,0,1-18.47,27.05,87.91,87.91,0,0,1-27.44,18.29,83.45,83.45,0,0,1-33.14,6.67m0-148.59a62,62,0,0,0-24.58,5,62.72,62.72,0,0,0-33.72,33.72,63.48,63.48,0,0,0,0,49.15,62.78,62.78,0,0,0,33.72,33.72,63.48,63.48,0,0,0,49.15,0,62.72,62.72,0,0,0,33.68-33.76,63.48,63.48,0,0,0,0-49.15,62.65,62.65,0,0,0-33.72-33.72,61.86,61.86,0,0,0-24.57-5"/><path class="cls-2" d="M850.77,254.14a86.3,86.3,0,0,1-19.24,7.62,81.2,81.2,0,0,1-20.76,2.67,83.23,83.23,0,0,1-33.34-6.67A87.46,87.46,0,0,1,731.71,212a85.77,85.77,0,1,1,158.12-66.51,83.44,83.44,0,0,1,6.66,33.14V253a11.31,11.31,0,0,1-3.23,8,10.84,10.84,0,0,1-8.2,3.43,10.38,10.38,0,0,1-7.81-3.43,11.34,11.34,0,0,1-3.24-8V236.23a81.85,81.85,0,0,1-23.24,17.91M747.52,178.7A63.44,63.44,0,0,0,786.19,237a63.45,63.45,0,0,0,49.14,0,62.65,62.65,0,0,0,33.72-33.72,63.48,63.48,0,0,0,0-49.15,62.59,62.59,0,0,0-33.72-33.72,63.45,63.45,0,0,0-49.14,0,63.4,63.4,0,0,0-38.72,58.29"/><path class="cls-2" d="M919.35,78.12a11.07,11.07,0,0,1-11-11V62.93a11.33,11.33,0,0,1,3.24-8,10.31,10.31,0,0,1,7.81-3.43,11.71,11.71,0,0,1,11.43,11.43v4.19a10.31,10.31,0,0,1-3.43,7.81,11.31,11.31,0,0,1-8,3.24m0,186.31a10.68,10.68,0,0,1-7.81-3.24,11.14,11.14,0,0,1-3.24-8.19V104.41a11.12,11.12,0,0,1,3.24-8.19A10.6,10.6,0,0,1,919.4,93a11.22,11.22,0,0,1,8,3.24,10.75,10.75,0,0,1,3.43,8.19V253a10.76,10.76,0,0,1-3.43,8.19,11.31,11.31,0,0,1-8,3.24"/><path class="cls-2" d="M731.81,234.54a19.27,19.27,0,1,1-27.25,0h0a19.26,19.26,0,0,1,27.25,0"/></svg>