<?xml version="1.0" encoding="UTF-8"?>
<svg width="112px" height="62px" viewBox="0 0 112 62" version="1.1" xmlns="http://www.w3.org/2000/svg" xmlns:xlink="http://www.w3.org/1999/xlink">
    <!-- Generator: Sketch 52.2 (67145) - http://www.bohemiancoding.com/sketch -->
    <title>Group</title>
    <desc>Created with Sketch.</desc>
    <g id="Symbols" stroke="none" stroke-width="1" fill="none" fill-rule="evenodd">
        <g id="nav-elements-/-czi_logo_nav_dark" transform="translate(-48.000000, -17.000000)">
            <g id="Group" transform="translate(48.000000, 17.000000)">
                <path d="M13.118,16.05056 C11.6721111,16.69381 10.2262222,17.047985 8.20166667,17.047985 C3.64077778,17.047985 0.370222222,14.43236 0.370222222,9.79941 C0.370222222,5.565585 3.64077778,2.26176 8.15733333,2.26176 C9.38077778,2.26176 10.6928889,2.550835 11.627,2.949185 L12.3837778,2.195885 L13.0293333,2.195885 L13.2961111,7.62631 L12.4724444,7.67126 C11.0047778,4.545685 9.73622222,3.34831 7.93411111,3.34831 C5.70966667,3.34831 4.04133333,5.410585 4.04133333,9.466935 C4.04133333,13.678285 6.11022222,15.851385 8.869,15.851385 C9.44688889,15.851385 9.80311111,15.784735 10.3366667,15.60726 L12.9624444,12.260035 L13.5628889,12.348385 L13.118,16.05056 Z" id="Fill-1" fill="#231F20"/>
                <path d="M21.1942889,8.26987 C20.3931778,8.26987 19.9039556,8.469045 19.1254,8.890645 L19.1254,15.585095 L20.3262889,16.07257 L20.3262889,16.715045 L14.7869556,16.715045 L14.7869556,16.07257 L16.2110667,15.585095 L16.2110667,2.83867 L14.6757333,1.907895 L14.6757333,1.331295 L18.7022889,0.289695 L19.1254,0.533045 L19.1254,7.959095 L19.3696222,8.00327 C20.3931778,7.09497 21.5948444,6.36337 22.9746222,6.36337 C24.8428444,6.36337 25.8220667,7.582445 25.8220667,9.39982 L25.8220667,15.585095 L27.2454,16.07257 L27.2454,16.715045 L21.7060667,16.715045 L21.7060667,16.07257 L22.9077333,15.585095 L22.9077333,10.375545 C22.9077333,9.08982 22.4402889,8.26987 21.1942889,8.26987" id="Fill-3" fill="#231F20"/>
                <path d="M33.6751333,11.7944925 C31.2943556,11.8828425 30.4271333,12.7035675 30.4271333,13.8118175 C30.4271333,14.8309425 31.0058,15.3858425 32.0285778,15.3858425 C32.4742444,15.3858425 33.0746889,15.1858925 33.6751333,14.8092425 L33.6751333,11.7944925 Z M36.4339111,14.6092925 C36.4339111,15.3633675 36.7675778,15.8291425 38.0579111,15.8508425 L38.1022444,16.4274425 C37.4574667,16.6707925 36.4782444,16.9373925 35.6110222,16.9373925 C34.5874667,16.9373925 34.0088,16.5157925 33.8306889,15.4741925 L33.5639111,15.4300175 C32.5629111,16.3607925 31.6062444,16.9149175 30.4271333,16.9149175 C28.8256889,16.9149175 27.7126889,16.0507925 27.7126889,14.5209425 C27.7126889,12.6369175 29.6711333,11.3511925 33.6751333,11.0628925 L33.6751333,9.8438175 C33.6751333,8.1806675 33.0078,7.6265425 31.3394667,7.6265425 C30.8945778,7.6265425 30.4940222,7.7156675 30.2046889,7.8264925 C30.6052444,8.1589675 30.8276889,8.5356175 30.8276889,9.0230925 C30.8276889,9.7322175 30.3376889,10.2871175 29.4930222,10.2871175 C28.6919111,10.2871175 28.0914667,9.6663425 28.0914667,8.9347425 C28.0914667,7.4048925 30.5383556,6.3632925 32.8740222,6.3632925 C35.2991333,6.3632925 36.4339111,7.2723675 36.4339111,9.4446925 L36.4339111,14.6092925 Z" id="Fill-5" fill="#231F20"/>
                <path d="M49.1152667,15.585095 L50.5168222,16.07257 L50.5168222,16.715045 L44.9992667,16.715045 L44.9992667,16.07257 L46.2009333,15.585095 L46.2009333,10.375545 C46.2009333,9.067345 45.7334889,8.26987 44.5100444,8.26987 C43.7532667,8.26987 43.2640444,8.49152 42.5080444,8.890645 L42.5080444,15.585095 L43.6871556,16.07257 L43.6871556,16.715045 L38.1696,16.715045 L38.1696,16.07257 L39.5937111,15.585095 L39.5937111,8.690695 L38.1921556,7.75992 L38.1921556,7.18332 L41.9962667,6.29672 L42.4186,6.562545 L42.2630444,8.15827 L42.5298222,8.20322 C43.8870444,6.96167 45.0443778,6.36337 46.2678222,6.36337 C48.0917111,6.36337 49.1152667,7.515795 49.1152667,9.400595 L49.1152667,15.585095 Z" id="Fill-7" fill="#231F20"/>
                <path d="M12.5395667,38.507425 L0.148011111,38.507425 L0.0593444444,37.9533 L8.9579,25.583525 L5.55434444,25.6277 C4.33012222,25.6277 3.77401111,26.026825 2.81734444,27.268375 L1.39323333,29.041575 L0.8379,28.90905 L1.26023333,24.386925 L12.8957889,24.386925 L12.9844556,24.94105 L4.15201111,37.332525 L8.37923333,37.28835 C9.53656667,37.28835 10.0926778,36.822575 10.8261222,35.7585 L12.4726778,33.364525 L12.9844556,33.45365 L12.5395667,38.507425 Z" id="Fill-9" fill="#231F20"/>
                <path d="M25.5768333,37.4432725 L25.5768333,37.9973975 L21.7501667,38.8839975 L21.3278333,38.6398725 L21.4833889,37.0441475 L21.2166111,36.9999725 C19.8593889,38.2415225 18.7689444,38.8398225 17.4786111,38.8398225 C15.6103889,38.8398225 14.6311667,37.5757975 14.6311667,35.7801225 L14.6311667,30.4163475 L13.2521667,29.5072725 L13.2521667,28.9756225 L17.1449444,28.0882475 L17.5455,28.3540725 L17.5455,34.7826975 C17.5455,36.1575475 18.0347222,36.9108475 19.2363889,36.9108475 C19.9923889,36.9108475 20.4823889,36.7116725 21.2383889,36.3125475 L21.2383889,30.4163475 L19.8368333,29.5072725 L19.8368333,28.9756225 L23.7303889,28.0882475 L24.1527222,28.3540725 L24.1527222,36.6233225 L25.5768333,37.4432725 Z" id="Fill-11" fill="#231F20"/>
                <path d="M34.0978556,32.12313 C33.0968556,32.12313 32.5181889,31.39153 32.5181889,30.394105 C32.5181889,29.972505 32.6068556,29.57338 32.7631889,29.219205 C32.6294111,29.19673 32.5181889,29.17503 32.3626333,29.17503 C30.7160778,29.240905 29.2701889,30.65993 29.2701889,33.342205 C29.2701889,35.80283 30.7829667,37.088555 32.8075222,37.088555 C33.7198556,37.088555 34.3428556,36.888605 35.3881889,36.490255 L35.6106333,37.021905 C34.3646333,38.28593 32.9630778,38.861755 31.4277444,38.861755 C28.5585222,38.861755 26.2671889,36.800255 26.2671889,33.74133 C26.2671889,30.637455 28.6915222,28.15513 32.0071889,28.15513 C34.2090778,28.15513 35.5888556,29.219205 35.5888556,30.52663 C35.5888556,31.435705 34.9658556,32.12313 34.0978556,32.12313" id="Fill-13" fill="#231F20"/>
                <polygon id="Fill-15" fill="#231F20" points="46.8457111 37.39902 47.9136 37.864795 47.9136 38.50727 42.9303778 38.50727 42.9303778 37.931445 43.7532667 37.509845 41.1726 34.00762 40.3940444 34.00762 40.3940444 37.376545 41.5062667 37.864795 41.5062667 38.50727 36.0556 38.50727 36.0556 37.864795 37.4797111 37.376545 37.4797111 24.63012 35.9443778 23.699345 35.9443778 23.122745 39.9717111 22.081145 40.3940444 22.324495 40.3940444 32.831945 41.2394889 32.831945 43.9539333 29.795495 42.7297111 29.04142 42.7297111 28.487295 47.4461556 28.487295 47.4461556 29.152245 46.0671556 29.68467 42.9972667 32.41112"/>
                <path d="M54.8996,32.38911 C54.8778222,30.12766 54.2991556,29.063585 53.0531556,29.063585 C51.8297111,29.063585 50.9617111,30.371785 50.8730444,32.588285 L54.8996,32.38911 Z M50.8504889,33.386535 C50.8730444,35.802985 51.9183778,37.15536 54.1653778,37.15536 C55.1889333,37.15536 56.0787111,36.95541 57.3916,36.467935 L57.6366,36.977885 C56.2568222,38.107835 54.6102667,38.86191 53.1418222,38.86191 C49.9607111,38.86191 47.9361556,36.77871 47.9361556,33.696535 C47.9361556,30.50431 50.4499333,28.155285 53.2312667,28.155285 C56.5687111,28.155285 57.8582667,30.57096 57.7470444,33.386535 L50.8504889,33.386535 Z" id="Fill-17" fill="#231F20"/>
                <path d="M66.0904222,31.657665 C65.2224222,31.657665 64.6888667,31.014415 64.5776444,30.261115 C63.8659778,30.416115 63.3090889,30.88189 62.8198667,31.524365 L62.8198667,37.37639 L64.3995333,37.86464 L64.3995333,38.507115 L58.4822,38.507115 L58.4822,37.86464 L59.9055333,37.37639 L59.9055333,30.482765 L58.5039778,29.55199 L58.5039778,28.97539 L62.3088667,28.08879 L62.7312,28.354615 L62.4862,30.482765 L62.7529778,30.549415 C63.6653111,29.04204 64.5776444,28.132965 65.8905333,28.132965 C66.9358667,28.132965 67.6926444,28.82039 67.6926444,29.88369 C67.6926444,30.90359 67.0027556,31.657665 66.0904222,31.657665" id="Fill-19" fill="#231F20"/>
                <path d="M73.4766667,30.0172225 C72.9205556,30.0172225 72.4087778,30.1722225 71.9413333,30.3496975 L71.9413333,36.7783225 C72.4974444,37.4874475 73.1204444,37.8423975 73.9884444,37.8423975 C75.1675556,37.8423975 76.2128889,36.7116725 76.2128889,33.8960975 C76.2128889,31.2587725 75.2118889,30.0172225 73.4766667,30.0172225 M73.4097778,38.8622975 C72.1194444,38.8622975 70.3624444,38.5739975 69.027,38.1531725 L69.027,24.6301975 L67.4698889,23.6994225 L67.4698889,23.1228225 L71.519,22.0812225 L71.9413333,22.3245725 L71.9413333,29.4630975 L72.2088889,29.5072725 C73.1204444,28.6873225 74.0327778,28.1548975 75.3005556,28.1548975 C77.392,28.1548975 79.2827778,30.0830975 79.2827778,33.2094475 C79.2827778,36.1800225 77.0583333,38.8622975 73.4097778,38.8622975" id="Fill-21" fill="#231F20"/>
                <path d="M87.4482,32.38911 C87.4256444,30.12766 86.8477556,29.063585 85.6009778,29.063585 C84.3783111,29.063585 83.5103111,30.371785 83.4216444,32.588285 L87.4482,32.38911 Z M83.3990889,33.386535 C83.4216444,35.802985 84.4669778,37.15536 86.7139778,37.15536 C87.7375333,37.15536 88.6273111,36.95541 89.9394222,36.467935 L90.1844222,36.977885 C88.8054222,38.107835 87.1588667,38.86191 85.6904222,38.86191 C82.5093111,38.86191 80.4847556,36.77871 80.4847556,33.696535 C80.4847556,30.50431 82.9985333,28.155285 85.7790889,28.155285 C89.1165333,28.155285 90.4068667,30.57096 90.2956444,33.386535 L83.3990889,33.386535 Z" id="Fill-23" fill="#231F20"/>
                <path d="M98.6386333,31.657665 C97.7714111,31.657665 97.2370778,31.014415 97.1258556,30.261115 C96.4141889,30.416115 95.8580778,30.88189 95.3680778,31.524365 L95.3680778,37.37639 L96.9477444,37.86464 L96.9477444,38.507115 L91.0304111,38.507115 L91.0304111,37.86464 L92.4537444,37.37639 L92.4537444,30.482765 L91.0529667,29.55199 L91.0529667,28.97539 L94.8570778,28.08879 L95.2794111,28.354615 L95.0344111,30.482765 L95.3011889,30.549415 C96.2135222,29.04204 97.1258556,28.132965 98.4387444,28.132965 C99.4840778,28.132965 100.240856,28.82039 100.240856,29.88369 C100.240856,30.90359 99.5509667,31.657665 98.6386333,31.657665" id="Fill-25" fill="#231F20"/>
                <path d="M105.268333,28.93075 C104.267333,28.93075 103.555667,29.574 103.555667,31.5022 C103.555667,33.519525 104.245556,34.07365 105.379556,34.07365 C106.380556,34.07365 107.026111,33.164575 107.026111,31.41385 C107.026111,29.773175 106.403111,28.93075 105.268333,28.93075 M106.580444,38.8399 L102.999556,38.795725 C102.710222,39.172375 102.509556,39.65985 102.509556,40.258925 C102.509556,41.41135 103.466222,42.2096 105.757556,42.2096 C107.604,42.2096 109.050667,41.300525 109.050667,40.23645 C109.050667,39.2615 108.293889,38.8616 106.580444,38.8399 M105.335222,34.849425 C104.578444,34.849425 104.111778,34.782775 103.711222,34.65025 C103.488778,34.937775 103.288889,35.337675 103.288889,35.6252 C103.288889,36.1801 103.688667,36.445925 104.756556,36.467625 L107.492778,36.5118 C109.806667,36.55675 111.008333,37.44335 111.008333,39.105725 C111.008333,41.27805 108.627556,43.1179 104.979,43.1179 C101.642333,43.1179 100.107,42.14295 100.107,40.857225 C100.107,40.037275 100.796889,39.2832 102.265333,38.729075 L102.242778,38.507425 C101.353,38.219125 100.952444,37.665 100.952444,37.044225 C100.952444,36.312625 101.575444,35.51515 102.887556,34.49525 L102.887556,34.36195 C101.709222,33.78535 100.885556,32.76545 100.885556,31.5022 C100.885556,29.4407 102.843222,28.154975 105.379556,28.154975 C106.870556,28.154975 107.804667,28.5541 108.583222,29.108225 L110.295889,28.154975 L111.564444,28.154975 L111.564444,30.083175 L111.119556,30.083175 L109.273111,29.729 L109.228,29.906475 C109.495556,30.371475 109.695444,30.859725 109.695444,31.56885 C109.695444,33.452875 108.027111,34.849425 105.335222,34.849425" id="Fill-27" fill="#231F20"/>
                <polygon id="Fill-29" fill="#231F20" points="7.8232 59.5675075 7.8232 60.2991075 0.236755556 60.2991075 0.236755556 59.5675075 2.37253333 59.0800325 2.37253333 47.3976825 0.236755556 46.9094325 0.236755556 46.1786075 7.8232 46.1786075 7.8232 46.9094325 5.70997778 47.3976825 5.70997778 59.0800325"/>
                <path d="M19.7256889,59.168615 L21.1272444,59.65609 L21.1272444,60.298565 L15.6096889,60.298565 L15.6096889,59.65609 L16.8113556,59.168615 L16.8113556,53.959065 C16.8113556,52.650865 16.3439111,51.85339 15.1204667,51.85339 C14.3636889,51.85339 13.8752444,52.07504 13.1184667,52.47339 L13.1184667,59.168615 L14.2975778,59.65609 L14.2975778,60.298565 L8.78002222,60.298565 L8.78002222,59.65609 L10.2041333,59.168615 L10.2041333,52.274215 L8.80257778,51.34344 L8.80257778,50.76684 L12.6066889,49.88024 L13.0298,50.146065 L12.8734667,51.74179 L13.1410222,51.78674 C14.4974667,50.54519 15.6548,49.94689 16.8782444,49.94689 C18.7021333,49.94689 19.7256889,51.099315 19.7256889,52.984115 L19.7256889,59.168615 Z" id="Fill-31" fill="#231F20"/>
                <path d="M24.3088222,44.1832925 C25.3767111,44.1832925 26.1334889,44.9590675 26.1334889,45.9789675 C26.1334889,46.9763925 25.3323778,47.8846925 24.2201556,47.8846925 C23.1966,47.8846925 22.4180444,47.1313925 22.4180444,46.1114925 C22.4180444,45.1140675 23.2191556,44.1832925 24.3088222,44.1832925 Z M21.4388222,51.3435175 L21.4388222,50.7669175 L25.3767111,49.8803175 L25.7547111,50.1019675 L25.7547111,59.1686925 L27.1344889,59.6561675 L27.1344889,60.2986425 L21.3727111,60.2986425 L21.3727111,59.6561675 L22.8403778,59.1686925 L22.8403778,52.2742925 L21.4388222,51.3435175 Z" id="Fill-33" fill="#231F20"/>
                <path d="M31.5837667,60.58733 C29.8259889,60.58733 28.9362111,59.744905 28.9362111,57.94923 L28.9362111,51.720555 L27.2235444,51.720555 L27.2235444,51.12148 L29.3811,49.63658 L31.0276556,47.13178 L31.8505444,47.13178 L31.8505444,50.23488 L35.2323222,50.23488 L35.2323222,51.720555 L31.8505444,51.720555 L31.8505444,56.906855 C31.8505444,57.838405 31.9843222,58.326655 32.4292111,58.636655 C32.8297667,58.90248 33.2521,58.96913 33.9863222,58.96913 C34.3425444,58.96913 34.8092111,58.946655 35.2766556,58.90248 L35.2992111,59.589905 C34.4755444,60.099855 32.8958778,60.58733 31.5837667,60.58733" id="Fill-35" fill="#231F20"/>
                <path d="M38.4804778,44.1832925 C39.5483667,44.1832925 40.3051444,44.9590675 40.3051444,45.9789675 C40.3051444,46.9763925 39.5040333,47.8846925 38.3918111,47.8846925 C37.3682556,47.8846925 36.5897,47.1313925 36.5897,46.1114925 C36.5897,45.1140675 37.3908111,44.1832925 38.4804778,44.1832925 Z M35.6104778,51.3435175 L35.6104778,50.7669175 L39.5483667,49.8803175 L39.9263667,50.1019675 L39.9263667,59.1686925 L41.3061444,59.6561675 L41.3061444,60.2986425 L35.5443667,60.2986425 L35.5443667,59.6561675 L37.0120333,59.1686925 L37.0120333,52.2742925 L35.6104778,51.3435175 Z" id="Fill-37" fill="#231F20"/>
                <path d="M47.9577,55.3780125 C45.5769222,55.4663625 44.7097,56.2863125 44.7097,57.3953375 C44.7097,58.4144625 45.2883667,58.9693625 46.3111444,58.9693625 C46.7568111,58.9693625 47.3572556,58.7694125 47.9577,58.3927625 L47.9577,55.3780125 Z M50.7164778,58.1928125 C50.7164778,58.9468875 51.0501444,59.4126625 52.3404778,59.4343625 L52.3848111,60.0109625 C51.7400333,60.2543125 50.7608111,60.5209125 49.8935889,60.5209125 C48.8700333,60.5209125 48.2913667,60.0993125 48.1132556,59.0577125 L47.8464778,59.0135375 C46.8454778,59.9443125 45.8888111,60.4984375 44.7097,60.4984375 C43.1082556,60.4984375 41.9952556,59.6343125 41.9952556,58.1044625 C41.9952556,56.2204375 43.9537,54.9347125 47.9577,54.6464125 L47.9577,53.4273375 C47.9577,51.7641875 47.2903667,51.2100625 45.6220333,51.2100625 C45.1771444,51.2100625 44.7765889,51.2991875 44.4872556,51.4100125 C44.8878111,51.7424875 45.1102556,52.1191375 45.1102556,52.6066125 C45.1102556,53.3157375 44.6202556,53.8706375 43.7755889,53.8706375 C42.9744778,53.8706375 42.3740333,53.2498625 42.3740333,52.5182625 C42.3740333,50.9884125 44.8209222,49.9468125 47.1565889,49.9468125 C49.5817,49.9468125 50.7164778,50.8558875 50.7164778,53.0282125 L50.7164778,58.1928125 Z" id="Fill-39" fill="#231F20"/>
                <path d="M56.4567111,60.58733 C54.6989333,60.58733 53.8091556,59.744905 53.8091556,57.94923 L53.8091556,51.720555 L52.0964889,51.720555 L52.0964889,51.12148 L54.2540444,49.63658 L55.9006,47.13178 L56.7234889,47.13178 L56.7234889,50.23488 L60.1052667,50.23488 L60.1052667,51.720555 L56.7234889,51.720555 L56.7234889,56.906855 C56.7234889,57.838405 56.8572667,58.326655 57.3021556,58.636655 C57.7027111,58.90248 58.1250444,58.96913 58.8592667,58.96913 C59.2154889,58.96913 59.6821556,58.946655 60.1496,58.90248 L60.1721556,59.589905 C59.3484889,60.099855 57.7688222,60.58733 56.4567111,60.58733" id="Fill-41" fill="#231F20"/>
                <path d="M63.3534222,44.1832925 C64.4213111,44.1832925 65.1780889,44.9590675 65.1780889,45.9789675 C65.1780889,46.9763925 64.3769778,47.8846925 63.2647556,47.8846925 C62.2412,47.8846925 61.4626444,47.1313925 61.4626444,46.1114925 C61.4626444,45.1140675 62.2637556,44.1832925 63.3534222,44.1832925 Z M60.4834222,51.3435175 L60.4834222,50.7669175 L64.4213111,49.8803175 L64.7993111,50.1019675 L64.7993111,59.1686925 L66.1790889,59.6561675 L66.1790889,60.2986425 L60.4173111,60.2986425 L60.4173111,59.6561675 L61.8849778,59.1686925 L61.8849778,52.2742925 L60.4834222,51.3435175 Z" id="Fill-43" fill="#231F20"/>
                <polygon id="Fill-45" fill="#231F20" points="72.8530444 57.3727075 72.9860444 57.3727075 74.0096 54.7570825 75.0774889 51.5873325 73.7871556 50.8999075 73.7871556 50.2791325 78.1924889 50.2791325 78.1924889 50.9448575 76.7014889 51.6756825 72.8748222 60.5432325 71.2290444 60.5432325 67.3129333 51.4765075 65.9564889 50.9448575 65.9564889 50.2791325 71.9407111 50.2791325 71.9407111 50.8999075 70.5617111 51.4315575"/>
                <path d="M85.2226667,54.180715 C85.2001111,51.92004 84.6222222,50.85519 83.3762222,50.85519 C82.1527778,50.85519 81.2847778,52.16339 81.1961111,54.37989 L85.2226667,54.180715 Z M81.1735556,55.17814 C81.1961111,57.59459 82.2414444,58.946965 84.4884444,58.946965 C85.512,58.946965 86.4017778,58.74779 87.7146667,58.25954 L87.9588889,58.76949 C86.5798889,59.900215 84.9333333,60.65429 83.4648889,60.65429 C80.2837778,60.65429 78.2592222,58.570315 78.2592222,55.48814 C78.2592222,52.29669 80.773,49.94689 83.5535556,49.94689 C86.891,49.94689 88.1813333,52.36334 88.0701111,55.17814 L81.1735556,55.17814 Z" id="Fill-47" fill="#231F20"/>
                <path d="M99.2454556,53.522275 C98.7523444,53.86405 98.1752333,54.07795 97.3725667,54.095 C96.4065667,54.11515 95.6809,53.4781 95.6140111,52.53725 C95.5782333,52.037375 95.7462333,51.5592 96.0876778,51.1934 C96.4299,50.826825 96.8957889,50.62145 97.3990111,50.617575 C97.6541222,50.61525 97.9232333,50.667175 98.1542333,50.766375 C98.1542333,50.766375 98.0912333,51.291825 98.0702333,51.5282 L98.8651222,51.53285 L99.0074556,50.3502 L98.7842333,50.20915 C98.3665667,49.9534 97.8851222,49.81855 97.3920111,49.8232 C96.6741222,49.8294 95.9842333,50.13165 95.4973444,50.653225 C95.0034556,51.18255 94.7600111,51.87075 94.8121222,52.592275 C94.8572333,53.232425 95.1341222,53.816775 95.5899,54.2376 C96.0511222,54.664625 96.6725667,54.894025 97.3445667,54.887825 C97.3609,54.887825 97.3772333,54.887825 97.3943444,54.88705 C97.8011222,54.876975 98.2600111,54.799475 98.7647889,54.6003 L99.3380111,53.491275 C99.3380111,53.491275 99.3263444,53.4657 99.2454556,53.522275" id="Fill-49" fill="#FF414C"/>
                <path d="M101.945278,56.363425 L101.848833,57.4523 L101.847278,57.4647 C101.808389,57.877 101.5875,58.226525 101.256167,58.4009 C100.993278,58.539625 100.7055,58.53885 100.4465,58.398575 C100.177389,58.252875 100.049056,58.03355 100.000833,57.756875 C99.9253889,57.318225 100.175833,56.860975 100.517278,56.630025 L105.846611,53.175075 C105.887056,53.468025 105.908056,53.7664 105.908056,54.069425 C105.908056,57.645275 102.991389,60.55385 99.4058333,60.55385 C95.8202778,60.55385 92.9028333,57.645275 92.9028333,54.069425 C92.9028333,50.49435 95.8202778,47.585 99.4058333,47.585 C102.086833,47.585 104.392944,49.2125 105.386167,51.5282 L106.036389,51.107375 C104.897722,48.5863 102.355167,46.8255 99.4058333,46.8255 C95.3971667,46.8255 92.1359444,50.075075 92.1359444,54.069425 C92.1359444,58.063775 95.3971667,61.31335 99.4058333,61.31335 C103.4145,61.31335 106.675722,58.063775 106.675722,54.069425 C106.675722,53.6083 106.631389,53.15725 106.548167,52.72015 C106.498389,52.434175 106.388722,52.054425 106.370056,51.9932 L104.8565,52.936375 L102.852167,54.201175 C102.781389,53.93535 102.619611,53.666425 102.277389,53.511425 C101.872167,53.32775 101.215722,53.469575 100.7335,53.742375 C100.7335,53.742375 102.053389,51.19805 102.271944,50.780325 C102.285944,50.752425 102.2665,50.72065 102.235389,50.72065 L102.1545,50.721425 L102.155278,50.719875 L99.7682778,50.719875 L99.6687222,51.54215 L100.042056,51.5406 L101.005722,51.5406 L99.1165,55.145125 C99.0799444,55.21565 99.1561667,55.290825 99.2269444,55.2544 L100.235722,54.720425 C100.721833,54.47165 101.532278,53.960925 101.932833,54.2562 C101.991167,54.298825 102.065833,54.41275 102.0705,54.531325 C102.072833,54.577825 102.0495,54.621225 102.010611,54.647575 L100.000056,56.0015 C99.3459444,56.4665 99.0908333,57.15935 99.1515,57.8119 C99.2020556,58.361375 99.5450556,58.834125 100.053722,59.110025 C100.321278,59.254175 100.609833,59.322375 100.897611,59.314625 C101.151167,59.30765 101.403944,59.241775 101.640389,59.117 C102.214389,58.815525 102.5955,58.228075 102.662389,57.546075 L102.824167,55.7132 L101.945278,56.363425 Z" id="Fill-51" fill="#FF414C"/>
            </g>
        </g>
    </g>
</svg>