<svg id="Ebene_1" data-name="Ebene 1" xmlns="http://www.w3.org/2000/svg" viewBox="0 0 343.18 104.19"><defs><style>.cls-1,.cls-2{fill:#003e52;}.cls-1{fill-rule:evenodd;}</style></defs><title>dfine_dunkelblau_cmyk</title><path class="cls-1" d="M138.15,438.72c0-12.41,3.4-30,16-30,11.38,0,15.37,16,15.37,30,0,12.57-3.39,30-15.37,30-13.59,0-16-17.14-16-30Zm31.33,34H181V370l-22.76,3.55v2.51c4.29.44,11.23.89,11.23,9.61v29h-.29c-2.07-4.13-7.69-11.38-17-11.38-20.54,0-27.19,17.44-27.19,35.47s6.65,35.47,27.19,35.47c8.28,0,15.67-6.94,17-10.93h.29v9.42Z" transform="translate(-125 -370)"/><polygon class="cls-2" points="67.52 39.71 67.52 35.67 155.01 35.67 155.01 39.71 67.52 39.71 67.52 39.71"/><path class="cls-1" d="M314.28,472.68V403.25l-22.77,3.55v2.51c4.44.3,11.24.74,11.24,9.61v53.76Z" transform="translate(-125 -370)"/><path class="cls-2" d="M466.26,466.77v4.73c-3.54,1.33-8.56,2.66-17.58,2.66-22.9,0-35.75-12.56-35.75-37.38,0-21.57,8.72-33.54,30-33.54,13.3,0,25.26,7.39,25.26,24.53V431h-43c0,12.41,6.06,37.67,30.73,37.67,3.4,0,7.39-.44,10.34-1.92Zm-41.07-40.63H455c0-7.83-2.66-18-14-18s-15.81,12.56-15.81,18ZM343.5,472.68V418.9c0-8.86-6.95-9.3-11.23-9.6v-2.51L355,403.24v19.5h.3c2.06-5.46,8.71-19.5,23.34-19.5,15.66,0,17.14,8.57,17.14,22.31v47.13H384.27V428.8c0-12.7-.14-18.47-9.89-18.47-8.72,0-19.36,16.7-19.36,30.73v31.62Z" transform="translate(-125 -370)"/><path class="cls-2" d="M248.56,401.63v-3.4c0-19.51,5.32-28.23,27.93-28.23,7.24,0,16.26,2.81,16.26,8.87a6.74,6.74,0,0,1-7.1,7.09c-9.31,0-4.87-11.08-14.33-11.08-11.23,0-11.23,9.9-11.23,21v5.77Zm11.53,71.05H248.55V413.75h11.53v58.93Z" transform="translate(-125 -370)"/><path class="cls-2" d="M301.07,381a7.47,7.47,0,1,1,7.47,7.47,7.47,7.47,0,0,1-7.47-7.47Z" transform="translate(-125 -370)"/></svg>