<?xml version="1.0" encoding="utf-8"?>
<!-- Generator: Adobe Illustrator 23.0.3, SVG Export Plug-In . SVG Version: 6.00 Build 0)  -->
<svg version="1.1" id="Layer_1" xmlns="http://www.w3.org/2000/svg" xmlns:xlink="http://www.w3.org/1999/xlink" x="0px" y="0px"
	 viewBox="0 0 359 270" style="enable-background:new 0 0 359 270;" xml:space="preserve">
<style type="text/css">
	.st0{fill-rule:evenodd;clip-rule:evenodd;fill:#404040;}
	.st1{filter:url(#Adobe_OpacityMaskFilter);}
	.st2{fill-rule:evenodd;clip-rule:evenodd;fill:#FFFFFF;}
	.st3{mask:url(#mask-2_1_);}
</style>
<title>HOME 1 Copy 8</title>
<desc>Created with Sketch.</desc>
<g id="HOME-1-Copy-8">
	<g id="Group" transform="translate(20.000000, 20.000000)">
		<path id="URSA-LABS-Copy" class="st0" d="M0,158.4h9.1V214c0,0.3,0,0.7,0.1,1.1c0,0.3,0,0.9,0.1,1.6s0.2,1.5,0.6,2.3
			c0.3,0.8,0.9,1.5,1.6,2.1c0.7,0.6,1.8,0.9,3.3,0.9c0.3,0,0.9,0,1.6-0.1c0.7-0.1,1.4-0.4,2.1-0.9c1-0.9,1.6-2,1.8-3.3
			s0.3-3.2,0.4-5.5v-53.8h9.2v54.4c0,0.6,0,1.3-0.1,2.1c-0.1,0.8-0.2,1.7-0.3,2.6s-0.3,1.8-0.5,2.6c-0.7,2.3-1.7,4.1-3,5.4
			c-1.3,1.3-2.7,2.3-4.2,2.9c-1.5,0.7-2.9,1.1-4.2,1.2c-1.3,0.1-2.3,0.2-3,0.2c-0.6,0-1.5-0.1-2.7-0.2c-1.2-0.1-2.5-0.5-3.8-1
			s-2.6-1.4-3.8-2.5c-1.2-1.1-2.2-2.7-3-4.6c-0.4-1-0.7-2.1-0.9-3.3c-0.2-1.2-0.3-2.9-0.4-5V158.4z M44,158.4h17
			c0.6,0,1.2,0,1.7,0.1c0.6,0.1,1.3,0.2,2.2,0.3c0.9,0.1,1.7,0.4,2.6,0.8c0.8,0.4,1.6,1.1,2.3,2c0.7,0.9,1.2,2.1,1.6,3.7
			c0.4,1.8,0.6,5.1,0.6,10.1c0,1.3,0,2.7-0.1,4.1c0,1.4-0.1,2.8-0.2,4.2c-0.1,0.9-0.3,1.9-0.4,2.9s-0.4,1.9-0.7,2.7
			c-0.4,0.9-0.9,1.6-1.6,2.1s-1.3,0.8-2,1c-0.7,0.2-1.3,0.3-1.9,0.3H64v0.5c1.3,0.1,2.4,0.3,3.3,0.6c0.9,0.3,1.8,1,2.5,2.1
			c0.8,1.3,1.3,2.7,1.5,4.3c0.2,1.6,0.3,3.9,0.3,6.8v7.7c0,2,0,3.6,0.1,4.9c0.1,1.3,0.2,2.4,0.3,3.3c0.1,0.9,0.3,1.8,0.5,2.7
			c0.2,0.9,0.6,1.8,1,2.9h-9.7c-0.3-1.7-0.6-3-0.8-4.1s-0.3-2.2-0.4-3.2c-0.1-1-0.2-2.1-0.2-3.2c0-1.1-0.1-2.5-0.1-4.2v-5
			c-0.1-1.2-0.1-2.4-0.2-3.6c0-1.2-0.1-2.4-0.3-3.6c-0.1-0.9-0.3-1.7-0.5-2.5c-0.2-0.8-0.6-1.5-1.2-2c-0.5-0.3-1-0.5-1.5-0.6
			s-1-0.2-1.6-0.2h-3.8v32.4H44V158.4z M53.4,166.9v21.7h4.4c1.2,0,2.2-0.2,2.9-0.6c0.7-0.4,1.2-1.2,1.6-2.5
			c0.2-0.9,0.3-2.3,0.4-4.2s0.1-4.1,0.1-6.6c0-0.7,0-1.5-0.1-2.2c0-0.8-0.1-1.5-0.2-2.2c-0.1-1.4-0.4-2.3-1-2.8
			c-0.3-0.3-0.8-0.5-1.3-0.5c-0.5,0-1.2,0-2.2,0H53.4z M110.6,169.1v12.4h-8.5v-12.4c0-0.2,0-0.6-0.1-1.1c0-0.5-0.2-1.1-0.4-1.6
			c-0.2-0.5-0.6-1-1.1-1.4s-1.3-0.6-2.3-0.6c-1.1,0-2,0.2-2.6,0.6c-0.6,0.4-1.1,1-1.4,1.7c-0.3,0.7-0.5,1.5-0.6,2.3
			c-0.1,0.9-0.1,1.7-0.1,2.5c0,1.5,0.1,2.8,0.3,4c0.2,1.2,0.5,2.3,0.9,3.4s0.9,2.2,1.5,3.2s1.3,2.2,2.1,3.4c0.7,1.1,1.3,2.1,2,3.1
			c0.7,1,1.4,2,2.1,3.1c1,1.4,2,2.9,3.1,4.6c1.2,1.9,2.2,3.7,2.9,5.3c0.7,1.6,1.3,3.1,1.7,4.5c0.4,1.4,0.7,2.7,0.8,3.9
			c0.1,1.2,0.2,2.3,0.2,3.3c0,0.4,0,1.3-0.1,2.6c-0.1,1.3-0.4,2.8-0.9,4.4c-0.5,1.6-1.3,3.3-2.3,4.9c-1,1.6-2.6,2.9-4.6,3.7
			c-0.6,0.3-1.4,0.5-2.4,0.7c-1,0.2-2.3,0.3-3.8,0.3c-2.9,0-5.1-0.5-6.8-1.4s-2.8-1.9-3.6-2.8c-1.5-1.7-2.3-3.4-2.6-5.3
			s-0.4-3.8-0.5-5.9V203h8.6v12.8c0,1.7,0.2,3,0.5,3.8c0.3,0.8,0.8,1.5,1.6,2c0.2,0.1,0.5,0.3,1,0.5c0.5,0.2,1.1,0.3,1.8,0.3
			c1.1,0,2-0.3,2.7-0.8c0.6-0.6,1.1-1.3,1.4-2.1c0.3-0.8,0.4-1.7,0.5-2.7c0-1,0.1-1.8,0.1-2.6c0-2.5-0.3-4.6-0.8-6.4
			c-0.5-1.7-1.4-3.7-2.7-5.9c-1.3-2.3-2.8-4.5-4.3-6.6s-2.9-4.3-4.3-6.5c-0.4-0.6-0.9-1.4-1.5-2.4c-0.6-1-1.2-2.2-1.8-3.6
			c-0.6-1.4-1.1-3-1.5-4.7s-0.7-3.7-0.7-5.7c0-3.9,0.7-6.9,2.1-9s2.8-3.7,4.3-4.5c0.7-0.5,1.8-0.9,3.1-1.3c1.3-0.4,3-0.6,5-0.6
			c0.5,0,1.2,0,2.3,0.1c1,0.1,2.1,0.3,3.3,0.7c1.1,0.4,2.2,1.1,3.3,2c1.1,0.9,1.9,2.3,2.4,4c0.2,0.7,0.4,1.4,0.5,2.1
			C110.5,166.6,110.5,167.7,110.6,169.1z M140.1,158.4l10.9,70.3h-9.1l-1.8-12.9h-10.6l-1.6,12.9h-9.1l10-70.3H140.1z M133.5,183
			l-3,24.2h8.4l-3.5-24.4c-0.1-0.6-0.2-1.2-0.3-1.8c0-0.6-0.1-1.2-0.2-1.8c-0.1-1.3-0.1-2.6-0.1-3.8c0-1.3,0-2.5-0.1-3.8H134
			c-0.1,1.9-0.1,3.8-0.2,5.7C133.7,179.2,133.6,181.1,133.5,183z M190.2,158.4V220h15.4v8.7h-24.7v-70.3H190.2z M232,158.4
			l10.9,70.3h-9.1l-1.8-12.9h-10.6l-1.6,12.9h-9.1l10-70.3H232z M225.4,183l-3,24.2h8.4l-3.5-24.4c-0.1-0.6-0.2-1.2-0.3-1.8
			c0-0.6-0.1-1.2-0.2-1.8c-0.1-1.3-0.1-2.6-0.1-3.8c0-1.3,0-2.5-0.1-3.8h-0.8c-0.1,1.9-0.1,3.8-0.2,5.7
			C225.6,179.2,225.5,181.1,225.4,183z M251.9,158.4h16.5c1.5,0,2.9,0.1,4.4,0.2s2.8,0.8,3.9,1.8c1.3,1.2,2,2.7,2.2,4.5
			c0.2,1.8,0.3,4.3,0.4,7.4c0,0.6,0,1.2,0.1,1.8c0,0.6,0.1,1.2,0.1,1.8c0,1.1,0,2.2-0.1,3.3c0,1.1-0.1,2.2-0.2,3.3
			c0,0.2,0,0.9-0.1,2.1c-0.1,1.2-0.3,2.3-0.8,3.3c-0.4,0.7-1,1.3-1.7,1.8c-0.7,0.5-1.4,0.8-2.2,1c-0.4,0.1-0.8,0.2-1.3,0.2
			c-0.5,0-0.8,0-0.9,0.1v0.5c1.3,0.1,2.4,0.4,3.5,0.7c1,0.4,1.9,1.1,2.6,2.2c0.5,1,0.8,2.2,0.9,3.7c0.1,1.5,0.1,3.4,0.1,5.9
			c0.1,0.9,0.1,1.9,0.1,2.8v7c0,1.4-0.1,2.8-0.2,4.3c0,0.2,0,0.6-0.1,1.2c0,0.6-0.2,1.3-0.4,2.1c-0.2,0.8-0.5,1.6-0.9,2.5
			s-1,1.6-1.7,2.3c-1.4,1.1-3,1.8-4.9,1.9s-3.6,0.2-5.3,0.2h-14.2V158.4z M260.9,166.8v21.1h3.6c1.5-0.1,2.7-0.2,3.7-0.5
			c1-0.3,1.6-1.3,1.8-3c0.2-1.4,0.3-3.8,0.3-7.1c0-2.2-0.1-4.4-0.3-6.6c-0.1-1.7-0.4-2.8-1-3.3c-0.3-0.3-0.8-0.5-1.3-0.5
			c-0.5,0-1.2,0-2.1,0H260.9z M260.9,195.5V220h4.8c0.5,0,1,0,1.5,0c0.5,0,0.9-0.1,1.3-0.2c0.4-0.1,0.7-0.3,1-0.6
			c0.3-0.3,0.5-0.8,0.6-1.4c0-0.3,0-0.7,0.1-1.4c0-0.7,0.1-1.5,0.1-2.4c0-0.9,0.1-1.9,0.1-2.9c0-1.1,0.1-2.1,0.1-3.1
			c0-1.2,0-2.4-0.1-3.5c0-1.2-0.1-2.3-0.2-3.5c-0.1-0.7-0.2-1.4-0.3-2.3c-0.1-0.9-0.4-1.6-1-2.1c-0.4-0.3-0.9-0.5-1.4-0.6
			s-1-0.1-1.5-0.1H260.9z M318.4,169.1v12.4h-8.5v-12.4c0-0.2,0-0.6-0.1-1.1c0-0.5-0.2-1.1-0.4-1.6c-0.2-0.5-0.6-1-1.1-1.4
			c-0.5-0.4-1.3-0.6-2.3-0.6c-1.1,0-2,0.2-2.6,0.6s-1.1,1-1.4,1.7s-0.5,1.5-0.6,2.3c-0.1,0.9-0.1,1.7-0.1,2.5c0,1.5,0.1,2.8,0.3,4
			s0.5,2.3,0.9,3.4s0.9,2.2,1.5,3.2c0.6,1.1,1.3,2.2,2.1,3.4c0.7,1.1,1.3,2.1,2,3.1c0.7,1,1.4,2,2.1,3.1c1,1.4,2,2.9,3.1,4.6
			c1.2,1.9,2.2,3.7,2.9,5.3c0.7,1.6,1.3,3.1,1.7,4.5c0.4,1.4,0.7,2.7,0.8,3.9c0.1,1.2,0.2,2.3,0.2,3.3c0,0.4,0,1.3-0.1,2.6
			c-0.1,1.3-0.4,2.8-0.9,4.4c-0.5,1.6-1.3,3.3-2.3,4.9c-1,1.6-2.6,2.9-4.6,3.7c-0.6,0.3-1.4,0.5-2.4,0.7c-1,0.2-2.3,0.3-3.8,0.3
			c-2.9,0-5.1-0.5-6.8-1.4c-1.6-0.9-2.8-1.9-3.6-2.8c-1.5-1.7-2.3-3.4-2.6-5.3c-0.3-1.9-0.4-3.8-0.5-5.9V203h8.6v12.8
			c0,1.7,0.2,3,0.5,3.8c0.3,0.8,0.8,1.5,1.6,2c0.2,0.1,0.5,0.3,1,0.5c0.5,0.2,1.1,0.3,1.8,0.3c1.1,0,2-0.3,2.7-0.8
			c0.6-0.6,1.1-1.3,1.4-2.1c0.3-0.8,0.4-1.7,0.5-2.7c0-1,0.1-1.8,0.1-2.6c0-2.5-0.3-4.6-0.8-6.4c-0.5-1.7-1.4-3.7-2.7-5.9
			c-1.3-2.3-2.8-4.5-4.3-6.6c-1.5-2.1-2.9-4.3-4.3-6.5c-0.4-0.6-0.9-1.4-1.5-2.4c-0.6-1-1.2-2.2-1.8-3.6c-0.6-1.4-1.1-3-1.5-4.7
			c-0.4-1.8-0.7-3.7-0.7-5.7c0-3.9,0.7-6.9,2.1-9s2.8-3.7,4.3-4.5c0.7-0.5,1.8-0.9,3.1-1.3c1.3-0.4,3-0.6,5-0.6c0.5,0,1.2,0,2.3,0.1
			c1,0.1,2.1,0.3,3.3,0.7s2.2,1.1,3.3,2s1.9,2.3,2.4,4c0.2,0.7,0.4,1.4,0.5,2.1C318.2,166.6,318.3,167.7,318.4,169.1z"/>
		<g id="Group-3-Copy" transform="translate(47.000000, 0.000000)">
			<g id="Clip-2">
			</g>
			<defs>
				<filter id="Adobe_OpacityMaskFilter" filterUnits="userSpaceOnUse" x="0" y="0" width="225.8" height="123.9">
					<feColorMatrix  type="matrix" values="1 0 0 0 0  0 1 0 0 0  0 0 1 0 0  0 0 0 1 0"/>
				</filter>
			</defs>
			<mask maskUnits="userSpaceOnUse" x="0" y="0" width="225.8" height="123.9" id="mask-2_1_">
				<g class="st1">
					<polygon id="path-1_1_" class="st2" points="0,0 225.9,0 225.9,123.9 0,123.9 					"/>
				</g>
			</mask>
			<g id="Page-1" class="st3">
				<g id="Mask">
					<path class="st0" d="M177.2,54.3c6.1,21.2,19.4,48.5,24,54.7c5.3-1.2,9.1,1.2,12.4,5.1c-1.2,0.9-2.7,1.5-3.4,2.6
						c-2.7,4.4-6.9,3-10.7,3.2c-2.8,0.2-5.6,0.3-8.4,0.3c-0.9,0-1.8-0.3-2.7-0.5c-1-0.3-1.9-1-2.8-1c-2.5,0.1-4.7,0-7.1-1.1
						c-1-0.5-2.6,0.9-3.6-0.8c-1.1-1.8-2.2-3.6-3.4-5.5c-1.2,0.2-2.2,0.4-3.4,0.6c-2.4-3-3.4-14.8-6.1-17.7
						c-0.6-0.7-2.1-2.2-3.8-2.7c-0.3-0.9-5.4-7.2-5.9-8.7c-0.2-0.5-0.3-1.2-0.7-1.4c-3.1-2-4.2-4.9-4-8.5c0-0.4-0.2-0.7-0.4-1.7
						c-1.2,2.7-2.2,4.8-3.2,7.1c-0.6,1.4-1,2.9-1.8,4.3c-0.5,0.9-1.3,1.6-2,2.3c-2.4,2.2-1.8,0.9-3.2,3.6c-1.1,2-2,4-3,6.1
						c-0.5,1.1-0.9,2.2-1.1,3.3c-0.7,4.1-3.2,7.6-1.5,11.2c3,0.6,6.3,0.5,8.6,2c2.2,1.5,3.5,4.5,5,6.7c-3.1,0.5-5.9,1.2-8.7,1.4
						c-3.8,0.3-7.6,0.2-11.3,0.2c-5,0-10.1-0.1-15.1-0.1c-2.6,0-3.9-1.5-5.4-3.7c-2.1-3.1-1.1-6-0.8-9.1c0.1-0.8,0-3.3-0.1-4.2
						c-0.1-0.9-0.1-1.9,0-2.9c0.2-1.3,0.8-2.6,0.9-3.9c0.1-1.5-0.4-3-0.4-4.5c0-1.5,0.1-3.1,0.5-4.6c0.7-2.7-0.1,0,0.7-2.7
						c0.1-0.2,0-0.7,0-0.8c-0.9-3.6,1.8-6,2.8-8.8c0-0.1,0-0.1-0.1-0.5c-1.8,1.8-4.1,0.8-6.1,1.2c-2.9,0.6-5.7,2.1-8,3
						c-1.4-0.1-2.5-0.4-3.5-0.2c-2,0.5-3.9,1.1-6.2,0.9c-2.5-0.2-5.1,0.6-7.7,0.8c-2.2,0.2-4.8,0.9-6.5,0c-1.5-0.7-2.8-0.9-4.4-1
						c-1.6-0.1-2.4,0.7-2.6,2.1c-1.1,6.3-2.3,12.7-3.1,19.1c-0.4,3.3-0.2,6.6-0.2,9.9c0,1.5,0.6,2.5,1.9,3.5
						c1.5,1.1,2.6,2.7,3.6,4.3c0.8,1.3,0.6,2.6-1.5,2.7c-7.3,0.2-14.6,0.5-21.9,0.4c-2.1,0-4.2-1.5-6.2-2.5
						c-0.3-0.2-0.4-1.1-0.4-1.7c0-4.4,0-13.5,0-18.4c-1,0.6-1.3,0.8-1.6,1c-2.5,2.3-4.9,4.1-7.3,6.4c-1.9,1.8-1.6,3.3,0.2,5.4
						c2.4,2.7,4.4,5.7,4.4,9.5c0,2.5-2.2,3.2-3.8,3.3c-5.7,0.4-11.5,0.4-17.2,0.4c-2.8,0-3.8-1.5-4.4-4.2
						c-1.2-5.4-2.2-10.8-4.3-16.1c-1.6-4.1-2-8.9,1.5-13c5.1-5.9,9.5-12.3,12.8-19.5c1-2.2,1.4-3.8,0.4-6.1c-4.9-1-7.1-3.7-8.2-8.7
						c-1-4.6-0.2-8.9,1-13.2c2.3-7.8,4.1-11,8.4-18c5.6-9,13.4-15.5,22.8-20.2c11.3-5.6,23.3-5.5,35.3-4.2
						c16.2,1.6,32.4,3.6,48.6,5.3c1.3,0.1,2.9-0.2,4.1-0.8c7.7-3.9,15.5-4.2,23.6-1.4c5.6,1.9,11.4,3.6,17.1,5.2
						c2,0.6,4.1,0.8,6.2,1.1c5.7,0.9,11.5,1.8,17.3,2.4c2.9,0.3,5.9,0.1,8.8,0.3c0.7,0,1.5,0.3,2.1,0.7c2.6,1.8,5.1,3.7,7.5,5.6
						c1.6,1.2,3.2,2.3,4.5,3.8c0.6,0.7,0.7,1.9,0.9,2.9c0.3,1.1,0.3,2.6,0.9,3.4c2.6,3.1,5.3,6,8.1,8.9c0.9,1,1.1,1.7,0.3,2.9
						c-1.2,1.6-1.8,3.7-3.3,4.8c-3.1,2.2-6.3,4.3-10.7,3.2c-2.5-0.6-5.5,0.5-8.2,0.8c-2.1,0.3-4.3,0.2-6.2,0.9
						c-4.1,1.6-8.5,1.1-12.5,2.3c-1.5,0.4-2.8,1.2-4.3,1.6C179.2,54.8,178.3,54.5,177.2,54.3"/>
				</g>
			</g>
		</g>
	</g>
</g>
</svg>
