<?xml version="1.0" encoding="utf-8"?>
<!-- Generator: Adobe Illustrator 26.3.1, SVG Export Plug-In . SVG Version: 6.00 Build 0)  -->
<svg version="1.1" id="Layer_1" xmlns="http://www.w3.org/2000/svg" xmlns:xlink="http://www.w3.org/1999/xlink" x="0px" y="0px"
	 viewBox="0 0 1887.7 876.4" style="enable-background:new 0 0 1887.7 876.4;" xml:space="preserve">
<style type="text/css">
	.st0{fill:#005050;}
</style>
<g>
	<g>
		<g>
			<path class="st0" d="M943.8,0L943.8,0H791.1H638.5l76.3,132.2l76.3,132.2l76.3,132.2l76.4,132.2l76.3-132.2l76.3-132.2
				l-76.3-132.2L943.8,0z M1000,385l-56.2,97.4L887.6,385L818,264.4l69.6-120.6l56.2-97.4l56.2,97.4l69.6,120.6L1000,385z"/>
			<polygon class="st0" points="1082.5,0 1096,23.5 1208.4,23.5 1152.1,121.1 1165.6,144.6 1249.1,0 			"/>
		</g>
	</g>
	<g>
		<g>
			<path class="st0" d="M3.2,758.3c-1-2.1-0.3-3.6,1.7-3.6h14.7c1.2-0.2,2.5,0.1,3.5,0.7c1,0.7,1.8,1.7,2.2,2.8l38.2,78.4h0.3
				l38.3-78.4c0.4-1.2,1.2-2.2,2.2-2.8c1-0.7,2.3-0.9,3.5-0.7h14.7c2.1,0,2.9,1.5,1.7,3.6L66.8,873.9c-0.7,1.5-1.4,2-2.6,2h-1
				c-1.2,0-1.9-0.5-2.5-2L3.2,758.3z"/>
			<path class="st0" d="M245.4,752.4c16.2,0.3,31.6,7,43,18.6c11.3,11.6,17.7,27.1,17.7,43.4c0,16.2-6.3,31.8-17.7,43.4
				c-11.3,11.6-26.8,18.3-43,18.6c-34.5,0-61.1-27.1-61.1-62C184.2,779.6,210.9,752.4,245.4,752.4z M245.4,858.4
				c24.9,0,41.7-20.6,41.7-44s-16.7-44.1-41.7-44.1c-24.9,0-41.5,20.5-41.5,44.1S220.6,858.5,245.4,858.4L245.4,858.4z"/>
			<path class="st0" d="M454.2,856.8c2.9,0,3.4,0.7,3.4,3.4v10.4c0,2.9-0.7,3.6-3.4,3.6h-70c-2.6,0-3.4-0.9-3.4-3.6V758.3
				c0-2.7,0.8-3.6,3.4-3.6h12.6c2.5,0,3.4,0.9,3.4,3.6v98.5H454.2z"/>
			<path class="st0" d="M593.9,754.7c2.9,0,3.6,0.9,3.6,3.6v10.9c0,2.9-0.9,3.6-3.6,3.6h-34.5v97.8c0,2.9-0.7,3.6-3.4,3.6h-12.6
				c-2.6,0-3.4-0.9-3.4-3.6v-97.8h-34.7c-2.5,0-3.4-0.9-3.4-3.6v-10.9c0-2.7,0.9-3.6,3.4-3.6H593.9z"/>
			<path class="st0" d="M686,870.7c0,2.9-0.9,3.6-3.4,3.6H670c-2.6,0-3.4-0.9-3.4-3.6V758.3c0-2.7,0.8-3.6,3.4-3.6h44.6
				c20,0,42,9.9,42,37.5c0,21.9-13.8,32.6-29.6,36l28.5,41.5c1.9,2.9,0.7,4.5-2.6,4.5h-13.6c-1.2,0-2.4-0.4-3.5-1
				c-1-0.6-1.9-1.5-2.5-2.6l-28.4-41h-19.1L686,870.7z M712.7,811.8c18.4,0,24.2-8.6,24.2-19.8s-5.7-19.4-24.2-19.4h-26.6v39.3
				L712.7,811.8L712.7,811.8z"/>
			<path class="st0" d="M885.7,752.4c16.2,0.3,31.6,7,43,18.6c11.3,11.6,17.7,27.1,17.7,43.4c0,16.2-6.3,31.8-17.7,43.4
				c-11.3,11.6-26.8,18.3-43,18.6c-34.5,0-61.1-27.1-61.1-62C824.5,779.6,851.2,752.4,885.7,752.4z M885.7,858.4
				c24.9,0,41.6-20.6,41.6-44s-16.7-44.1-41.6-44.1c-24.9,0-41.4,20.6-41.4,44.1C844.2,838.1,860.9,858.5,885.7,858.4L885.7,858.4z"
				/>
			<path class="st0" d="M1040.9,796.4h-0.3v74.2c0,2.9-0.9,3.6-3.4,3.6h-12.5c-2.9,0-3.6-0.9-3.6-3.6V754.7c0-1.2,0.5-1.7,1.9-1.7
				h0.9c0.6,0,1.1,0.1,1.6,0.4c0.5,0.3,0.9,0.7,1.2,1.1l76.1,78h0.3v-74.2c0-2.7,0.7-3.6,3.4-3.6h12.5c2.9,0,3.6,0.9,3.6,3.6v115.8
				c0,1.3-0.5,1.9-1.9,1.9h-0.9c-0.6,0-1.1-0.1-1.6-0.4c-0.5-0.3-0.9-0.6-1.2-1.1L1040.9,796.4z"/>
			<path class="st0" d="M1335.7,754.7c34.5,0,60.3,24.9,60.3,59.8c0,34.8-25.7,59.8-60.3,59.8h-42.8c-2.6,0-3.4-0.9-3.4-3.6V758.3
				c0-2.7,0.8-3.6,3.4-3.6H1335.7z M1309.1,772.5v84h26.6c24.8,0,40.6-18.6,40.6-42s-15.9-42.1-40.6-42.1L1309.1,772.5z"/>
			<path class="st0" d="M1577,870.7c1,2.1,0.3,3.6-1.7,3.6h-14.7c-1.2,0.1-2.4-0.1-3.5-0.8c-1-0.7-1.8-1.6-2.2-2.8l-10.9-22.5h-55
				l-10.9,22.5c-0.4,1.2-1.1,2.2-2.2,2.9c-1,0.7-2.3,0.9-3.5,0.7h-14.7c-2.1,0-2.9-1.5-1.7-3.6l57.4-115.6c0.7-1.5,1.4-2.1,2.6-2.1
				h1c1.2,0,1.9,0.5,2.6,2.1L1577,870.7z M1516.6,790.1l-19.8,40.1h39.6l-19.6-40.1H1516.6z"/>
			<path class="st0" d="M1714.4,754.7c2.9,0,3.6,0.9,3.6,3.6v10.9c0,2.9-0.9,3.6-3.6,3.6h-34.5v97.8c0,2.9-0.7,3.6-3.4,3.6h-12.7
				c-2.5,0-3.4-0.9-3.4-3.6v-97.8h-34.7c-2.6,0-3.4-0.9-3.4-3.6v-10.9c0-2.7,0.9-3.6,3.4-3.6H1714.4z"/>
			<path class="st0" d="M1884.4,870.7c1,2.1,0.3,3.6-1.7,3.6H1868c-1.2,0.1-2.4-0.1-3.5-0.8c-1-0.7-1.8-1.6-2.2-2.8l-10.9-22.5
				h-54.9l-10.9,22.5c-0.3,1.2-1.1,2.2-2.2,2.9s-2.3,0.9-3.5,0.7h-14.7c-2.1,0-2.9-1.5-1.7-3.6l57.4-115.6c0.7-1.5,1.4-2.1,2.6-2.1
				h1c1.2,0,1.9,0.5,2.6,2.1L1884.4,870.7z M1823.9,790.1l-19.8,40.1h39.6l-19.6-40.1H1823.9z"/>
		</g>
	</g>
</g>
</svg>
